M48
INCH,TZ
T1C0.010
T2C0.013
T3C0.016
T4C0.033
T5C0.040
T6C0.045
T7C0.049
T8C0.058
T9C0.087
T10C0.135
%
G90
G05
T1
X61925Y-51453
X61925Y-51665
X61925Y-51878
X61925Y-52091
X62138Y-51453
X62138Y-51665
X62138Y-51878
X62138Y-52091
X62350Y-51453
X62350Y-51665
X62350Y-51878
X62350Y-52091
X62563Y-51453
X62563Y-51665
X62563Y-51878
X62563Y-52091
T2
X40768Y-39933
X40768Y-57053
X41039Y-39279
X41039Y-40587
X41039Y-56399
X41039Y-57707
X41693Y-39008
X41693Y-40858
X41693Y-56128
X41693Y-57978
X42347Y-39279
X42347Y-40587
X42347Y-56399
X42347Y-57707
X42618Y-39933
X42618Y-57053
X51934Y-43699
X52118Y-43254
X52118Y-44145
X52564Y-43069
X52564Y-44329
X53009Y-43254
X53009Y-44145
X53194Y-43699
X54059Y-47976
X54843Y-46638
X54976Y-51165
X55252Y-51795
X55303Y-53087
X55461Y-52445
X55717Y-47657
X55933Y-53087
X56008Y-45709
X56441Y-47043
X56457Y-47535
X57319Y-46888
X57457Y-46039
X57567Y-48303
X57811Y-51307
X58091Y-51031
X58228Y-41327
X58370Y-50776
X58441Y-42161
X58650Y-50516
X58654Y-51346
X58711Y-43957
X58756Y-45747
X58805Y-44908
X58902Y-46096
X59134Y-43205
X59138Y-46685
X59142Y-43909
X59239Y-44892
X59315Y-49126
X59407Y-46960
X59472Y-42346
X59524Y-43681
X59606Y-46413
X60193Y-43055
X60677Y-42768
X60705Y-48213
X60709Y-46894
X60988Y-46516
X61410Y-43699
X61563Y-46602
X61595Y-43254
X61595Y-44145
X62040Y-43069
X62040Y-44329
X62486Y-43254
X62486Y-44145
X62670Y-43699
X62839Y-52917
X62890Y-54217
X63201Y-53654
X63201Y-54067
X63386Y-54583
X63608Y-57053
X63613Y-39933
X63879Y-56399
X63879Y-57707
X63884Y-39279
X63884Y-40587
X63996Y-43906
X64417Y-45236
X64520Y-48606
X64533Y-56128
X64533Y-57978
X64538Y-39008
X64538Y-40858
X64839Y-43287
X65187Y-56399
X65187Y-57707
X65192Y-39279
X65192Y-40587
X65458Y-57053
X65463Y-39933
X65760Y-45079
T3
X40681Y-55610
X52106Y-47500
X53283Y-46091
X53528Y-45890
X53610Y-47319
X53634Y-43213
X53728Y-49398
X54161Y-44531
X55709Y-47268
X56701Y-43740
X56713Y-48256
X57278Y-43647
X57355Y-46503
X59745Y-45492
X59831Y-48870
X59858Y-44575
X60626Y-43697
X60787Y-45039
X60827Y-44094
X62835Y-44409
X62874Y-48154
X62890Y-53858
X62894Y-53461
X62909Y-48965
X62913Y-49327
X62913Y-49685
X62913Y-50035
X62913Y-50390
X62988Y-54614
X63327Y-48965
X63327Y-49327
X63327Y-49685
X63327Y-50035
X63327Y-50386
X63815Y-49173
X64035Y-52756
X64154Y-50433
X64441Y-52039
X64441Y-52921
X64783Y-54165
X65488Y-47976
X65807Y-50472
X66933Y-43681
T4
X65327Y-44607
X65327Y-46576
T5
X44220Y-38685
X44220Y-39685
X45220Y-38685
X45220Y-39685
X46220Y-38685
X46220Y-39685
X47220Y-38685
X47220Y-39685
X48220Y-38685
X48220Y-39685
X49220Y-38685
X49220Y-39685
X50220Y-38685
X50220Y-39685
X51220Y-38685
X51220Y-39685
X52800Y-57400
X52800Y-58400
X53800Y-57400
X53800Y-58400
X54800Y-57400
X54800Y-58400
X55800Y-57400
X55800Y-58400
X56800Y-57400
X56800Y-58400
X57800Y-57400
X57800Y-58400
X58800Y-57400
X58800Y-58400
X59800Y-57400
X59800Y-58400
X60800Y-57400
X60800Y-58400
X61800Y-57400
X61800Y-58400
X66472Y-48610
X66472Y-49610
X66472Y-50610
X66472Y-51610
X66472Y-52610
X66472Y-57579
X66472Y-58579
T6
X66378Y-44240
X66378Y-46941
T7
X64016Y-47283
X64016Y-49843
T8
X47705Y-58079
X47709Y-43134
T9
X52564Y-43699
X62040Y-43699
T10
X41693Y-39933
X41693Y-57053
X64533Y-57053
X64538Y-39933
T0
M30
