G04 #@! TF.GenerationSoftware,KiCad,Pcbnew,(2017-01-24 revision 0b6147e)-makepkg*
G04 #@! TF.CreationDate,2018-07-27T21:37:05-07:00*
G04 #@! TF.ProjectId,SmartiePiNode,536D617274696550694E6F64652E6B69,1.a*
G04 #@! TF.FileFunction,Legend,Bot*
G04 #@! TF.FilePolarity,Positive*
%FSLAX46Y46*%
G04 Gerber Fmt 4.6, Leading zero omitted, Abs format (unit mm)*
G04 Created by KiCad (PCBNEW (2017-01-24 revision 0b6147e)-makepkg) date 07/27/18 21:37:05*
%MOMM*%
%LPD*%
G01*
G04 APERTURE LIST*
%ADD10C,0.100000*%
%ADD11C,0.150000*%
%ADD12C,1.650006*%
%ADD13C,1.504000*%
%ADD14C,0.787400*%
%ADD15C,4.352400*%
%ADD16R,1.879600X1.879600*%
%ADD17O,1.879600X1.879600*%
%ADD18R,2.184400X1.879600*%
%ADD19O,2.184400X1.879600*%
%ADD20C,2.102400*%
%ADD21C,6.121400*%
%ADD22C,2.676400*%
%ADD23C,1.422400*%
%ADD24R,2.184400X2.184400*%
%ADD25O,2.184400X2.184400*%
%ADD26C,1.052400*%
%ADD27C,0.652400*%
G04 APERTURE END LIST*
D10*
D11*
X145481904Y-103470476D02*
X145577142Y-103422857D01*
X145767619Y-103422857D01*
X145862857Y-103470476D01*
X145958095Y-103565714D01*
X146005714Y-103660952D01*
X146005714Y-103851428D01*
X145958095Y-103946666D01*
X145862857Y-104041904D01*
X145767619Y-104089523D01*
X145577142Y-104089523D01*
X145481904Y-104041904D01*
X145672380Y-103089523D02*
X145910476Y-103137142D01*
X146148571Y-103280000D01*
X146291428Y-103518095D01*
X146339047Y-103756190D01*
X146291428Y-103994285D01*
X146148571Y-104232380D01*
X145910476Y-104375238D01*
X145672380Y-104422857D01*
X145434285Y-104375238D01*
X145196190Y-104232380D01*
X145053333Y-103994285D01*
X145005714Y-103756190D01*
X145053333Y-103518095D01*
X145196190Y-103280000D01*
X145434285Y-103137142D01*
X145672380Y-103089523D01*
X143529523Y-103232380D02*
X143529523Y-103946666D01*
X143577142Y-104089523D01*
X143672380Y-104184761D01*
X143815238Y-104232380D01*
X143910476Y-104232380D01*
X142910476Y-104232380D02*
X143005714Y-104184761D01*
X143053333Y-104137142D01*
X143100952Y-104041904D01*
X143100952Y-103756190D01*
X143053333Y-103660952D01*
X143005714Y-103613333D01*
X142910476Y-103565714D01*
X142767619Y-103565714D01*
X142672380Y-103613333D01*
X142624761Y-103660952D01*
X142577142Y-103756190D01*
X142577142Y-104041904D01*
X142624761Y-104137142D01*
X142672380Y-104184761D01*
X142767619Y-104232380D01*
X142910476Y-104232380D01*
X142148571Y-103565714D02*
X142148571Y-104232380D01*
X142148571Y-103660952D02*
X142100952Y-103613333D01*
X142005714Y-103565714D01*
X141862857Y-103565714D01*
X141767619Y-103613333D01*
X141720000Y-103708571D01*
X141720000Y-104232380D01*
X140624761Y-103232380D02*
X140053333Y-103232380D01*
X140339047Y-104232380D02*
X140339047Y-103232380D01*
X139720000Y-104232380D02*
X139720000Y-103232380D01*
X139291428Y-104232380D02*
X139291428Y-103708571D01*
X139339047Y-103613333D01*
X139434285Y-103565714D01*
X139577142Y-103565714D01*
X139672380Y-103613333D01*
X139720000Y-103660952D01*
X138672380Y-104232380D02*
X138767619Y-104184761D01*
X138815238Y-104137142D01*
X138862857Y-104041904D01*
X138862857Y-103756190D01*
X138815238Y-103660952D01*
X138767619Y-103613333D01*
X138672380Y-103565714D01*
X138529523Y-103565714D01*
X138434285Y-103613333D01*
X138386666Y-103660952D01*
X138339047Y-103756190D01*
X138339047Y-104041904D01*
X138386666Y-104137142D01*
X138434285Y-104184761D01*
X138529523Y-104232380D01*
X138672380Y-104232380D01*
X137910476Y-104232380D02*
X137910476Y-103565714D01*
X137910476Y-103660952D02*
X137862857Y-103613333D01*
X137767619Y-103565714D01*
X137624761Y-103565714D01*
X137529523Y-103613333D01*
X137481904Y-103708571D01*
X137481904Y-104232380D01*
X137481904Y-103708571D02*
X137434285Y-103613333D01*
X137339047Y-103565714D01*
X137196190Y-103565714D01*
X137100952Y-103613333D01*
X137053333Y-103708571D01*
X137053333Y-104232380D01*
X136148571Y-104232380D02*
X136148571Y-103708571D01*
X136196190Y-103613333D01*
X136291428Y-103565714D01*
X136481904Y-103565714D01*
X136577142Y-103613333D01*
X136148571Y-104184761D02*
X136243809Y-104232380D01*
X136481904Y-104232380D01*
X136577142Y-104184761D01*
X136624761Y-104089523D01*
X136624761Y-103994285D01*
X136577142Y-103899047D01*
X136481904Y-103851428D01*
X136243809Y-103851428D01*
X136148571Y-103803809D01*
X135720000Y-104184761D02*
X135624761Y-104232380D01*
X135434285Y-104232380D01*
X135339047Y-104184761D01*
X135291428Y-104089523D01*
X135291428Y-104041904D01*
X135339047Y-103946666D01*
X135434285Y-103899047D01*
X135577142Y-103899047D01*
X135672380Y-103851428D01*
X135720000Y-103756190D01*
X135720000Y-103708571D01*
X135672380Y-103613333D01*
X135577142Y-103565714D01*
X135434285Y-103565714D01*
X135339047Y-103613333D01*
X134910476Y-104184761D02*
X134815238Y-104232380D01*
X134624761Y-104232380D01*
X134529523Y-104184761D01*
X134481904Y-104089523D01*
X134481904Y-104041904D01*
X134529523Y-103946666D01*
X134624761Y-103899047D01*
X134767619Y-103899047D01*
X134862857Y-103851428D01*
X134910476Y-103756190D01*
X134910476Y-103708571D01*
X134862857Y-103613333D01*
X134767619Y-103565714D01*
X134624761Y-103565714D01*
X134529523Y-103613333D01*
X133910476Y-104232380D02*
X134005714Y-104184761D01*
X134053333Y-104137142D01*
X134100952Y-104041904D01*
X134100952Y-103756190D01*
X134053333Y-103660952D01*
X134005714Y-103613333D01*
X133910476Y-103565714D01*
X133767619Y-103565714D01*
X133672380Y-103613333D01*
X133624761Y-103660952D01*
X133577142Y-103756190D01*
X133577142Y-104041904D01*
X133624761Y-104137142D01*
X133672380Y-104184761D01*
X133767619Y-104232380D01*
X133910476Y-104232380D01*
X133148571Y-103565714D02*
X133148571Y-104232380D01*
X133148571Y-103660952D02*
X133100952Y-103613333D01*
X133005714Y-103565714D01*
X132862857Y-103565714D01*
X132767619Y-103613333D01*
X132720000Y-103708571D01*
X132720000Y-104232380D01*
X131529523Y-103327619D02*
X131481904Y-103280000D01*
X131386666Y-103232380D01*
X131148571Y-103232380D01*
X131053333Y-103280000D01*
X131005714Y-103327619D01*
X130958095Y-103422857D01*
X130958095Y-103518095D01*
X131005714Y-103660952D01*
X131577142Y-104232380D01*
X130958095Y-104232380D01*
X130339047Y-103232380D02*
X130243809Y-103232380D01*
X130148571Y-103280000D01*
X130100952Y-103327619D01*
X130053333Y-103422857D01*
X130005714Y-103613333D01*
X130005714Y-103851428D01*
X130053333Y-104041904D01*
X130100952Y-104137142D01*
X130148571Y-104184761D01*
X130243809Y-104232380D01*
X130339047Y-104232380D01*
X130434285Y-104184761D01*
X130481904Y-104137142D01*
X130529523Y-104041904D01*
X130577142Y-103851428D01*
X130577142Y-103613333D01*
X130529523Y-103422857D01*
X130481904Y-103327619D01*
X130434285Y-103280000D01*
X130339047Y-103232380D01*
X129053333Y-104232380D02*
X129624761Y-104232380D01*
X129339047Y-104232380D02*
X129339047Y-103232380D01*
X129434285Y-103375238D01*
X129529523Y-103470476D01*
X129624761Y-103518095D01*
X128481904Y-103660952D02*
X128577142Y-103613333D01*
X128624761Y-103565714D01*
X128672380Y-103470476D01*
X128672380Y-103422857D01*
X128624761Y-103327619D01*
X128577142Y-103280000D01*
X128481904Y-103232380D01*
X128291428Y-103232380D01*
X128196190Y-103280000D01*
X128148571Y-103327619D01*
X128100952Y-103422857D01*
X128100952Y-103470476D01*
X128148571Y-103565714D01*
X128196190Y-103613333D01*
X128291428Y-103660952D01*
X128481904Y-103660952D01*
X128577142Y-103708571D01*
X128624761Y-103756190D01*
X128672380Y-103851428D01*
X128672380Y-104041904D01*
X128624761Y-104137142D01*
X128577142Y-104184761D01*
X128481904Y-104232380D01*
X128291428Y-104232380D01*
X128196190Y-104184761D01*
X128148571Y-104137142D01*
X128100952Y-104041904D01*
X128100952Y-103851428D01*
X128148571Y-103756190D01*
X128196190Y-103708571D01*
X128291428Y-103660952D01*
X146104285Y-105802380D02*
X146104285Y-104802380D01*
X145675714Y-105802380D02*
X145675714Y-105278571D01*
X145723333Y-105183333D01*
X145818571Y-105135714D01*
X145961428Y-105135714D01*
X146056666Y-105183333D01*
X146104285Y-105230952D01*
X145342380Y-105135714D02*
X144961428Y-105135714D01*
X145199523Y-104802380D02*
X145199523Y-105659523D01*
X145151904Y-105754761D01*
X145056666Y-105802380D01*
X144961428Y-105802380D01*
X144770952Y-105135714D02*
X144390000Y-105135714D01*
X144628095Y-104802380D02*
X144628095Y-105659523D01*
X144580476Y-105754761D01*
X144485238Y-105802380D01*
X144390000Y-105802380D01*
X144056666Y-105135714D02*
X144056666Y-106135714D01*
X144056666Y-105183333D02*
X143961428Y-105135714D01*
X143770952Y-105135714D01*
X143675714Y-105183333D01*
X143628095Y-105230952D01*
X143580476Y-105326190D01*
X143580476Y-105611904D01*
X143628095Y-105707142D01*
X143675714Y-105754761D01*
X143770952Y-105802380D01*
X143961428Y-105802380D01*
X144056666Y-105754761D01*
X143199523Y-105754761D02*
X143104285Y-105802380D01*
X142913809Y-105802380D01*
X142818571Y-105754761D01*
X142770952Y-105659523D01*
X142770952Y-105611904D01*
X142818571Y-105516666D01*
X142913809Y-105469047D01*
X143056666Y-105469047D01*
X143151904Y-105421428D01*
X143199523Y-105326190D01*
X143199523Y-105278571D01*
X143151904Y-105183333D01*
X143056666Y-105135714D01*
X142913809Y-105135714D01*
X142818571Y-105183333D01*
X142342380Y-105707142D02*
X142294761Y-105754761D01*
X142342380Y-105802380D01*
X142390000Y-105754761D01*
X142342380Y-105707142D01*
X142342380Y-105802380D01*
X142342380Y-105183333D02*
X142294761Y-105230952D01*
X142342380Y-105278571D01*
X142390000Y-105230952D01*
X142342380Y-105183333D01*
X142342380Y-105278571D01*
X141151904Y-104754761D02*
X142009047Y-106040476D01*
X140104285Y-104754761D02*
X140961428Y-106040476D01*
X139342380Y-105135714D02*
X139342380Y-105945238D01*
X139390000Y-106040476D01*
X139437619Y-106088095D01*
X139532857Y-106135714D01*
X139675714Y-106135714D01*
X139770952Y-106088095D01*
X139342380Y-105754761D02*
X139437619Y-105802380D01*
X139628095Y-105802380D01*
X139723333Y-105754761D01*
X139770952Y-105707142D01*
X139818571Y-105611904D01*
X139818571Y-105326190D01*
X139770952Y-105230952D01*
X139723333Y-105183333D01*
X139628095Y-105135714D01*
X139437619Y-105135714D01*
X139342380Y-105183333D01*
X138866190Y-105802380D02*
X138866190Y-105135714D01*
X138866190Y-104802380D02*
X138913809Y-104850000D01*
X138866190Y-104897619D01*
X138818571Y-104850000D01*
X138866190Y-104802380D01*
X138866190Y-104897619D01*
X138532857Y-105135714D02*
X138151904Y-105135714D01*
X138390000Y-104802380D02*
X138390000Y-105659523D01*
X138342380Y-105754761D01*
X138247142Y-105802380D01*
X138151904Y-105802380D01*
X137818571Y-105802380D02*
X137818571Y-104802380D01*
X137390000Y-105802380D02*
X137390000Y-105278571D01*
X137437619Y-105183333D01*
X137532857Y-105135714D01*
X137675714Y-105135714D01*
X137770952Y-105183333D01*
X137818571Y-105230952D01*
X136485238Y-105135714D02*
X136485238Y-105802380D01*
X136913809Y-105135714D02*
X136913809Y-105659523D01*
X136866190Y-105754761D01*
X136770952Y-105802380D01*
X136628095Y-105802380D01*
X136532857Y-105754761D01*
X136485238Y-105707142D01*
X136009047Y-105802380D02*
X136009047Y-104802380D01*
X136009047Y-105183333D02*
X135913809Y-105135714D01*
X135723333Y-105135714D01*
X135628095Y-105183333D01*
X135580476Y-105230952D01*
X135532857Y-105326190D01*
X135532857Y-105611904D01*
X135580476Y-105707142D01*
X135628095Y-105754761D01*
X135723333Y-105802380D01*
X135913809Y-105802380D01*
X136009047Y-105754761D01*
X135104285Y-105707142D02*
X135056666Y-105754761D01*
X135104285Y-105802380D01*
X135151904Y-105754761D01*
X135104285Y-105707142D01*
X135104285Y-105802380D01*
X134199523Y-105754761D02*
X134294761Y-105802380D01*
X134485238Y-105802380D01*
X134580476Y-105754761D01*
X134628095Y-105707142D01*
X134675714Y-105611904D01*
X134675714Y-105326190D01*
X134628095Y-105230952D01*
X134580476Y-105183333D01*
X134485238Y-105135714D01*
X134294761Y-105135714D01*
X134199523Y-105183333D01*
X133628095Y-105802380D02*
X133723333Y-105754761D01*
X133770952Y-105707142D01*
X133818571Y-105611904D01*
X133818571Y-105326190D01*
X133770952Y-105230952D01*
X133723333Y-105183333D01*
X133628095Y-105135714D01*
X133485238Y-105135714D01*
X133390000Y-105183333D01*
X133342380Y-105230952D01*
X133294761Y-105326190D01*
X133294761Y-105611904D01*
X133342380Y-105707142D01*
X133390000Y-105754761D01*
X133485238Y-105802380D01*
X133628095Y-105802380D01*
X132866190Y-105802380D02*
X132866190Y-105135714D01*
X132866190Y-105230952D02*
X132818571Y-105183333D01*
X132723333Y-105135714D01*
X132580476Y-105135714D01*
X132485238Y-105183333D01*
X132437619Y-105278571D01*
X132437619Y-105802380D01*
X132437619Y-105278571D02*
X132390000Y-105183333D01*
X132294761Y-105135714D01*
X132151904Y-105135714D01*
X132056666Y-105183333D01*
X132009047Y-105278571D01*
X132009047Y-105802380D01*
X130818571Y-104754761D02*
X131675714Y-106040476D01*
X130485238Y-105135714D02*
X130485238Y-105992857D01*
X130532857Y-106088095D01*
X130628095Y-106135714D01*
X130675714Y-106135714D01*
X130485238Y-104802380D02*
X130532857Y-104850000D01*
X130485238Y-104897619D01*
X130437619Y-104850000D01*
X130485238Y-104802380D01*
X130485238Y-104897619D01*
X129866190Y-105802380D02*
X129961428Y-105754761D01*
X130009047Y-105707142D01*
X130056666Y-105611904D01*
X130056666Y-105326190D01*
X130009047Y-105230952D01*
X129961428Y-105183333D01*
X129866190Y-105135714D01*
X129723333Y-105135714D01*
X129628095Y-105183333D01*
X129580476Y-105230952D01*
X129532857Y-105326190D01*
X129532857Y-105611904D01*
X129580476Y-105707142D01*
X129628095Y-105754761D01*
X129723333Y-105802380D01*
X129866190Y-105802380D01*
X129104285Y-105135714D02*
X129104285Y-105802380D01*
X129104285Y-105230952D02*
X129056666Y-105183333D01*
X128961428Y-105135714D01*
X128818571Y-105135714D01*
X128723333Y-105183333D01*
X128675714Y-105278571D01*
X128675714Y-105802380D01*
X128342380Y-105135714D02*
X127961428Y-105135714D01*
X128199523Y-104802380D02*
X128199523Y-105659523D01*
X128151904Y-105754761D01*
X128056666Y-105802380D01*
X127961428Y-105802380D01*
X127628095Y-105802380D02*
X127628095Y-104802380D01*
X127199523Y-105802380D02*
X127199523Y-105278571D01*
X127247142Y-105183333D01*
X127342380Y-105135714D01*
X127485238Y-105135714D01*
X127580476Y-105183333D01*
X127628095Y-105230952D01*
X126580476Y-105802380D02*
X126675714Y-105754761D01*
X126723333Y-105707142D01*
X126770952Y-105611904D01*
X126770952Y-105326190D01*
X126723333Y-105230952D01*
X126675714Y-105183333D01*
X126580476Y-105135714D01*
X126437619Y-105135714D01*
X126342380Y-105183333D01*
X126294761Y-105230952D01*
X126247142Y-105326190D01*
X126247142Y-105611904D01*
X126294761Y-105707142D01*
X126342380Y-105754761D01*
X126437619Y-105802380D01*
X126580476Y-105802380D01*
X125818571Y-105802380D02*
X125818571Y-105135714D01*
X125818571Y-105230952D02*
X125770952Y-105183333D01*
X125675714Y-105135714D01*
X125532857Y-105135714D01*
X125437619Y-105183333D01*
X125390000Y-105278571D01*
X125390000Y-105802380D01*
X125390000Y-105278571D02*
X125342380Y-105183333D01*
X125247142Y-105135714D01*
X125104285Y-105135714D01*
X125009047Y-105183333D01*
X124961428Y-105278571D01*
X124961428Y-105802380D01*
X124056666Y-105802380D02*
X124056666Y-105278571D01*
X124104285Y-105183333D01*
X124199523Y-105135714D01*
X124390000Y-105135714D01*
X124485238Y-105183333D01*
X124056666Y-105754761D02*
X124151904Y-105802380D01*
X124390000Y-105802380D01*
X124485238Y-105754761D01*
X124532857Y-105659523D01*
X124532857Y-105564285D01*
X124485238Y-105469047D01*
X124390000Y-105421428D01*
X124151904Y-105421428D01*
X124056666Y-105373809D01*
X123628095Y-105754761D02*
X123532857Y-105802380D01*
X123342380Y-105802380D01*
X123247142Y-105754761D01*
X123199523Y-105659523D01*
X123199523Y-105611904D01*
X123247142Y-105516666D01*
X123342380Y-105469047D01*
X123485238Y-105469047D01*
X123580476Y-105421428D01*
X123628095Y-105326190D01*
X123628095Y-105278571D01*
X123580476Y-105183333D01*
X123485238Y-105135714D01*
X123342380Y-105135714D01*
X123247142Y-105183333D01*
X122818571Y-105754761D02*
X122723333Y-105802380D01*
X122532857Y-105802380D01*
X122437619Y-105754761D01*
X122390000Y-105659523D01*
X122390000Y-105611904D01*
X122437619Y-105516666D01*
X122532857Y-105469047D01*
X122675714Y-105469047D01*
X122770952Y-105421428D01*
X122818571Y-105326190D01*
X122818571Y-105278571D01*
X122770952Y-105183333D01*
X122675714Y-105135714D01*
X122532857Y-105135714D01*
X122437619Y-105183333D01*
X121818571Y-105802380D02*
X121913809Y-105754761D01*
X121961428Y-105707142D01*
X122009047Y-105611904D01*
X122009047Y-105326190D01*
X121961428Y-105230952D01*
X121913809Y-105183333D01*
X121818571Y-105135714D01*
X121675714Y-105135714D01*
X121580476Y-105183333D01*
X121532857Y-105230952D01*
X121485238Y-105326190D01*
X121485238Y-105611904D01*
X121532857Y-105707142D01*
X121580476Y-105754761D01*
X121675714Y-105802380D01*
X121818571Y-105802380D01*
X121056666Y-105135714D02*
X121056666Y-105802380D01*
X121056666Y-105230952D02*
X121009047Y-105183333D01*
X120913809Y-105135714D01*
X120770952Y-105135714D01*
X120675714Y-105183333D01*
X120628095Y-105278571D01*
X120628095Y-105802380D01*
X119437619Y-104754761D02*
X120294761Y-106040476D01*
X119151904Y-105754761D02*
X119009047Y-105802380D01*
X118770952Y-105802380D01*
X118675714Y-105754761D01*
X118628095Y-105707142D01*
X118580476Y-105611904D01*
X118580476Y-105516666D01*
X118628095Y-105421428D01*
X118675714Y-105373809D01*
X118770952Y-105326190D01*
X118961428Y-105278571D01*
X119056666Y-105230952D01*
X119104285Y-105183333D01*
X119151904Y-105088095D01*
X119151904Y-104992857D01*
X119104285Y-104897619D01*
X119056666Y-104850000D01*
X118961428Y-104802380D01*
X118723333Y-104802380D01*
X118580476Y-104850000D01*
X118151904Y-105802380D02*
X118151904Y-105135714D01*
X118151904Y-105230952D02*
X118104285Y-105183333D01*
X118009047Y-105135714D01*
X117866190Y-105135714D01*
X117770952Y-105183333D01*
X117723333Y-105278571D01*
X117723333Y-105802380D01*
X117723333Y-105278571D02*
X117675714Y-105183333D01*
X117580476Y-105135714D01*
X117437619Y-105135714D01*
X117342380Y-105183333D01*
X117294761Y-105278571D01*
X117294761Y-105802380D01*
X116390000Y-105802380D02*
X116390000Y-105278571D01*
X116437619Y-105183333D01*
X116532857Y-105135714D01*
X116723333Y-105135714D01*
X116818571Y-105183333D01*
X116390000Y-105754761D02*
X116485238Y-105802380D01*
X116723333Y-105802380D01*
X116818571Y-105754761D01*
X116866190Y-105659523D01*
X116866190Y-105564285D01*
X116818571Y-105469047D01*
X116723333Y-105421428D01*
X116485238Y-105421428D01*
X116390000Y-105373809D01*
X115913809Y-105802380D02*
X115913809Y-105135714D01*
X115913809Y-105326190D02*
X115866190Y-105230952D01*
X115818571Y-105183333D01*
X115723333Y-105135714D01*
X115628095Y-105135714D01*
X115437619Y-105135714D02*
X115056666Y-105135714D01*
X115294761Y-104802380D02*
X115294761Y-105659523D01*
X115247142Y-105754761D01*
X115151904Y-105802380D01*
X115056666Y-105802380D01*
X114723333Y-105802380D02*
X114723333Y-105135714D01*
X114723333Y-104802380D02*
X114770952Y-104850000D01*
X114723333Y-104897619D01*
X114675714Y-104850000D01*
X114723333Y-104802380D01*
X114723333Y-104897619D01*
X113866190Y-105754761D02*
X113961428Y-105802380D01*
X114151904Y-105802380D01*
X114247142Y-105754761D01*
X114294761Y-105659523D01*
X114294761Y-105278571D01*
X114247142Y-105183333D01*
X114151904Y-105135714D01*
X113961428Y-105135714D01*
X113866190Y-105183333D01*
X113818571Y-105278571D01*
X113818571Y-105373809D01*
X114294761Y-105469047D01*
X113390000Y-105802380D02*
X113390000Y-104802380D01*
X113009047Y-104802380D01*
X112913809Y-104850000D01*
X112866190Y-104897619D01*
X112818571Y-104992857D01*
X112818571Y-105135714D01*
X112866190Y-105230952D01*
X112913809Y-105278571D01*
X113009047Y-105326190D01*
X113390000Y-105326190D01*
X112390000Y-105802380D02*
X112390000Y-105135714D01*
X112390000Y-104802380D02*
X112437619Y-104850000D01*
X112390000Y-104897619D01*
X112342380Y-104850000D01*
X112390000Y-104802380D01*
X112390000Y-104897619D01*
X111913809Y-105802380D02*
X111913809Y-104802380D01*
X111342380Y-105802380D01*
X111342380Y-104802380D01*
X110723333Y-105802380D02*
X110818571Y-105754761D01*
X110866190Y-105707142D01*
X110913809Y-105611904D01*
X110913809Y-105326190D01*
X110866190Y-105230952D01*
X110818571Y-105183333D01*
X110723333Y-105135714D01*
X110580476Y-105135714D01*
X110485238Y-105183333D01*
X110437619Y-105230952D01*
X110390000Y-105326190D01*
X110390000Y-105611904D01*
X110437619Y-105707142D01*
X110485238Y-105754761D01*
X110580476Y-105802380D01*
X110723333Y-105802380D01*
X109532857Y-105802380D02*
X109532857Y-104802380D01*
X109532857Y-105754761D02*
X109628095Y-105802380D01*
X109818571Y-105802380D01*
X109913809Y-105754761D01*
X109961428Y-105707142D01*
X110009047Y-105611904D01*
X110009047Y-105326190D01*
X109961428Y-105230952D01*
X109913809Y-105183333D01*
X109818571Y-105135714D01*
X109628095Y-105135714D01*
X109532857Y-105183333D01*
X108675714Y-105754761D02*
X108770952Y-105802380D01*
X108961428Y-105802380D01*
X109056666Y-105754761D01*
X109104285Y-105659523D01*
X109104285Y-105278571D01*
X109056666Y-105183333D01*
X108961428Y-105135714D01*
X108770952Y-105135714D01*
X108675714Y-105183333D01*
X108628095Y-105278571D01*
X108628095Y-105373809D01*
X109104285Y-105469047D01*
%LPC*%
D12*
X168600000Y-119230000D03*
X168600000Y-112370000D03*
D13*
X165930000Y-113302060D03*
X165930000Y-118302060D03*
D14*
X158713370Y-112127370D03*
D15*
X157582000Y-110996000D03*
D16*
X156972000Y-145796000D03*
D17*
X156972000Y-148336000D03*
X154432000Y-145796000D03*
X154432000Y-148336000D03*
X151892000Y-145796000D03*
X151892000Y-148336000D03*
X149352000Y-145796000D03*
X149352000Y-148336000D03*
X146812000Y-145796000D03*
X146812000Y-148336000D03*
X144272000Y-145796000D03*
X144272000Y-148336000D03*
X141732000Y-145796000D03*
X141732000Y-148336000D03*
X139192000Y-145796000D03*
X139192000Y-148336000D03*
X136652000Y-145796000D03*
X136652000Y-148336000D03*
X134112000Y-145796000D03*
X134112000Y-148336000D03*
D14*
X156450630Y-112127370D03*
X157582000Y-112596000D03*
X155982000Y-110996000D03*
X156450630Y-109864630D03*
X157582000Y-109396000D03*
X158713370Y-109864630D03*
X159182000Y-110996000D03*
X135112000Y-110996000D03*
X134643370Y-109864630D03*
D15*
X133512000Y-110996000D03*
D14*
X134643370Y-112127370D03*
X133512000Y-112596000D03*
X132380630Y-112127370D03*
X131912000Y-110996000D03*
X132380630Y-109864630D03*
X133512000Y-109396000D03*
D18*
X168840000Y-123470000D03*
D19*
X168840000Y-126010000D03*
X168840000Y-128550000D03*
X168840000Y-131090000D03*
X168840000Y-133630000D03*
D20*
X162600000Y-126600000D03*
X162600000Y-120100000D03*
D14*
X105900000Y-142564800D03*
X104238300Y-143253100D03*
X103550000Y-144914800D03*
X104238300Y-146576500D03*
X105900000Y-147264800D03*
X107561700Y-146576500D03*
X108250000Y-144914800D03*
X107561700Y-143253100D03*
D21*
X105900000Y-144914800D03*
X105900000Y-101430000D03*
D14*
X107561700Y-99768300D03*
X108250000Y-101430000D03*
X107561700Y-103091700D03*
X105900000Y-103780000D03*
X104238300Y-103091700D03*
X103550000Y-101430000D03*
X104238300Y-99768300D03*
X105900000Y-99080000D03*
X163913600Y-142564800D03*
X162251900Y-143253100D03*
X161563600Y-144914800D03*
X162251900Y-146576500D03*
X163913600Y-147264800D03*
X165575300Y-146576500D03*
X166263600Y-144914800D03*
X165575300Y-143253100D03*
D21*
X163913600Y-144914800D03*
X163927189Y-101430000D03*
D14*
X165588889Y-99768300D03*
X166277189Y-101430000D03*
X165588889Y-103091700D03*
X163927189Y-103780000D03*
X162265489Y-103091700D03*
X161577189Y-101430000D03*
X162265489Y-99768300D03*
X163927189Y-99080000D03*
D22*
X121180000Y-109560000D03*
X121170000Y-147520000D03*
D23*
X114800000Y-148115000D03*
D24*
X168840000Y-146250000D03*
D25*
X168840000Y-148790000D03*
D16*
X130100000Y-98260000D03*
D17*
X130100000Y-100800000D03*
X127560000Y-98260000D03*
X127560000Y-100800000D03*
X125020000Y-98260000D03*
X125020000Y-100800000D03*
X122480000Y-98260000D03*
X122480000Y-100800000D03*
X119940000Y-98260000D03*
X119940000Y-100800000D03*
X117400000Y-98260000D03*
X117400000Y-100800000D03*
X114860000Y-98260000D03*
X114860000Y-100800000D03*
X112320000Y-98260000D03*
X112320000Y-100800000D03*
D26*
X168360000Y-142850000D03*
X168360000Y-136050000D03*
D27*
X157290000Y-130690000D03*
X157830000Y-130690000D03*
X158370000Y-130690000D03*
X158910000Y-130690000D03*
X158910000Y-131230000D03*
X158910000Y-131770000D03*
X158910000Y-132310000D03*
X158370000Y-131230000D03*
X158370000Y-131770000D03*
X158370000Y-132310000D03*
X157830000Y-131230000D03*
X157830000Y-131770000D03*
X157830000Y-132310000D03*
X157290000Y-131230000D03*
X157290000Y-131770000D03*
X157290000Y-132310000D03*
M02*
