G04 #@! TF.GenerationSoftware,KiCad,Pcbnew,(2017-01-24 revision 0b6147e)-makepkg*
G04 #@! TF.CreationDate,2018-07-27T21:37:05-07:00*
G04 #@! TF.ProjectId,SmartiePiNode,536D617274696550694E6F64652E6B69,1.a*
G04 #@! TF.FileFunction,Soldermask,Bot*
G04 #@! TF.FilePolarity,Negative*
%FSLAX46Y46*%
G04 Gerber Fmt 4.6, Leading zero omitted, Abs format (unit mm)*
G04 Created by KiCad (PCBNEW (2017-01-24 revision 0b6147e)-makepkg) date 07/27/18 21:37:05*
%MOMM*%
%LPD*%
G01*
G04 APERTURE LIST*
%ADD10C,0.100000*%
%ADD11C,1.650006*%
%ADD12C,1.504000*%
%ADD13C,0.787400*%
%ADD14C,4.352400*%
%ADD15R,1.879600X1.879600*%
%ADD16O,1.879600X1.879600*%
%ADD17R,2.184400X1.879600*%
%ADD18O,2.184400X1.879600*%
%ADD19C,2.102400*%
%ADD20C,6.121400*%
%ADD21C,2.676400*%
%ADD22C,1.422400*%
%ADD23R,2.184400X2.184400*%
%ADD24O,2.184400X2.184400*%
%ADD25C,1.052400*%
%ADD26C,0.652400*%
G04 APERTURE END LIST*
D10*
D11*
X168600000Y-119230000D03*
X168600000Y-112370000D03*
D12*
X165930000Y-113302060D03*
X165930000Y-118302060D03*
D13*
X158713370Y-112127370D03*
D14*
X157582000Y-110996000D03*
D15*
X156972000Y-145796000D03*
D16*
X156972000Y-148336000D03*
X154432000Y-145796000D03*
X154432000Y-148336000D03*
X151892000Y-145796000D03*
X151892000Y-148336000D03*
X149352000Y-145796000D03*
X149352000Y-148336000D03*
X146812000Y-145796000D03*
X146812000Y-148336000D03*
X144272000Y-145796000D03*
X144272000Y-148336000D03*
X141732000Y-145796000D03*
X141732000Y-148336000D03*
X139192000Y-145796000D03*
X139192000Y-148336000D03*
X136652000Y-145796000D03*
X136652000Y-148336000D03*
X134112000Y-145796000D03*
X134112000Y-148336000D03*
D13*
X156450630Y-112127370D03*
X157582000Y-112596000D03*
X155982000Y-110996000D03*
X156450630Y-109864630D03*
X157582000Y-109396000D03*
X158713370Y-109864630D03*
X159182000Y-110996000D03*
X135112000Y-110996000D03*
X134643370Y-109864630D03*
D14*
X133512000Y-110996000D03*
D13*
X134643370Y-112127370D03*
X133512000Y-112596000D03*
X132380630Y-112127370D03*
X131912000Y-110996000D03*
X132380630Y-109864630D03*
X133512000Y-109396000D03*
D17*
X168840000Y-123470000D03*
D18*
X168840000Y-126010000D03*
X168840000Y-128550000D03*
X168840000Y-131090000D03*
X168840000Y-133630000D03*
D19*
X162600000Y-126600000D03*
X162600000Y-120100000D03*
D13*
X105900000Y-142564800D03*
X104238300Y-143253100D03*
X103550000Y-144914800D03*
X104238300Y-146576500D03*
X105900000Y-147264800D03*
X107561700Y-146576500D03*
X108250000Y-144914800D03*
X107561700Y-143253100D03*
D20*
X105900000Y-144914800D03*
X105900000Y-101430000D03*
D13*
X107561700Y-99768300D03*
X108250000Y-101430000D03*
X107561700Y-103091700D03*
X105900000Y-103780000D03*
X104238300Y-103091700D03*
X103550000Y-101430000D03*
X104238300Y-99768300D03*
X105900000Y-99080000D03*
X163913600Y-142564800D03*
X162251900Y-143253100D03*
X161563600Y-144914800D03*
X162251900Y-146576500D03*
X163913600Y-147264800D03*
X165575300Y-146576500D03*
X166263600Y-144914800D03*
X165575300Y-143253100D03*
D20*
X163913600Y-144914800D03*
X163927189Y-101430000D03*
D13*
X165588889Y-99768300D03*
X166277189Y-101430000D03*
X165588889Y-103091700D03*
X163927189Y-103780000D03*
X162265489Y-103091700D03*
X161577189Y-101430000D03*
X162265489Y-99768300D03*
X163927189Y-99080000D03*
D21*
X121180000Y-109560000D03*
X121170000Y-147520000D03*
D22*
X114800000Y-148115000D03*
D23*
X168840000Y-146250000D03*
D24*
X168840000Y-148790000D03*
D15*
X130100000Y-98260000D03*
D16*
X130100000Y-100800000D03*
X127560000Y-98260000D03*
X127560000Y-100800000D03*
X125020000Y-98260000D03*
X125020000Y-100800000D03*
X122480000Y-98260000D03*
X122480000Y-100800000D03*
X119940000Y-98260000D03*
X119940000Y-100800000D03*
X117400000Y-98260000D03*
X117400000Y-100800000D03*
X114860000Y-98260000D03*
X114860000Y-100800000D03*
X112320000Y-98260000D03*
X112320000Y-100800000D03*
D25*
X168360000Y-142850000D03*
X168360000Y-136050000D03*
D26*
X157290000Y-130690000D03*
X157830000Y-130690000D03*
X158370000Y-130690000D03*
X158910000Y-130690000D03*
X158910000Y-131230000D03*
X158910000Y-131770000D03*
X158910000Y-132310000D03*
X158370000Y-131230000D03*
X158370000Y-131770000D03*
X158370000Y-132310000D03*
X157830000Y-131230000D03*
X157830000Y-131770000D03*
X157830000Y-132310000D03*
X157290000Y-131230000D03*
X157290000Y-131770000D03*
X157290000Y-132310000D03*
M02*
