G04 #@! TF.GenerationSoftware,KiCad,Pcbnew,(2017-01-24 revision 0b6147e)-makepkg*
G04 #@! TF.CreationDate,2018-07-27T21:37:04-07:00*
G04 #@! TF.ProjectId,SmartiePiNode,536D617274696550694E6F64652E6B69,1.a*
G04 #@! TF.FileFunction,Copper,L2,Bot,Signal*
G04 #@! TF.FilePolarity,Positive*
%FSLAX46Y46*%
G04 Gerber Fmt 4.6, Leading zero omitted, Abs format (unit mm)*
G04 Created by KiCad (PCBNEW (2017-01-24 revision 0b6147e)-makepkg) date 07/27/18 21:37:04*
%MOMM*%
%LPD*%
G01*
G04 APERTURE LIST*
%ADD10C,0.100000*%
%ADD11C,1.650000*%
%ADD12C,1.250000*%
%ADD13C,0.635000*%
%ADD14C,4.200000*%
%ADD15R,1.727200X1.727200*%
%ADD16O,1.727200X1.727200*%
%ADD17R,2.032000X1.727200*%
%ADD18O,2.032000X1.727200*%
%ADD19C,1.950000*%
%ADD20C,5.969000*%
%ADD21C,2.524000*%
%ADD22R,2.032000X2.032000*%
%ADD23O,2.032000X2.032000*%
%ADD24C,0.500000*%
%ADD25C,0.762000*%
%ADD26C,0.800000*%
%ADD27C,0.762000*%
%ADD28C,0.254000*%
G04 APERTURE END LIST*
D10*
D11*
X168600000Y-119230000D03*
X168600000Y-112370000D03*
D12*
X165930000Y-113302060D03*
X165930000Y-118302060D03*
D13*
X158713370Y-112127370D03*
D14*
X157582000Y-110996000D03*
D15*
X156972000Y-145796000D03*
D16*
X156972000Y-148336000D03*
X154432000Y-145796000D03*
X154432000Y-148336000D03*
X151892000Y-145796000D03*
X151892000Y-148336000D03*
X149352000Y-145796000D03*
X149352000Y-148336000D03*
X146812000Y-145796000D03*
X146812000Y-148336000D03*
X144272000Y-145796000D03*
X144272000Y-148336000D03*
X141732000Y-145796000D03*
X141732000Y-148336000D03*
X139192000Y-145796000D03*
X139192000Y-148336000D03*
X136652000Y-145796000D03*
X136652000Y-148336000D03*
X134112000Y-145796000D03*
X134112000Y-148336000D03*
D13*
X156450630Y-112127370D03*
X157582000Y-112596000D03*
X155982000Y-110996000D03*
X156450630Y-109864630D03*
X157582000Y-109396000D03*
X158713370Y-109864630D03*
X159182000Y-110996000D03*
X135112000Y-110996000D03*
X134643370Y-109864630D03*
D14*
X133512000Y-110996000D03*
D13*
X134643370Y-112127370D03*
X133512000Y-112596000D03*
X132380630Y-112127370D03*
X131912000Y-110996000D03*
X132380630Y-109864630D03*
X133512000Y-109396000D03*
D17*
X168840000Y-123470000D03*
D18*
X168840000Y-126010000D03*
X168840000Y-128550000D03*
X168840000Y-131090000D03*
X168840000Y-133630000D03*
D19*
X162600000Y-126600000D03*
X162600000Y-120100000D03*
D13*
X105900000Y-142564800D03*
X104238300Y-143253100D03*
X103550000Y-144914800D03*
X104238300Y-146576500D03*
X105900000Y-147264800D03*
X107561700Y-146576500D03*
X108250000Y-144914800D03*
X107561700Y-143253100D03*
D20*
X105900000Y-144914800D03*
X105900000Y-101430000D03*
D13*
X107561700Y-99768300D03*
X108250000Y-101430000D03*
X107561700Y-103091700D03*
X105900000Y-103780000D03*
X104238300Y-103091700D03*
X103550000Y-101430000D03*
X104238300Y-99768300D03*
X105900000Y-99080000D03*
X163913600Y-142564800D03*
X162251900Y-143253100D03*
X161563600Y-144914800D03*
X162251900Y-146576500D03*
X163913600Y-147264800D03*
X165575300Y-146576500D03*
X166263600Y-144914800D03*
X165575300Y-143253100D03*
D20*
X163913600Y-144914800D03*
X163927189Y-101430000D03*
D13*
X165588889Y-99768300D03*
X166277189Y-101430000D03*
X165588889Y-103091700D03*
X163927189Y-103780000D03*
X162265489Y-103091700D03*
X161577189Y-101430000D03*
X162265489Y-99768300D03*
X163927189Y-99080000D03*
D21*
X121180000Y-109560000D03*
X121170000Y-147520000D03*
D22*
X168840000Y-146250000D03*
D23*
X168840000Y-148790000D03*
D15*
X130100000Y-98260000D03*
D16*
X130100000Y-100800000D03*
X127560000Y-98260000D03*
X127560000Y-100800000D03*
X125020000Y-98260000D03*
X125020000Y-100800000D03*
X122480000Y-98260000D03*
X122480000Y-100800000D03*
X119940000Y-98260000D03*
X119940000Y-100800000D03*
X117400000Y-98260000D03*
X117400000Y-100800000D03*
X114860000Y-98260000D03*
X114860000Y-100800000D03*
X112320000Y-98260000D03*
X112320000Y-100800000D03*
D24*
X157290000Y-130690000D03*
X157830000Y-130690000D03*
X158370000Y-130690000D03*
X158910000Y-130690000D03*
X158910000Y-131230000D03*
X158910000Y-131770000D03*
X158910000Y-132310000D03*
X158370000Y-131230000D03*
X158370000Y-131770000D03*
X158370000Y-132310000D03*
X157830000Y-131230000D03*
X157830000Y-131770000D03*
X157830000Y-132310000D03*
X157290000Y-131230000D03*
X157290000Y-131770000D03*
X157290000Y-132310000D03*
D25*
X159610000Y-134410000D03*
X161000000Y-138640000D03*
X160530000Y-137330000D03*
X160530000Y-136280000D03*
D26*
X162950000Y-128100000D03*
X162090000Y-124900000D03*
X163680000Y-132180000D03*
X164550000Y-137580000D03*
X160850000Y-127980000D03*
X160850000Y-127090000D03*
X160850000Y-126200000D03*
X160850000Y-125290000D03*
X160850000Y-124370000D03*
X159800000Y-127090000D03*
X159800000Y-127990000D03*
X159800000Y-126199998D03*
X159800000Y-125290000D03*
X159790000Y-124370000D03*
D25*
X159740000Y-137710000D03*
X163880000Y-123460000D03*
D26*
X151753097Y-115549429D03*
X145485926Y-110864074D03*
X135960000Y-116560000D03*
X145681969Y-118118247D03*
X103330000Y-141250000D03*
X151970000Y-124130000D03*
X144050000Y-122570000D03*
X136470000Y-125470000D03*
X132350000Y-120650000D03*
X136170000Y-120190000D03*
D25*
X139300000Y-118460000D03*
D26*
X135340000Y-117070000D03*
X137570000Y-113110000D03*
X136230000Y-109760000D03*
X144020000Y-111100000D03*
X153990000Y-110990000D03*
D25*
X150200000Y-109740000D03*
X162550000Y-111520000D03*
X167030000Y-114500000D03*
D26*
X162650000Y-134000000D03*
X163680000Y-134420000D03*
X159750000Y-135790000D03*
X159740000Y-136800000D03*
X159990000Y-138720000D03*
X167150000Y-128200000D03*
X166340000Y-121860000D03*
D25*
X156370000Y-118370000D03*
X145940000Y-116940000D03*
D26*
X159700000Y-122310000D03*
X152040000Y-113220000D03*
X154500000Y-112000000D03*
X170010000Y-110950000D03*
X159600000Y-112800000D03*
X154400000Y-114400000D03*
D25*
X150659345Y-124779345D03*
X140870000Y-133210000D03*
X151400000Y-117890000D03*
X154190000Y-122460000D03*
X154200000Y-119110000D03*
X140340000Y-131560000D03*
X148980000Y-130420000D03*
X150893711Y-119279225D03*
X139640000Y-129960000D03*
X148970000Y-128310000D03*
X150210000Y-118580000D03*
X148260000Y-128970000D03*
X154910000Y-118150000D03*
X146840000Y-130320000D03*
X149240577Y-116196384D03*
X147550000Y-129620000D03*
X149610311Y-117084507D03*
X142070000Y-134840000D03*
X140470000Y-134840000D03*
X141520000Y-121050000D03*
X143400000Y-120740000D03*
X152890000Y-109360000D03*
X151190000Y-110950000D03*
X164690000Y-109950000D03*
X163620000Y-114900000D03*
D26*
X141500000Y-120060000D03*
D25*
X143360000Y-119490000D03*
X151060000Y-107560000D03*
X150220000Y-111530000D03*
X154120000Y-108630000D03*
X150466841Y-114024562D03*
X148440000Y-107090000D03*
X149124721Y-111650000D03*
X147900000Y-104970000D03*
X149364486Y-114065431D03*
X137310000Y-121860000D03*
X146220000Y-122690000D03*
X142260000Y-116100000D03*
X145591462Y-119095075D03*
D27*
X156972000Y-148336000D02*
X156972000Y-149128000D01*
X156972000Y-149128000D02*
X156200000Y-149900000D01*
X156200000Y-149900000D02*
X133500000Y-149900000D01*
X133500000Y-149900000D02*
X132300000Y-148700000D01*
X132300000Y-148700000D02*
X132300000Y-146700000D01*
X132300000Y-146700000D02*
X133204000Y-145796000D01*
X133204000Y-145796000D02*
X134112000Y-145796000D01*
D28*
X166340000Y-121860000D02*
X166340000Y-127126905D01*
X166340000Y-127126905D02*
X167150000Y-127936905D01*
X167150000Y-127936905D02*
X167150000Y-128200000D01*
X152773432Y-114773432D02*
X148106568Y-114773432D01*
X146320999Y-116559001D02*
X145940000Y-116940000D01*
X148106568Y-114773432D02*
X146320999Y-116559001D01*
X156370000Y-118370000D02*
X152773432Y-114773432D01*
X159700000Y-122310000D02*
X161910000Y-120100000D01*
X161910000Y-120100000D02*
X162600000Y-120100000D01*
X152040000Y-113220000D02*
X153260000Y-112000000D01*
X153260000Y-112000000D02*
X154500000Y-112000000D01*
X170010000Y-110950000D02*
X170200000Y-111140000D01*
X170200000Y-111140000D02*
X170200000Y-130740000D01*
X170200000Y-130740000D02*
X169790000Y-131150000D01*
X169790000Y-131150000D02*
X168900000Y-131150000D01*
X168900000Y-131150000D02*
X168840000Y-131090000D01*
X154400000Y-114400000D02*
X155360000Y-113440000D01*
X155360000Y-113440000D02*
X158960000Y-113440000D01*
X158960000Y-113440000D02*
X159600000Y-112800000D01*
X150659345Y-130210655D02*
X150659345Y-125318160D01*
X150659345Y-125318160D02*
X150659345Y-124779345D01*
X151780999Y-118270999D02*
X151780999Y-119509001D01*
X147660000Y-133210000D02*
X150659345Y-130210655D01*
X150659345Y-124240530D02*
X150659345Y-124779345D01*
X150659345Y-120630655D02*
X150659345Y-124240530D01*
X151400000Y-117890000D02*
X151780999Y-118270999D01*
X140870000Y-133210000D02*
X147660000Y-133210000D01*
X151780999Y-119509001D02*
X150659345Y-120630655D01*
X154200000Y-122320000D02*
X154190000Y-122330000D01*
X154190000Y-122330000D02*
X154190000Y-122460000D01*
X154200000Y-119110000D02*
X154200000Y-122320000D01*
X140340000Y-131560000D02*
X147840000Y-131560000D01*
X147840000Y-131560000D02*
X148980000Y-130420000D01*
X148980000Y-130420000D02*
X149690000Y-129710000D01*
X149690000Y-129710000D02*
X149690000Y-120482936D01*
X149690000Y-120482936D02*
X150512712Y-119660224D01*
X150512712Y-119660224D02*
X150893711Y-119279225D01*
X139640000Y-129960000D02*
X142050000Y-129960000D01*
X142050000Y-129960000D02*
X143120000Y-131030000D01*
X143120000Y-131030000D02*
X147240000Y-131030000D01*
X147240000Y-131030000D02*
X148970000Y-129300000D01*
X148970000Y-129300000D02*
X148970000Y-128310000D01*
X148970000Y-128310000D02*
X148970000Y-119820000D01*
X148970000Y-119820000D02*
X149829001Y-118960999D01*
X149829001Y-118960999D02*
X150210000Y-118580000D01*
X148260000Y-128970000D02*
X148260000Y-119510000D01*
X148260000Y-119510000D02*
X150890000Y-116880000D01*
X150890000Y-116880000D02*
X153640000Y-116880000D01*
X153640000Y-116880000D02*
X154910000Y-118150000D01*
X146820000Y-122061504D02*
X146820000Y-118616961D01*
X148859578Y-116577383D02*
X149240577Y-116196384D01*
X147010874Y-122932060D02*
X147010874Y-122252378D01*
X146820000Y-118616961D02*
X148859578Y-116577383D01*
X147010874Y-122252378D02*
X146820000Y-122061504D01*
X146840000Y-130320000D02*
X146840000Y-123102934D01*
X146840000Y-123102934D02*
X147010874Y-122932060D01*
X147550000Y-129620000D02*
X147550000Y-119144818D01*
X147550000Y-119144818D02*
X149229312Y-117465506D01*
X149229312Y-117465506D02*
X149610311Y-117084507D01*
X140470000Y-134840000D02*
X142070000Y-134840000D01*
X141520000Y-121050000D02*
X143090000Y-121050000D01*
X143090000Y-121050000D02*
X143400000Y-120740000D01*
X152890000Y-109360000D02*
X152780000Y-109360000D01*
X152780000Y-109360000D02*
X151190000Y-110950000D01*
X164690000Y-109950000D02*
X164680000Y-109960000D01*
X164680000Y-109960000D02*
X164680000Y-113840000D01*
X164680000Y-113840000D02*
X163620000Y-114900000D01*
X143360000Y-119720000D02*
X143020000Y-120060000D01*
X143020000Y-120060000D02*
X141500000Y-120060000D01*
X143360000Y-119490000D02*
X143360000Y-119720000D01*
X150220000Y-110830000D02*
X151060000Y-109990000D01*
X151060000Y-109990000D02*
X151060000Y-107560000D01*
X150220000Y-111530000D02*
X150220000Y-110830000D01*
X150470000Y-113260000D02*
X154120000Y-109610000D01*
X154120000Y-109610000D02*
X154120000Y-108630000D01*
X150470000Y-113482588D02*
X150470000Y-113260000D01*
X150466841Y-114024562D02*
X150466841Y-113485747D01*
X150466841Y-113485747D02*
X150470000Y-113482588D01*
X148840000Y-110826464D02*
X148840000Y-107490000D01*
X148840000Y-107490000D02*
X148440000Y-107090000D01*
X149124721Y-111650000D02*
X149124721Y-111111185D01*
X149124721Y-111111185D02*
X148840000Y-110826464D01*
X147530000Y-112600000D02*
X147530000Y-105340000D01*
X147530000Y-105340000D02*
X147900000Y-104970000D01*
X148614432Y-113684432D02*
X147530000Y-112600000D01*
X149364486Y-114065431D02*
X148983487Y-113684432D01*
X148983487Y-113684432D02*
X148614432Y-113684432D01*
X145300000Y-123620000D02*
X139070000Y-123620000D01*
X139070000Y-123620000D02*
X137310000Y-121860000D01*
X145839001Y-123080999D02*
X145300000Y-123620000D01*
X146220000Y-122690000D02*
X145839001Y-123070999D01*
X145839001Y-123070999D02*
X145839001Y-123080999D01*
X145591462Y-119095075D02*
X142596387Y-116100000D01*
X142596387Y-116100000D02*
X142260000Y-116100000D01*
G36*
X169656183Y-96086256D02*
X170068346Y-96361654D01*
X170343746Y-96773821D01*
X170446400Y-97289900D01*
X170446400Y-110358131D01*
X170422350Y-110334039D01*
X170155244Y-110223126D01*
X169866025Y-110222874D01*
X169598725Y-110333320D01*
X169394039Y-110537650D01*
X169283126Y-110804756D01*
X169282874Y-111093975D01*
X169393320Y-111361275D01*
X169597650Y-111565961D01*
X169746000Y-111627562D01*
X169746000Y-122272994D01*
X167824000Y-122272994D01*
X167696411Y-122298373D01*
X167588246Y-122370646D01*
X167515973Y-122478811D01*
X167490594Y-122606400D01*
X167490594Y-124333600D01*
X167515973Y-124461189D01*
X167588246Y-124569354D01*
X167696411Y-124641627D01*
X167824000Y-124667006D01*
X169746000Y-124667006D01*
X169746000Y-125091551D01*
X169474334Y-124910029D01*
X169018711Y-124819400D01*
X168661289Y-124819400D01*
X168205666Y-124910029D01*
X167819408Y-125168119D01*
X167561318Y-125554377D01*
X167470689Y-126010000D01*
X167561318Y-126465623D01*
X167819408Y-126851881D01*
X168205666Y-127109971D01*
X168661289Y-127200600D01*
X169018711Y-127200600D01*
X169474334Y-127109971D01*
X169746000Y-126928449D01*
X169746000Y-127784029D01*
X169542186Y-127604219D01*
X169138401Y-127465818D01*
X168967000Y-127513477D01*
X168967000Y-128423000D01*
X168987000Y-128423000D01*
X168987000Y-128677000D01*
X168967000Y-128677000D01*
X168967000Y-129586523D01*
X169138401Y-129634182D01*
X169542186Y-129495781D01*
X169746000Y-129315971D01*
X169746000Y-130171551D01*
X169474334Y-129990029D01*
X169018711Y-129899400D01*
X168661289Y-129899400D01*
X168205666Y-129990029D01*
X167819408Y-130248119D01*
X167561318Y-130634377D01*
X167470689Y-131090000D01*
X167561318Y-131545623D01*
X167819408Y-131931881D01*
X168205666Y-132189971D01*
X168661289Y-132280600D01*
X169018711Y-132280600D01*
X169474334Y-132189971D01*
X169860592Y-131931881D01*
X170118682Y-131545623D01*
X170139106Y-131442946D01*
X170446400Y-131135653D01*
X170446400Y-149050100D01*
X170343746Y-149566179D01*
X170068346Y-149978346D01*
X169656183Y-150253744D01*
X169140100Y-150356400D01*
X156744864Y-150356400D01*
X157472632Y-149628632D01*
X157626107Y-149398940D01*
X157642685Y-149315595D01*
X157813881Y-149201206D01*
X157875412Y-149109118D01*
X167637007Y-149109118D01*
X167763695Y-149415001D01*
X168084801Y-149779310D01*
X168520880Y-149993005D01*
X168713000Y-149970965D01*
X168713000Y-148917000D01*
X168967000Y-148917000D01*
X168967000Y-149970965D01*
X169159120Y-149993005D01*
X169595199Y-149779310D01*
X169916305Y-149415001D01*
X170042993Y-149109118D01*
X170020639Y-148917000D01*
X168967000Y-148917000D01*
X168713000Y-148917000D01*
X167659361Y-148917000D01*
X167637007Y-149109118D01*
X157875412Y-149109118D01*
X158071971Y-148814948D01*
X158162600Y-148359325D01*
X158162600Y-148312675D01*
X158071971Y-147857052D01*
X157813881Y-147470794D01*
X157526745Y-147278935D01*
X161729070Y-147278935D01*
X162092180Y-147637835D01*
X163272888Y-148127584D01*
X164551138Y-148128215D01*
X165732330Y-147639633D01*
X165735020Y-147637835D01*
X166098130Y-147278935D01*
X163913600Y-145094405D01*
X161729070Y-147278935D01*
X157526745Y-147278935D01*
X157427623Y-147212704D01*
X156972000Y-147122075D01*
X156516377Y-147212704D01*
X156130119Y-147470794D01*
X155872029Y-147857052D01*
X155781400Y-148312675D01*
X155781400Y-148359325D01*
X155872029Y-148814948D01*
X156036957Y-149061779D01*
X155906736Y-149192000D01*
X155280032Y-149192000D01*
X155531971Y-148814948D01*
X155622600Y-148359325D01*
X155622600Y-148312675D01*
X155531971Y-147857052D01*
X155273881Y-147470794D01*
X154887623Y-147212704D01*
X154432000Y-147122075D01*
X153976377Y-147212704D01*
X153590119Y-147470794D01*
X153332029Y-147857052D01*
X153241400Y-148312675D01*
X153241400Y-148359325D01*
X153332029Y-148814948D01*
X153583968Y-149192000D01*
X152740032Y-149192000D01*
X152991971Y-148814948D01*
X153082600Y-148359325D01*
X153082600Y-148312675D01*
X152991971Y-147857052D01*
X152733881Y-147470794D01*
X152347623Y-147212704D01*
X151892000Y-147122075D01*
X151436377Y-147212704D01*
X151050119Y-147470794D01*
X150792029Y-147857052D01*
X150701400Y-148312675D01*
X150701400Y-148359325D01*
X150792029Y-148814948D01*
X151043968Y-149192000D01*
X150200032Y-149192000D01*
X150451971Y-148814948D01*
X150542600Y-148359325D01*
X150542600Y-148312675D01*
X150451971Y-147857052D01*
X150193881Y-147470794D01*
X149807623Y-147212704D01*
X149352000Y-147122075D01*
X148896377Y-147212704D01*
X148510119Y-147470794D01*
X148252029Y-147857052D01*
X148161400Y-148312675D01*
X148161400Y-148359325D01*
X148252029Y-148814948D01*
X148503968Y-149192000D01*
X147660032Y-149192000D01*
X147911971Y-148814948D01*
X148002600Y-148359325D01*
X148002600Y-148312675D01*
X147911971Y-147857052D01*
X147653881Y-147470794D01*
X147267623Y-147212704D01*
X146812000Y-147122075D01*
X146356377Y-147212704D01*
X145970119Y-147470794D01*
X145712029Y-147857052D01*
X145621400Y-148312675D01*
X145621400Y-148359325D01*
X145712029Y-148814948D01*
X145963968Y-149192000D01*
X145120032Y-149192000D01*
X145371971Y-148814948D01*
X145462600Y-148359325D01*
X145462600Y-148312675D01*
X145371971Y-147857052D01*
X145113881Y-147470794D01*
X144727623Y-147212704D01*
X144272000Y-147122075D01*
X143816377Y-147212704D01*
X143430119Y-147470794D01*
X143172029Y-147857052D01*
X143081400Y-148312675D01*
X143081400Y-148359325D01*
X143172029Y-148814948D01*
X143423968Y-149192000D01*
X142580032Y-149192000D01*
X142831971Y-148814948D01*
X142922600Y-148359325D01*
X142922600Y-148312675D01*
X142831971Y-147857052D01*
X142573881Y-147470794D01*
X142187623Y-147212704D01*
X141732000Y-147122075D01*
X141276377Y-147212704D01*
X140890119Y-147470794D01*
X140632029Y-147857052D01*
X140541400Y-148312675D01*
X140541400Y-148359325D01*
X140632029Y-148814948D01*
X140883968Y-149192000D01*
X140040032Y-149192000D01*
X140291971Y-148814948D01*
X140382600Y-148359325D01*
X140382600Y-148312675D01*
X140291971Y-147857052D01*
X140033881Y-147470794D01*
X139647623Y-147212704D01*
X139192000Y-147122075D01*
X138736377Y-147212704D01*
X138350119Y-147470794D01*
X138092029Y-147857052D01*
X138001400Y-148312675D01*
X138001400Y-148359325D01*
X138092029Y-148814948D01*
X138343968Y-149192000D01*
X137500032Y-149192000D01*
X137751971Y-148814948D01*
X137842600Y-148359325D01*
X137842600Y-148312675D01*
X137751971Y-147857052D01*
X137493881Y-147470794D01*
X137107623Y-147212704D01*
X136652000Y-147122075D01*
X136196377Y-147212704D01*
X135810119Y-147470794D01*
X135552029Y-147857052D01*
X135461400Y-148312675D01*
X135461400Y-148359325D01*
X135552029Y-148814948D01*
X135803968Y-149192000D01*
X134759319Y-149192000D01*
X134970590Y-149011094D01*
X135163581Y-148631137D01*
X135139654Y-148463000D01*
X134239000Y-148463000D01*
X134239000Y-148483000D01*
X133985000Y-148483000D01*
X133985000Y-148463000D01*
X133084346Y-148463000D01*
X133081844Y-148480580D01*
X133008000Y-148406736D01*
X133008000Y-148040863D01*
X133060419Y-148040863D01*
X133084346Y-148209000D01*
X133985000Y-148209000D01*
X133985000Y-147308771D01*
X134239000Y-147308771D01*
X134239000Y-148209000D01*
X135139654Y-148209000D01*
X135163581Y-148040863D01*
X134970590Y-147660906D01*
X134646886Y-147383726D01*
X134407135Y-147284432D01*
X134239000Y-147308771D01*
X133985000Y-147308771D01*
X133816865Y-147284432D01*
X133577114Y-147383726D01*
X133253410Y-147660906D01*
X133060419Y-148040863D01*
X133008000Y-148040863D01*
X133008000Y-146993264D01*
X133312044Y-146689220D01*
X133656377Y-146919296D01*
X134112000Y-147009925D01*
X134567623Y-146919296D01*
X134953881Y-146661206D01*
X135211971Y-146274948D01*
X135302600Y-145819325D01*
X135302600Y-145772675D01*
X135461400Y-145772675D01*
X135461400Y-145819325D01*
X135552029Y-146274948D01*
X135810119Y-146661206D01*
X136196377Y-146919296D01*
X136652000Y-147009925D01*
X137107623Y-146919296D01*
X137493881Y-146661206D01*
X137751971Y-146274948D01*
X137842600Y-145819325D01*
X137842600Y-145772675D01*
X138001400Y-145772675D01*
X138001400Y-145819325D01*
X138092029Y-146274948D01*
X138350119Y-146661206D01*
X138736377Y-146919296D01*
X139192000Y-147009925D01*
X139647623Y-146919296D01*
X140033881Y-146661206D01*
X140291971Y-146274948D01*
X140382600Y-145819325D01*
X140382600Y-145772675D01*
X140541400Y-145772675D01*
X140541400Y-145819325D01*
X140632029Y-146274948D01*
X140890119Y-146661206D01*
X141276377Y-146919296D01*
X141732000Y-147009925D01*
X142187623Y-146919296D01*
X142573881Y-146661206D01*
X142831971Y-146274948D01*
X142922600Y-145819325D01*
X142922600Y-145772675D01*
X143081400Y-145772675D01*
X143081400Y-145819325D01*
X143172029Y-146274948D01*
X143430119Y-146661206D01*
X143816377Y-146919296D01*
X144272000Y-147009925D01*
X144727623Y-146919296D01*
X145113881Y-146661206D01*
X145371971Y-146274948D01*
X145462600Y-145819325D01*
X145462600Y-145772675D01*
X145621400Y-145772675D01*
X145621400Y-145819325D01*
X145712029Y-146274948D01*
X145970119Y-146661206D01*
X146356377Y-146919296D01*
X146812000Y-147009925D01*
X147267623Y-146919296D01*
X147653881Y-146661206D01*
X147911971Y-146274948D01*
X147948533Y-146091137D01*
X148300419Y-146091137D01*
X148493410Y-146471094D01*
X148817114Y-146748274D01*
X149056865Y-146847568D01*
X149225000Y-146823229D01*
X149225000Y-145923000D01*
X149479000Y-145923000D01*
X149479000Y-146823229D01*
X149647135Y-146847568D01*
X149886886Y-146748274D01*
X150210590Y-146471094D01*
X150403581Y-146091137D01*
X150379654Y-145923000D01*
X149479000Y-145923000D01*
X149225000Y-145923000D01*
X148324346Y-145923000D01*
X148300419Y-146091137D01*
X147948533Y-146091137D01*
X148002600Y-145819325D01*
X148002600Y-145772675D01*
X150701400Y-145772675D01*
X150701400Y-145819325D01*
X150792029Y-146274948D01*
X151050119Y-146661206D01*
X151436377Y-146919296D01*
X151892000Y-147009925D01*
X152347623Y-146919296D01*
X152733881Y-146661206D01*
X152991971Y-146274948D01*
X153082600Y-145819325D01*
X153082600Y-145772675D01*
X153241400Y-145772675D01*
X153241400Y-145819325D01*
X153332029Y-146274948D01*
X153590119Y-146661206D01*
X153976377Y-146919296D01*
X154432000Y-147009925D01*
X154887623Y-146919296D01*
X155273881Y-146661206D01*
X155531971Y-146274948D01*
X155590609Y-145980150D01*
X155879800Y-145980150D01*
X155879800Y-146705071D01*
X155914602Y-146789091D01*
X155978908Y-146853397D01*
X156062928Y-146888200D01*
X156787850Y-146888200D01*
X156845000Y-146831050D01*
X156845000Y-145923000D01*
X157099000Y-145923000D01*
X157099000Y-146831050D01*
X157156150Y-146888200D01*
X157881072Y-146888200D01*
X157965092Y-146853397D01*
X158029398Y-146789091D01*
X158064200Y-146705071D01*
X158064200Y-145980150D01*
X158007050Y-145923000D01*
X157099000Y-145923000D01*
X156845000Y-145923000D01*
X155936950Y-145923000D01*
X155879800Y-145980150D01*
X155590609Y-145980150D01*
X155622600Y-145819325D01*
X155622600Y-145772675D01*
X155531971Y-145317052D01*
X155273881Y-144930794D01*
X155208233Y-144886929D01*
X155879800Y-144886929D01*
X155879800Y-145611850D01*
X155936950Y-145669000D01*
X156845000Y-145669000D01*
X156845000Y-144760950D01*
X157099000Y-144760950D01*
X157099000Y-145669000D01*
X158007050Y-145669000D01*
X158064200Y-145611850D01*
X158064200Y-145552338D01*
X160700185Y-145552338D01*
X161188767Y-146733530D01*
X161190565Y-146736220D01*
X161549465Y-147099330D01*
X163733995Y-144914800D01*
X164093205Y-144914800D01*
X166277735Y-147099330D01*
X166636635Y-146736220D01*
X167126384Y-145555512D01*
X167126542Y-145234000D01*
X167490594Y-145234000D01*
X167490594Y-147266000D01*
X167515973Y-147393589D01*
X167588246Y-147501754D01*
X167696411Y-147574027D01*
X167824000Y-147599406D01*
X168495553Y-147599406D01*
X168084801Y-147800690D01*
X167763695Y-148164999D01*
X167637007Y-148470882D01*
X167659361Y-148663000D01*
X168713000Y-148663000D01*
X168713000Y-148643000D01*
X168967000Y-148643000D01*
X168967000Y-148663000D01*
X170020639Y-148663000D01*
X170042993Y-148470882D01*
X169916305Y-148164999D01*
X169595199Y-147800690D01*
X169184447Y-147599406D01*
X169856000Y-147599406D01*
X169983589Y-147574027D01*
X170091754Y-147501754D01*
X170164027Y-147393589D01*
X170189406Y-147266000D01*
X170189406Y-145234000D01*
X170164027Y-145106411D01*
X170091754Y-144998246D01*
X169983589Y-144925973D01*
X169856000Y-144900594D01*
X167824000Y-144900594D01*
X167696411Y-144925973D01*
X167588246Y-144998246D01*
X167515973Y-145106411D01*
X167490594Y-145234000D01*
X167126542Y-145234000D01*
X167127015Y-144277262D01*
X166638433Y-143096070D01*
X166636635Y-143093380D01*
X166548170Y-143003877D01*
X167582866Y-143003877D01*
X167700908Y-143289560D01*
X167919290Y-143508324D01*
X168204767Y-143626865D01*
X168513877Y-143627134D01*
X168799560Y-143509092D01*
X169018324Y-143290710D01*
X169136865Y-143005233D01*
X169137134Y-142696123D01*
X169019092Y-142410440D01*
X168800710Y-142191676D01*
X168515233Y-142073135D01*
X168206123Y-142072866D01*
X167920440Y-142190908D01*
X167701676Y-142409290D01*
X167583135Y-142694767D01*
X167582866Y-143003877D01*
X166548170Y-143003877D01*
X166277735Y-142730270D01*
X164093205Y-144914800D01*
X163733995Y-144914800D01*
X161549465Y-142730270D01*
X161190565Y-143093380D01*
X160700816Y-144274088D01*
X160700185Y-145552338D01*
X158064200Y-145552338D01*
X158064200Y-144886929D01*
X158029398Y-144802909D01*
X157965092Y-144738603D01*
X157881072Y-144703800D01*
X157156150Y-144703800D01*
X157099000Y-144760950D01*
X156845000Y-144760950D01*
X156787850Y-144703800D01*
X156062928Y-144703800D01*
X155978908Y-144738603D01*
X155914602Y-144802909D01*
X155879800Y-144886929D01*
X155208233Y-144886929D01*
X154887623Y-144672704D01*
X154432000Y-144582075D01*
X153976377Y-144672704D01*
X153590119Y-144930794D01*
X153332029Y-145317052D01*
X153241400Y-145772675D01*
X153082600Y-145772675D01*
X152991971Y-145317052D01*
X152733881Y-144930794D01*
X152347623Y-144672704D01*
X151892000Y-144582075D01*
X151436377Y-144672704D01*
X151050119Y-144930794D01*
X150792029Y-145317052D01*
X150701400Y-145772675D01*
X148002600Y-145772675D01*
X147948534Y-145500863D01*
X148300419Y-145500863D01*
X148324346Y-145669000D01*
X149225000Y-145669000D01*
X149225000Y-144768771D01*
X149479000Y-144768771D01*
X149479000Y-145669000D01*
X150379654Y-145669000D01*
X150403581Y-145500863D01*
X150210590Y-145120906D01*
X149886886Y-144843726D01*
X149647135Y-144744432D01*
X149479000Y-144768771D01*
X149225000Y-144768771D01*
X149056865Y-144744432D01*
X148817114Y-144843726D01*
X148493410Y-145120906D01*
X148300419Y-145500863D01*
X147948534Y-145500863D01*
X147911971Y-145317052D01*
X147653881Y-144930794D01*
X147267623Y-144672704D01*
X146812000Y-144582075D01*
X146356377Y-144672704D01*
X145970119Y-144930794D01*
X145712029Y-145317052D01*
X145621400Y-145772675D01*
X145462600Y-145772675D01*
X145371971Y-145317052D01*
X145113881Y-144930794D01*
X144727623Y-144672704D01*
X144272000Y-144582075D01*
X143816377Y-144672704D01*
X143430119Y-144930794D01*
X143172029Y-145317052D01*
X143081400Y-145772675D01*
X142922600Y-145772675D01*
X142831971Y-145317052D01*
X142573881Y-144930794D01*
X142187623Y-144672704D01*
X141732000Y-144582075D01*
X141276377Y-144672704D01*
X140890119Y-144930794D01*
X140632029Y-145317052D01*
X140541400Y-145772675D01*
X140382600Y-145772675D01*
X140291971Y-145317052D01*
X140033881Y-144930794D01*
X139647623Y-144672704D01*
X139192000Y-144582075D01*
X138736377Y-144672704D01*
X138350119Y-144930794D01*
X138092029Y-145317052D01*
X138001400Y-145772675D01*
X137842600Y-145772675D01*
X137751971Y-145317052D01*
X137493881Y-144930794D01*
X137107623Y-144672704D01*
X136652000Y-144582075D01*
X136196377Y-144672704D01*
X135810119Y-144930794D01*
X135552029Y-145317052D01*
X135461400Y-145772675D01*
X135302600Y-145772675D01*
X135211971Y-145317052D01*
X134953881Y-144930794D01*
X134567623Y-144672704D01*
X134112000Y-144582075D01*
X133656377Y-144672704D01*
X133270119Y-144930794D01*
X133159112Y-145096928D01*
X132933060Y-145141893D01*
X132703368Y-145295368D01*
X131799368Y-146199368D01*
X131645893Y-146429060D01*
X131591999Y-146700000D01*
X131592000Y-146700005D01*
X131592000Y-148699995D01*
X131591999Y-148700000D01*
X131645893Y-148970940D01*
X131799368Y-149200632D01*
X132955137Y-150356400D01*
X100669900Y-150356400D01*
X100153821Y-150253746D01*
X99741654Y-149978346D01*
X99466256Y-149566183D01*
X99363600Y-149050100D01*
X99363600Y-148305514D01*
X113837833Y-148305514D01*
X113983980Y-148659217D01*
X114254359Y-148930069D01*
X114607807Y-149076833D01*
X114990514Y-149077167D01*
X115344217Y-148931020D01*
X115615069Y-148660641D01*
X115761833Y-148307193D01*
X115762167Y-147924486D01*
X115725063Y-147834685D01*
X119580725Y-147834685D01*
X119822126Y-148418920D01*
X120268729Y-148866303D01*
X120852542Y-149108723D01*
X121484685Y-149109275D01*
X122068920Y-148867874D01*
X122516303Y-148421271D01*
X122758723Y-147837458D01*
X122759275Y-147205315D01*
X122517874Y-146621080D01*
X122071271Y-146173697D01*
X121487458Y-145931277D01*
X120855315Y-145930725D01*
X120271080Y-146172126D01*
X119823697Y-146618729D01*
X119581277Y-147202542D01*
X119580725Y-147834685D01*
X115725063Y-147834685D01*
X115616020Y-147570783D01*
X115345641Y-147299931D01*
X114992193Y-147153167D01*
X114609486Y-147152833D01*
X114255783Y-147298980D01*
X113984931Y-147569359D01*
X113838167Y-147922807D01*
X113837833Y-148305514D01*
X99363600Y-148305514D01*
X99363600Y-147278935D01*
X103715470Y-147278935D01*
X104078580Y-147637835D01*
X105259288Y-148127584D01*
X106537538Y-148128215D01*
X107718730Y-147639633D01*
X107721420Y-147637835D01*
X108084530Y-147278935D01*
X105900000Y-145094405D01*
X103715470Y-147278935D01*
X99363600Y-147278935D01*
X99363600Y-145552338D01*
X102686585Y-145552338D01*
X103175167Y-146733530D01*
X103176965Y-146736220D01*
X103535865Y-147099330D01*
X105720395Y-144914800D01*
X106079605Y-144914800D01*
X108264135Y-147099330D01*
X108623035Y-146736220D01*
X109112784Y-145555512D01*
X109113415Y-144277262D01*
X108624833Y-143096070D01*
X108623035Y-143093380D01*
X108264135Y-142730270D01*
X106079605Y-144914800D01*
X105720395Y-144914800D01*
X103535865Y-142730270D01*
X103176965Y-143093380D01*
X102687216Y-144274088D01*
X102686585Y-145552338D01*
X99363600Y-145552338D01*
X99363600Y-142550665D01*
X103715470Y-142550665D01*
X105900000Y-144735195D01*
X108084530Y-142550665D01*
X161729070Y-142550665D01*
X163913600Y-144735195D01*
X166098130Y-142550665D01*
X165735020Y-142191765D01*
X164554312Y-141702016D01*
X163276062Y-141701385D01*
X162094870Y-142189967D01*
X162092180Y-142191765D01*
X161729070Y-142550665D01*
X108084530Y-142550665D01*
X107721420Y-142191765D01*
X106540712Y-141702016D01*
X105262462Y-141701385D01*
X104081270Y-142189967D01*
X104078580Y-142191765D01*
X103715470Y-142550665D01*
X99363600Y-142550665D01*
X99363600Y-136203877D01*
X167582866Y-136203877D01*
X167700908Y-136489560D01*
X167919290Y-136708324D01*
X168204767Y-136826865D01*
X168513877Y-136827134D01*
X168799560Y-136709092D01*
X169018324Y-136490710D01*
X169136865Y-136205233D01*
X169137134Y-135896123D01*
X169019092Y-135610440D01*
X168800710Y-135391676D01*
X168515233Y-135273135D01*
X168206123Y-135272866D01*
X167920440Y-135390908D01*
X167701676Y-135609290D01*
X167583135Y-135894767D01*
X167582866Y-136203877D01*
X99363600Y-136203877D01*
X99363600Y-134980212D01*
X139761877Y-134980212D01*
X139869436Y-135240526D01*
X140068426Y-135439864D01*
X140328552Y-135547877D01*
X140610212Y-135548123D01*
X140870526Y-135440564D01*
X141017346Y-135294000D01*
X141522817Y-135294000D01*
X141668426Y-135439864D01*
X141928552Y-135547877D01*
X142210212Y-135548123D01*
X142470526Y-135440564D01*
X142669864Y-135241574D01*
X142777877Y-134981448D01*
X142778123Y-134699788D01*
X142670564Y-134439474D01*
X142471574Y-134240136D01*
X142211448Y-134132123D01*
X141929788Y-134131877D01*
X141669474Y-134239436D01*
X141522654Y-134386000D01*
X141017183Y-134386000D01*
X140871574Y-134240136D01*
X140611448Y-134132123D01*
X140329788Y-134131877D01*
X140069474Y-134239436D01*
X139870136Y-134438426D01*
X139762123Y-134698552D01*
X139761877Y-134980212D01*
X99363600Y-134980212D01*
X99363600Y-122000212D01*
X136601877Y-122000212D01*
X136709436Y-122260526D01*
X136908426Y-122459864D01*
X137168552Y-122567877D01*
X137376006Y-122568058D01*
X138748974Y-123941027D01*
X138896262Y-124039441D01*
X139070000Y-124074000D01*
X145300000Y-124074000D01*
X145473738Y-124039441D01*
X145621026Y-123941026D01*
X146160028Y-123402025D01*
X146162750Y-123397951D01*
X146360212Y-123398123D01*
X146386000Y-123387468D01*
X146386000Y-129772817D01*
X146240136Y-129918426D01*
X146132123Y-130178552D01*
X146131877Y-130460212D01*
X146179719Y-130576000D01*
X143308053Y-130576000D01*
X142371026Y-129638974D01*
X142223738Y-129540559D01*
X142050000Y-129506000D01*
X140187183Y-129506000D01*
X140041574Y-129360136D01*
X139781448Y-129252123D01*
X139499788Y-129251877D01*
X139239474Y-129359436D01*
X139040136Y-129558426D01*
X138932123Y-129818552D01*
X138931877Y-130100212D01*
X139039436Y-130360526D01*
X139238426Y-130559864D01*
X139498552Y-130667877D01*
X139780212Y-130668123D01*
X140040526Y-130560564D01*
X140187346Y-130414000D01*
X141861948Y-130414000D01*
X142553947Y-131106000D01*
X140887183Y-131106000D01*
X140741574Y-130960136D01*
X140481448Y-130852123D01*
X140199788Y-130851877D01*
X139939474Y-130959436D01*
X139740136Y-131158426D01*
X139632123Y-131418552D01*
X139631877Y-131700212D01*
X139739436Y-131960526D01*
X139938426Y-132159864D01*
X140198552Y-132267877D01*
X140480212Y-132268123D01*
X140740526Y-132160564D01*
X140887346Y-132014000D01*
X147840000Y-132014000D01*
X148013738Y-131979441D01*
X148161026Y-131881026D01*
X148914110Y-131127943D01*
X149099842Y-131128105D01*
X147471948Y-132756000D01*
X141417183Y-132756000D01*
X141271574Y-132610136D01*
X141011448Y-132502123D01*
X140729788Y-132501877D01*
X140469474Y-132609436D01*
X140270136Y-132808426D01*
X140162123Y-133068552D01*
X140161877Y-133350212D01*
X140269436Y-133610526D01*
X140468426Y-133809864D01*
X140728552Y-133917877D01*
X141010212Y-133918123D01*
X141270526Y-133810564D01*
X141417346Y-133664000D01*
X147660000Y-133664000D01*
X147830927Y-133630000D01*
X167470689Y-133630000D01*
X167561318Y-134085623D01*
X167819408Y-134471881D01*
X168205666Y-134729971D01*
X168661289Y-134820600D01*
X169018711Y-134820600D01*
X169474334Y-134729971D01*
X169860592Y-134471881D01*
X170118682Y-134085623D01*
X170209311Y-133630000D01*
X170118682Y-133174377D01*
X169860592Y-132788119D01*
X169474334Y-132530029D01*
X169018711Y-132439400D01*
X168661289Y-132439400D01*
X168205666Y-132530029D01*
X167819408Y-132788119D01*
X167561318Y-133174377D01*
X167470689Y-133630000D01*
X147830927Y-133630000D01*
X147833738Y-133629441D01*
X147981026Y-133531026D01*
X150980371Y-130531682D01*
X151078786Y-130384394D01*
X151090028Y-130327877D01*
X151113345Y-130210655D01*
X151113345Y-127512250D01*
X161867355Y-127512250D01*
X161985300Y-127662127D01*
X162438550Y-127816513D01*
X162916379Y-127785696D01*
X163214700Y-127662127D01*
X163332645Y-127512250D01*
X162600000Y-126779605D01*
X161867355Y-127512250D01*
X151113345Y-127512250D01*
X151113345Y-126438550D01*
X161383487Y-126438550D01*
X161414304Y-126916379D01*
X161537873Y-127214700D01*
X161687750Y-127332645D01*
X162420395Y-126600000D01*
X162779605Y-126600000D01*
X163512250Y-127332645D01*
X163662127Y-127214700D01*
X163816513Y-126761450D01*
X163785696Y-126283621D01*
X163662127Y-125985300D01*
X163512250Y-125867355D01*
X162779605Y-126600000D01*
X162420395Y-126600000D01*
X161687750Y-125867355D01*
X161537873Y-125985300D01*
X161383487Y-126438550D01*
X151113345Y-126438550D01*
X151113345Y-125687750D01*
X161867355Y-125687750D01*
X162600000Y-126420395D01*
X163332645Y-125687750D01*
X163214700Y-125537873D01*
X162761450Y-125383487D01*
X162283621Y-125414304D01*
X161985300Y-125537873D01*
X161867355Y-125687750D01*
X151113345Y-125687750D01*
X151113345Y-125326528D01*
X151259209Y-125180919D01*
X151367222Y-124920793D01*
X151367468Y-124639133D01*
X151259909Y-124378819D01*
X151113345Y-124231999D01*
X151113345Y-120818707D01*
X152102025Y-119830028D01*
X152200440Y-119682739D01*
X152201034Y-119679751D01*
X152234999Y-119509001D01*
X152234999Y-118270999D01*
X152200440Y-118097261D01*
X152156465Y-118031448D01*
X152107940Y-117958825D01*
X152108123Y-117749788D01*
X152000564Y-117489474D01*
X151845361Y-117334000D01*
X153451948Y-117334000D01*
X154202057Y-118084110D01*
X154201877Y-118290212D01*
X154248084Y-118402041D01*
X154059788Y-118401877D01*
X153799474Y-118509436D01*
X153600136Y-118708426D01*
X153492123Y-118968552D01*
X153491877Y-119250212D01*
X153599436Y-119510526D01*
X153746000Y-119657346D01*
X153746000Y-121902834D01*
X153590136Y-122058426D01*
X153482123Y-122318552D01*
X153481877Y-122600212D01*
X153589436Y-122860526D01*
X153788426Y-123059864D01*
X154048552Y-123167877D01*
X154330212Y-123168123D01*
X154590526Y-123060564D01*
X154789864Y-122861574D01*
X154897877Y-122601448D01*
X154898005Y-122453975D01*
X158972874Y-122453975D01*
X159083320Y-122721275D01*
X159287650Y-122925961D01*
X159554756Y-123036874D01*
X159843975Y-123037126D01*
X160111275Y-122926680D01*
X160315961Y-122722350D01*
X160426874Y-122455244D01*
X160427075Y-122224977D01*
X160648077Y-122003975D01*
X165612874Y-122003975D01*
X165723320Y-122271275D01*
X165886000Y-122434238D01*
X165886000Y-127126905D01*
X165903464Y-127214700D01*
X165920559Y-127300643D01*
X166018974Y-127447931D01*
X166482591Y-127911548D01*
X166423126Y-128054756D01*
X166422874Y-128343975D01*
X166533320Y-128611275D01*
X166737650Y-128815961D01*
X167004756Y-128926874D01*
X167293975Y-128927126D01*
X167561275Y-128816680D01*
X167653475Y-128724641D01*
X167636032Y-128845135D01*
X167817729Y-129213394D01*
X168137814Y-129495781D01*
X168541599Y-129634182D01*
X168713000Y-129586523D01*
X168713000Y-128677000D01*
X168693000Y-128677000D01*
X168693000Y-128423000D01*
X168713000Y-128423000D01*
X168713000Y-127513477D01*
X168541599Y-127465818D01*
X168137814Y-127604219D01*
X167817729Y-127886606D01*
X167811957Y-127898304D01*
X167766680Y-127788725D01*
X167562350Y-127584039D01*
X167351727Y-127496580D01*
X166794000Y-126938853D01*
X166794000Y-122434029D01*
X166955961Y-122272350D01*
X167066874Y-122005244D01*
X167067126Y-121716025D01*
X166956680Y-121448725D01*
X166752350Y-121244039D01*
X166485244Y-121133126D01*
X166196025Y-121132874D01*
X165928725Y-121243320D01*
X165724039Y-121447650D01*
X165613126Y-121714756D01*
X165612874Y-122003975D01*
X160648077Y-122003975D01*
X161655393Y-120996659D01*
X161861513Y-121203139D01*
X162339880Y-121401774D01*
X162857848Y-121402226D01*
X163336560Y-121204426D01*
X163703139Y-120838487D01*
X163901774Y-120360120D01*
X163902226Y-119842152D01*
X163735505Y-119438655D01*
X167546218Y-119438655D01*
X167706281Y-119826037D01*
X168002404Y-120122678D01*
X168389507Y-120283416D01*
X168808655Y-120283782D01*
X169196037Y-120123719D01*
X169492678Y-119827596D01*
X169653416Y-119440493D01*
X169653782Y-119021345D01*
X169493719Y-118633963D01*
X169197596Y-118337322D01*
X168810493Y-118176584D01*
X168391345Y-118176218D01*
X168003963Y-118336281D01*
X167707322Y-118632404D01*
X167546584Y-119019507D01*
X167546218Y-119438655D01*
X163735505Y-119438655D01*
X163704426Y-119363440D01*
X163338487Y-118996861D01*
X162860120Y-118798226D01*
X162342152Y-118797774D01*
X161863440Y-118995574D01*
X161496861Y-119361513D01*
X161298226Y-119839880D01*
X161298025Y-120069923D01*
X159784875Y-121583073D01*
X159556025Y-121582874D01*
X159288725Y-121693320D01*
X159084039Y-121897650D01*
X158973126Y-122164756D01*
X158972874Y-122453975D01*
X154898005Y-122453975D01*
X154898123Y-122319788D01*
X154790564Y-122059474D01*
X154654000Y-121922671D01*
X154654000Y-119657183D01*
X154799864Y-119511574D01*
X154907877Y-119251448D01*
X154908123Y-118969788D01*
X154861916Y-118857959D01*
X155050212Y-118858123D01*
X155310526Y-118750564D01*
X155509864Y-118551574D01*
X155617877Y-118291448D01*
X155617905Y-118259957D01*
X155662057Y-118304110D01*
X155661877Y-118510212D01*
X155769436Y-118770526D01*
X155968426Y-118969864D01*
X156228552Y-119077877D01*
X156510212Y-119078123D01*
X156770526Y-118970564D01*
X156969864Y-118771574D01*
X157077877Y-118511448D01*
X157077907Y-118476137D01*
X165050847Y-118476137D01*
X165184385Y-118799323D01*
X165431436Y-119046806D01*
X165754389Y-119180907D01*
X166104077Y-119181213D01*
X166427263Y-119047675D01*
X166674746Y-118800624D01*
X166808847Y-118477671D01*
X166809153Y-118127983D01*
X166675615Y-117804797D01*
X166428564Y-117557314D01*
X166105611Y-117423213D01*
X165755923Y-117422907D01*
X165432737Y-117556445D01*
X165185254Y-117803496D01*
X165051153Y-118126449D01*
X165050847Y-118476137D01*
X157077907Y-118476137D01*
X157078123Y-118229788D01*
X156970564Y-117969474D01*
X156771574Y-117770136D01*
X156511448Y-117662123D01*
X156303995Y-117661942D01*
X153186028Y-114543975D01*
X153672874Y-114543975D01*
X153783320Y-114811275D01*
X153987650Y-115015961D01*
X154254756Y-115126874D01*
X154543975Y-115127126D01*
X154754323Y-115040212D01*
X162911877Y-115040212D01*
X163019436Y-115300526D01*
X163218426Y-115499864D01*
X163478552Y-115607877D01*
X163760212Y-115608123D01*
X164020526Y-115500564D01*
X164219864Y-115301574D01*
X164327877Y-115041448D01*
X164328058Y-114833994D01*
X165001026Y-114161027D01*
X165099441Y-114013739D01*
X165114787Y-113936588D01*
X165134000Y-113840000D01*
X165134000Y-113677382D01*
X165184385Y-113799323D01*
X165431436Y-114046806D01*
X165754389Y-114180907D01*
X166104077Y-114181213D01*
X166427263Y-114047675D01*
X166674746Y-113800624D01*
X166808847Y-113477671D01*
X166809153Y-113127983D01*
X166675615Y-112804797D01*
X166449868Y-112578655D01*
X167546218Y-112578655D01*
X167706281Y-112966037D01*
X168002404Y-113262678D01*
X168389507Y-113423416D01*
X168808655Y-113423782D01*
X169196037Y-113263719D01*
X169492678Y-112967596D01*
X169653416Y-112580493D01*
X169653782Y-112161345D01*
X169493719Y-111773963D01*
X169197596Y-111477322D01*
X168810493Y-111316584D01*
X168391345Y-111316218D01*
X168003963Y-111476281D01*
X167707322Y-111772404D01*
X167546584Y-112159507D01*
X167546218Y-112578655D01*
X166449868Y-112578655D01*
X166428564Y-112557314D01*
X166105611Y-112423213D01*
X165755923Y-112422907D01*
X165432737Y-112556445D01*
X165185254Y-112803496D01*
X165134000Y-112926930D01*
X165134000Y-110507166D01*
X165289864Y-110351574D01*
X165397877Y-110091448D01*
X165398123Y-109809788D01*
X165290564Y-109549474D01*
X165091574Y-109350136D01*
X164831448Y-109242123D01*
X164549788Y-109241877D01*
X164289474Y-109349436D01*
X164090136Y-109548426D01*
X163982123Y-109808552D01*
X163981877Y-110090212D01*
X164089436Y-110350526D01*
X164226000Y-110487329D01*
X164226000Y-113651947D01*
X163685891Y-114192057D01*
X163479788Y-114191877D01*
X163219474Y-114299436D01*
X163020136Y-114498426D01*
X162912123Y-114758552D01*
X162911877Y-115040212D01*
X154754323Y-115040212D01*
X154811275Y-115016680D01*
X155015961Y-114812350D01*
X155126874Y-114545244D01*
X155127075Y-114314977D01*
X155548052Y-113894000D01*
X158960000Y-113894000D01*
X159133738Y-113859441D01*
X159281026Y-113761026D01*
X159515126Y-113526927D01*
X159743975Y-113527126D01*
X160011275Y-113416680D01*
X160215961Y-113212350D01*
X160326874Y-112945244D01*
X160327126Y-112656025D01*
X160216680Y-112388725D01*
X160012350Y-112184039D01*
X159745244Y-112073126D01*
X159659669Y-112073051D01*
X159916963Y-111425966D01*
X159903765Y-110499686D01*
X159574683Y-109705212D01*
X159307756Y-109449850D01*
X159144875Y-109612731D01*
X158892975Y-109864630D01*
X157761605Y-110996000D01*
X157775748Y-111010143D01*
X157596143Y-111189748D01*
X157582000Y-111175605D01*
X156198731Y-112558874D01*
X156198731Y-112558875D01*
X156035850Y-112721756D01*
X156288645Y-112986000D01*
X155360000Y-112986000D01*
X155191883Y-113019441D01*
X155186262Y-113020559D01*
X155038974Y-113118974D01*
X154484875Y-113673073D01*
X154256025Y-113672874D01*
X153988725Y-113783320D01*
X153784039Y-113987650D01*
X153673126Y-114254756D01*
X153672874Y-114543975D01*
X153186028Y-114543975D01*
X153094458Y-114452406D01*
X152947170Y-114353991D01*
X152773432Y-114319432D01*
X151111012Y-114319432D01*
X151174718Y-114166010D01*
X151174964Y-113884350D01*
X151067405Y-113624036D01*
X150924000Y-113480380D01*
X150924000Y-113448052D01*
X151324367Y-113047685D01*
X151313126Y-113074756D01*
X151312874Y-113363975D01*
X151423320Y-113631275D01*
X151627650Y-113835961D01*
X151894756Y-113946874D01*
X152183975Y-113947126D01*
X152451275Y-113836680D01*
X152655961Y-113632350D01*
X152766874Y-113365244D01*
X152767075Y-113134978D01*
X153448053Y-112454000D01*
X153925971Y-112454000D01*
X154087650Y-112615961D01*
X154354756Y-112726874D01*
X154643975Y-112727126D01*
X154911275Y-112616680D01*
X155115961Y-112412350D01*
X155226874Y-112145244D01*
X155227126Y-111856025D01*
X155116680Y-111588725D01*
X154912350Y-111384039D01*
X154645244Y-111273126D01*
X154356025Y-111272874D01*
X154088725Y-111383320D01*
X153925762Y-111546000D01*
X153260000Y-111546000D01*
X153086262Y-111580559D01*
X152938974Y-111678973D01*
X152124874Y-112493073D01*
X151896025Y-112492874D01*
X151867316Y-112504736D01*
X153806018Y-110566034D01*
X155247037Y-110566034D01*
X155260235Y-111492314D01*
X155589317Y-112286788D01*
X155856244Y-112542150D01*
X156019125Y-112379269D01*
X156019126Y-112379269D01*
X157402395Y-110996000D01*
X156019126Y-109612731D01*
X156019125Y-109612731D01*
X155856244Y-109449850D01*
X155589317Y-109705212D01*
X155247037Y-110566034D01*
X153806018Y-110566034D01*
X154441027Y-109931026D01*
X154539441Y-109783738D01*
X154574000Y-109610000D01*
X154574000Y-109270244D01*
X156035850Y-109270244D01*
X156198731Y-109433125D01*
X156198731Y-109433126D01*
X157582000Y-110816395D01*
X158965269Y-109433126D01*
X158965269Y-109433125D01*
X159128150Y-109270244D01*
X158872788Y-109003317D01*
X158011966Y-108661037D01*
X157085686Y-108674235D01*
X156291212Y-109003317D01*
X156035850Y-109270244D01*
X154574000Y-109270244D01*
X154574000Y-109177183D01*
X154719864Y-109031574D01*
X154827877Y-108771448D01*
X154828123Y-108489788D01*
X154720564Y-108229474D01*
X154521574Y-108030136D01*
X154261448Y-107922123D01*
X153979788Y-107921877D01*
X153719474Y-108029436D01*
X153520136Y-108228426D01*
X153412123Y-108488552D01*
X153411877Y-108770212D01*
X153489735Y-108958643D01*
X153291574Y-108760136D01*
X153031448Y-108652123D01*
X152749788Y-108651877D01*
X152489474Y-108759436D01*
X152290136Y-108958426D01*
X152182123Y-109218552D01*
X152182038Y-109315909D01*
X151514000Y-109983948D01*
X151514000Y-108107183D01*
X151659864Y-107961574D01*
X151767877Y-107701448D01*
X151768123Y-107419788D01*
X151660564Y-107159474D01*
X151461574Y-106960136D01*
X151201448Y-106852123D01*
X150919788Y-106851877D01*
X150659474Y-106959436D01*
X150460136Y-107158426D01*
X150352123Y-107418552D01*
X150351877Y-107700212D01*
X150459436Y-107960526D01*
X150606000Y-108107346D01*
X150606000Y-109801947D01*
X149898974Y-110508974D01*
X149800559Y-110656262D01*
X149766000Y-110830000D01*
X149766000Y-110982817D01*
X149620136Y-111128426D01*
X149615528Y-111139525D01*
X149576602Y-111100531D01*
X149544162Y-110937447D01*
X149472368Y-110830000D01*
X149445747Y-110790158D01*
X149294000Y-110638412D01*
X149294000Y-107490000D01*
X149259441Y-107316262D01*
X149259441Y-107316261D01*
X149161026Y-107168973D01*
X149147943Y-107155890D01*
X149148123Y-106949788D01*
X149040564Y-106689474D01*
X148841574Y-106490136D01*
X148581448Y-106382123D01*
X148299788Y-106381877D01*
X148039474Y-106489436D01*
X147984000Y-106544813D01*
X147984000Y-105678074D01*
X148040212Y-105678123D01*
X148300526Y-105570564D01*
X148499864Y-105371574D01*
X148607877Y-105111448D01*
X148608123Y-104829788D01*
X148500564Y-104569474D01*
X148301574Y-104370136D01*
X148041448Y-104262123D01*
X147759788Y-104261877D01*
X147499474Y-104369436D01*
X147300136Y-104568426D01*
X147192123Y-104828552D01*
X147191934Y-105044475D01*
X147110559Y-105166262D01*
X147076000Y-105340000D01*
X147076000Y-112600000D01*
X147092741Y-112684160D01*
X147110559Y-112773738D01*
X147208974Y-112921026D01*
X148293405Y-114005458D01*
X148440693Y-114103873D01*
X148469518Y-114109607D01*
X148614432Y-114138432D01*
X148656422Y-114138432D01*
X148656363Y-114205643D01*
X148703379Y-114319432D01*
X148106568Y-114319432D01*
X147932830Y-114353991D01*
X147785542Y-114452405D01*
X146005891Y-116232057D01*
X145799788Y-116231877D01*
X145539474Y-116339436D01*
X145340136Y-116538426D01*
X145232123Y-116798552D01*
X145231877Y-117080212D01*
X145339436Y-117340526D01*
X145538426Y-117539864D01*
X145798552Y-117647877D01*
X146080212Y-117648123D01*
X146340526Y-117540564D01*
X146539864Y-117341574D01*
X146647877Y-117081448D01*
X146648058Y-116873994D01*
X148294621Y-115227432D01*
X152585380Y-115227432D01*
X153828109Y-116470162D01*
X153813738Y-116460559D01*
X153640000Y-116426000D01*
X150890000Y-116426000D01*
X150716262Y-116460559D01*
X150568974Y-116558973D01*
X150279026Y-116848921D01*
X150210875Y-116683981D01*
X150011885Y-116484643D01*
X149905787Y-116440587D01*
X149948454Y-116337832D01*
X149948700Y-116056172D01*
X149841141Y-115795858D01*
X149642151Y-115596520D01*
X149382025Y-115488507D01*
X149100365Y-115488261D01*
X148840051Y-115595820D01*
X148640713Y-115794810D01*
X148532700Y-116054936D01*
X148532519Y-116262389D01*
X146498974Y-118295935D01*
X146400559Y-118443223D01*
X146366000Y-118616961D01*
X146366000Y-121984013D01*
X146361448Y-121982123D01*
X146079788Y-121981877D01*
X145819474Y-122089436D01*
X145620136Y-122288426D01*
X145512123Y-122548552D01*
X145511939Y-122759006D01*
X145497840Y-122780107D01*
X145111948Y-123166000D01*
X139258053Y-123166000D01*
X138017943Y-121925891D01*
X138018123Y-121719788D01*
X137910564Y-121459474D01*
X137711574Y-121260136D01*
X137451448Y-121152123D01*
X137169788Y-121151877D01*
X136909474Y-121259436D01*
X136710136Y-121458426D01*
X136602123Y-121718552D01*
X136601877Y-122000212D01*
X99363600Y-122000212D01*
X99363600Y-120203975D01*
X140772874Y-120203975D01*
X140883320Y-120471275D01*
X140990272Y-120578413D01*
X140920136Y-120648426D01*
X140812123Y-120908552D01*
X140811877Y-121190212D01*
X140919436Y-121450526D01*
X141118426Y-121649864D01*
X141378552Y-121757877D01*
X141660212Y-121758123D01*
X141920526Y-121650564D01*
X142067346Y-121504000D01*
X143090000Y-121504000D01*
X143263738Y-121469441D01*
X143295962Y-121447910D01*
X143540212Y-121448123D01*
X143800526Y-121340564D01*
X143999864Y-121141574D01*
X144107877Y-120881448D01*
X144108123Y-120599788D01*
X144000564Y-120339474D01*
X143801574Y-120140136D01*
X143721262Y-120106788D01*
X143760526Y-120090564D01*
X143959864Y-119891574D01*
X144067877Y-119631448D01*
X144068123Y-119349788D01*
X143960564Y-119089474D01*
X143761574Y-118890136D01*
X143501448Y-118782123D01*
X143219788Y-118781877D01*
X142959474Y-118889436D01*
X142760136Y-119088426D01*
X142652123Y-119348552D01*
X142651898Y-119606000D01*
X142074029Y-119606000D01*
X141912350Y-119444039D01*
X141645244Y-119333126D01*
X141356025Y-119332874D01*
X141088725Y-119443320D01*
X140884039Y-119647650D01*
X140773126Y-119914756D01*
X140772874Y-120203975D01*
X99363600Y-120203975D01*
X99363600Y-116240212D01*
X141551877Y-116240212D01*
X141659436Y-116500526D01*
X141858426Y-116699864D01*
X142118552Y-116807877D01*
X142400212Y-116808123D01*
X142585782Y-116731447D01*
X144883519Y-119029185D01*
X144883339Y-119235287D01*
X144990898Y-119495601D01*
X145189888Y-119694939D01*
X145450014Y-119802952D01*
X145731674Y-119803198D01*
X145991988Y-119695639D01*
X146191326Y-119496649D01*
X146299339Y-119236523D01*
X146299585Y-118954863D01*
X146192026Y-118694549D01*
X145993036Y-118495211D01*
X145732910Y-118387198D01*
X145525457Y-118387017D01*
X142917413Y-115778974D01*
X142884259Y-115756821D01*
X142860564Y-115699474D01*
X142661574Y-115500136D01*
X142401448Y-115392123D01*
X142119788Y-115391877D01*
X141859474Y-115499436D01*
X141660136Y-115698426D01*
X141552123Y-115958552D01*
X141551877Y-116240212D01*
X99363600Y-116240212D01*
X99363600Y-112721756D01*
X131965850Y-112721756D01*
X132221212Y-112988683D01*
X133082034Y-113330963D01*
X134008314Y-113317765D01*
X134802788Y-112988683D01*
X135058150Y-112721756D01*
X134895269Y-112558875D01*
X134895269Y-112558874D01*
X133512000Y-111175605D01*
X132128731Y-112558874D01*
X132128731Y-112558875D01*
X131965850Y-112721756D01*
X99363600Y-112721756D01*
X99363600Y-110680148D01*
X120239457Y-110680148D01*
X120392552Y-110859894D01*
X120949941Y-111062289D01*
X121542354Y-111035974D01*
X121967448Y-110859894D01*
X122120543Y-110680148D01*
X122006429Y-110566034D01*
X131177037Y-110566034D01*
X131190235Y-111492314D01*
X131519317Y-112286788D01*
X131786244Y-112542150D01*
X131949125Y-112379269D01*
X131949126Y-112379269D01*
X133332395Y-110996000D01*
X133691605Y-110996000D01*
X135074874Y-112379269D01*
X135074875Y-112379269D01*
X135237756Y-112542150D01*
X135504683Y-112286788D01*
X135846963Y-111425966D01*
X135833765Y-110499686D01*
X135504683Y-109705212D01*
X135237756Y-109449850D01*
X135074875Y-109612731D01*
X134822975Y-109864630D01*
X133691605Y-110996000D01*
X133332395Y-110996000D01*
X131949126Y-109612731D01*
X131949125Y-109612731D01*
X131786244Y-109449850D01*
X131519317Y-109705212D01*
X131177037Y-110566034D01*
X122006429Y-110566034D01*
X121180000Y-109739605D01*
X120239457Y-110680148D01*
X99363600Y-110680148D01*
X99363600Y-109329941D01*
X119677711Y-109329941D01*
X119704026Y-109922354D01*
X119880106Y-110347448D01*
X120059852Y-110500543D01*
X121000395Y-109560000D01*
X121359605Y-109560000D01*
X122300148Y-110500543D01*
X122479894Y-110347448D01*
X122682289Y-109790059D01*
X122659199Y-109270244D01*
X131965850Y-109270244D01*
X132128731Y-109433125D01*
X132128731Y-109433126D01*
X133512000Y-110816395D01*
X134895269Y-109433126D01*
X134895269Y-109433125D01*
X135058150Y-109270244D01*
X134802788Y-109003317D01*
X133941966Y-108661037D01*
X133015686Y-108674235D01*
X132221212Y-109003317D01*
X131965850Y-109270244D01*
X122659199Y-109270244D01*
X122655974Y-109197646D01*
X122479894Y-108772552D01*
X122300148Y-108619457D01*
X121359605Y-109560000D01*
X121000395Y-109560000D01*
X120059852Y-108619457D01*
X119880106Y-108772552D01*
X119677711Y-109329941D01*
X99363600Y-109329941D01*
X99363600Y-108439852D01*
X120239457Y-108439852D01*
X121180000Y-109380395D01*
X122120543Y-108439852D01*
X121967448Y-108260106D01*
X121410059Y-108057711D01*
X120817646Y-108084026D01*
X120392552Y-108260106D01*
X120239457Y-108439852D01*
X99363600Y-108439852D01*
X99363600Y-103794135D01*
X103715470Y-103794135D01*
X104078580Y-104153035D01*
X105259288Y-104642784D01*
X106537538Y-104643415D01*
X107718730Y-104154833D01*
X107721420Y-104153035D01*
X108084530Y-103794135D01*
X161742659Y-103794135D01*
X162105769Y-104153035D01*
X163286477Y-104642784D01*
X164564727Y-104643415D01*
X165745919Y-104154833D01*
X165748609Y-104153035D01*
X166111719Y-103794135D01*
X163927189Y-101609605D01*
X161742659Y-103794135D01*
X108084530Y-103794135D01*
X105900000Y-101609605D01*
X103715470Y-103794135D01*
X99363600Y-103794135D01*
X99363600Y-102067538D01*
X102686585Y-102067538D01*
X103175167Y-103248730D01*
X103176965Y-103251420D01*
X103535865Y-103614530D01*
X105720395Y-101430000D01*
X106079605Y-101430000D01*
X108264135Y-103614530D01*
X108623035Y-103251420D01*
X109112784Y-102070712D01*
X109112785Y-102067538D01*
X160713774Y-102067538D01*
X161202356Y-103248730D01*
X161204154Y-103251420D01*
X161563054Y-103614530D01*
X163747584Y-101430000D01*
X164106794Y-101430000D01*
X166291324Y-103614530D01*
X166650224Y-103251420D01*
X167139973Y-102070712D01*
X167140604Y-100792462D01*
X166652022Y-99611270D01*
X166650224Y-99608580D01*
X166291324Y-99245470D01*
X164106794Y-101430000D01*
X163747584Y-101430000D01*
X161563054Y-99245470D01*
X161204154Y-99608580D01*
X160714405Y-100789288D01*
X160713774Y-102067538D01*
X109112785Y-102067538D01*
X109113415Y-100792462D01*
X109106885Y-100776675D01*
X111129400Y-100776675D01*
X111129400Y-100823325D01*
X111220029Y-101278948D01*
X111478119Y-101665206D01*
X111864377Y-101923296D01*
X112320000Y-102013925D01*
X112775623Y-101923296D01*
X113161881Y-101665206D01*
X113419971Y-101278948D01*
X113510600Y-100823325D01*
X113510600Y-100776675D01*
X113669400Y-100776675D01*
X113669400Y-100823325D01*
X113760029Y-101278948D01*
X114018119Y-101665206D01*
X114404377Y-101923296D01*
X114860000Y-102013925D01*
X115315623Y-101923296D01*
X115701881Y-101665206D01*
X115959971Y-101278948D01*
X116050600Y-100823325D01*
X116050600Y-100776675D01*
X116209400Y-100776675D01*
X116209400Y-100823325D01*
X116300029Y-101278948D01*
X116558119Y-101665206D01*
X116944377Y-101923296D01*
X117400000Y-102013925D01*
X117855623Y-101923296D01*
X118241881Y-101665206D01*
X118499971Y-101278948D01*
X118590600Y-100823325D01*
X118590600Y-100776675D01*
X118749400Y-100776675D01*
X118749400Y-100823325D01*
X118840029Y-101278948D01*
X119098119Y-101665206D01*
X119484377Y-101923296D01*
X119940000Y-102013925D01*
X120395623Y-101923296D01*
X120781881Y-101665206D01*
X121039971Y-101278948D01*
X121130600Y-100823325D01*
X121130600Y-100776675D01*
X121289400Y-100776675D01*
X121289400Y-100823325D01*
X121380029Y-101278948D01*
X121638119Y-101665206D01*
X122024377Y-101923296D01*
X122480000Y-102013925D01*
X122935623Y-101923296D01*
X123321881Y-101665206D01*
X123579971Y-101278948D01*
X123670600Y-100823325D01*
X123670600Y-100776675D01*
X123829400Y-100776675D01*
X123829400Y-100823325D01*
X123920029Y-101278948D01*
X124178119Y-101665206D01*
X124564377Y-101923296D01*
X125020000Y-102013925D01*
X125475623Y-101923296D01*
X125861881Y-101665206D01*
X126119971Y-101278948D01*
X126210600Y-100823325D01*
X126210600Y-100776675D01*
X126369400Y-100776675D01*
X126369400Y-100823325D01*
X126460029Y-101278948D01*
X126718119Y-101665206D01*
X127104377Y-101923296D01*
X127560000Y-102013925D01*
X128015623Y-101923296D01*
X128401881Y-101665206D01*
X128659971Y-101278948D01*
X128696533Y-101095137D01*
X129048419Y-101095137D01*
X129241410Y-101475094D01*
X129565114Y-101752274D01*
X129804865Y-101851568D01*
X129973000Y-101827229D01*
X129973000Y-100927000D01*
X130227000Y-100927000D01*
X130227000Y-101827229D01*
X130395135Y-101851568D01*
X130634886Y-101752274D01*
X130958590Y-101475094D01*
X131151581Y-101095137D01*
X131127654Y-100927000D01*
X130227000Y-100927000D01*
X129973000Y-100927000D01*
X129072346Y-100927000D01*
X129048419Y-101095137D01*
X128696533Y-101095137D01*
X128750600Y-100823325D01*
X128750600Y-100776675D01*
X128696534Y-100504863D01*
X129048419Y-100504863D01*
X129072346Y-100673000D01*
X129973000Y-100673000D01*
X129973000Y-99772771D01*
X130227000Y-99772771D01*
X130227000Y-100673000D01*
X131127654Y-100673000D01*
X131151581Y-100504863D01*
X130958590Y-100124906D01*
X130634886Y-99847726D01*
X130395135Y-99748432D01*
X130227000Y-99772771D01*
X129973000Y-99772771D01*
X129804865Y-99748432D01*
X129565114Y-99847726D01*
X129241410Y-100124906D01*
X129048419Y-100504863D01*
X128696534Y-100504863D01*
X128659971Y-100321052D01*
X128401881Y-99934794D01*
X128015623Y-99676704D01*
X127560000Y-99586075D01*
X127104377Y-99676704D01*
X126718119Y-99934794D01*
X126460029Y-100321052D01*
X126369400Y-100776675D01*
X126210600Y-100776675D01*
X126119971Y-100321052D01*
X125861881Y-99934794D01*
X125475623Y-99676704D01*
X125020000Y-99586075D01*
X124564377Y-99676704D01*
X124178119Y-99934794D01*
X123920029Y-100321052D01*
X123829400Y-100776675D01*
X123670600Y-100776675D01*
X123579971Y-100321052D01*
X123321881Y-99934794D01*
X122935623Y-99676704D01*
X122480000Y-99586075D01*
X122024377Y-99676704D01*
X121638119Y-99934794D01*
X121380029Y-100321052D01*
X121289400Y-100776675D01*
X121130600Y-100776675D01*
X121039971Y-100321052D01*
X120781881Y-99934794D01*
X120395623Y-99676704D01*
X119940000Y-99586075D01*
X119484377Y-99676704D01*
X119098119Y-99934794D01*
X118840029Y-100321052D01*
X118749400Y-100776675D01*
X118590600Y-100776675D01*
X118499971Y-100321052D01*
X118241881Y-99934794D01*
X117855623Y-99676704D01*
X117400000Y-99586075D01*
X116944377Y-99676704D01*
X116558119Y-99934794D01*
X116300029Y-100321052D01*
X116209400Y-100776675D01*
X116050600Y-100776675D01*
X115959971Y-100321052D01*
X115701881Y-99934794D01*
X115315623Y-99676704D01*
X114860000Y-99586075D01*
X114404377Y-99676704D01*
X114018119Y-99934794D01*
X113760029Y-100321052D01*
X113669400Y-100776675D01*
X113510600Y-100776675D01*
X113419971Y-100321052D01*
X113161881Y-99934794D01*
X112775623Y-99676704D01*
X112320000Y-99586075D01*
X111864377Y-99676704D01*
X111478119Y-99934794D01*
X111220029Y-100321052D01*
X111129400Y-100776675D01*
X109106885Y-100776675D01*
X108624833Y-99611270D01*
X108623035Y-99608580D01*
X108264135Y-99245470D01*
X106079605Y-101430000D01*
X105720395Y-101430000D01*
X103535865Y-99245470D01*
X103176965Y-99608580D01*
X102687216Y-100789288D01*
X102686585Y-102067538D01*
X99363600Y-102067538D01*
X99363600Y-99065865D01*
X103715470Y-99065865D01*
X105900000Y-101250395D01*
X108084530Y-99065865D01*
X107721420Y-98706965D01*
X107355387Y-98555137D01*
X111268419Y-98555137D01*
X111461410Y-98935094D01*
X111785114Y-99212274D01*
X112024865Y-99311568D01*
X112193000Y-99287229D01*
X112193000Y-98387000D01*
X112447000Y-98387000D01*
X112447000Y-99287229D01*
X112615135Y-99311568D01*
X112854886Y-99212274D01*
X113178590Y-98935094D01*
X113371581Y-98555137D01*
X113347654Y-98387000D01*
X112447000Y-98387000D01*
X112193000Y-98387000D01*
X111292346Y-98387000D01*
X111268419Y-98555137D01*
X107355387Y-98555137D01*
X106587625Y-98236675D01*
X113669400Y-98236675D01*
X113669400Y-98283325D01*
X113760029Y-98738948D01*
X114018119Y-99125206D01*
X114404377Y-99383296D01*
X114860000Y-99473925D01*
X115315623Y-99383296D01*
X115701881Y-99125206D01*
X115959971Y-98738948D01*
X116050600Y-98283325D01*
X116050600Y-98236675D01*
X116209400Y-98236675D01*
X116209400Y-98283325D01*
X116300029Y-98738948D01*
X116558119Y-99125206D01*
X116944377Y-99383296D01*
X117400000Y-99473925D01*
X117855623Y-99383296D01*
X118241881Y-99125206D01*
X118499971Y-98738948D01*
X118590600Y-98283325D01*
X118590600Y-98236675D01*
X118749400Y-98236675D01*
X118749400Y-98283325D01*
X118840029Y-98738948D01*
X119098119Y-99125206D01*
X119484377Y-99383296D01*
X119940000Y-99473925D01*
X120395623Y-99383296D01*
X120781881Y-99125206D01*
X121039971Y-98738948D01*
X121130600Y-98283325D01*
X121130600Y-98236675D01*
X121289400Y-98236675D01*
X121289400Y-98283325D01*
X121380029Y-98738948D01*
X121638119Y-99125206D01*
X122024377Y-99383296D01*
X122480000Y-99473925D01*
X122935623Y-99383296D01*
X123321881Y-99125206D01*
X123579971Y-98738948D01*
X123670600Y-98283325D01*
X123670600Y-98236675D01*
X123829400Y-98236675D01*
X123829400Y-98283325D01*
X123920029Y-98738948D01*
X124178119Y-99125206D01*
X124564377Y-99383296D01*
X125020000Y-99473925D01*
X125475623Y-99383296D01*
X125861881Y-99125206D01*
X126119971Y-98738948D01*
X126210600Y-98283325D01*
X126210600Y-98236675D01*
X126369400Y-98236675D01*
X126369400Y-98283325D01*
X126460029Y-98738948D01*
X126718119Y-99125206D01*
X127104377Y-99383296D01*
X127560000Y-99473925D01*
X128015623Y-99383296D01*
X128401881Y-99125206D01*
X128659971Y-98738948D01*
X128750600Y-98283325D01*
X128750600Y-98236675D01*
X128659971Y-97781052D01*
X128402955Y-97396400D01*
X128902994Y-97396400D01*
X128902994Y-99123600D01*
X128928373Y-99251189D01*
X129000646Y-99359354D01*
X129108811Y-99431627D01*
X129236400Y-99457006D01*
X130963600Y-99457006D01*
X131091189Y-99431627D01*
X131199354Y-99359354D01*
X131271627Y-99251189D01*
X131297006Y-99123600D01*
X131297006Y-99065865D01*
X161742659Y-99065865D01*
X163927189Y-101250395D01*
X166111719Y-99065865D01*
X165748609Y-98706965D01*
X164567901Y-98217216D01*
X163289651Y-98216585D01*
X162108459Y-98705167D01*
X162105769Y-98706965D01*
X161742659Y-99065865D01*
X131297006Y-99065865D01*
X131297006Y-97396400D01*
X131271627Y-97268811D01*
X131199354Y-97160646D01*
X131091189Y-97088373D01*
X130963600Y-97062994D01*
X129236400Y-97062994D01*
X129108811Y-97088373D01*
X129000646Y-97160646D01*
X128928373Y-97268811D01*
X128902994Y-97396400D01*
X128402955Y-97396400D01*
X128401881Y-97394794D01*
X128015623Y-97136704D01*
X127560000Y-97046075D01*
X127104377Y-97136704D01*
X126718119Y-97394794D01*
X126460029Y-97781052D01*
X126369400Y-98236675D01*
X126210600Y-98236675D01*
X126119971Y-97781052D01*
X125861881Y-97394794D01*
X125475623Y-97136704D01*
X125020000Y-97046075D01*
X124564377Y-97136704D01*
X124178119Y-97394794D01*
X123920029Y-97781052D01*
X123829400Y-98236675D01*
X123670600Y-98236675D01*
X123579971Y-97781052D01*
X123321881Y-97394794D01*
X122935623Y-97136704D01*
X122480000Y-97046075D01*
X122024377Y-97136704D01*
X121638119Y-97394794D01*
X121380029Y-97781052D01*
X121289400Y-98236675D01*
X121130600Y-98236675D01*
X121039971Y-97781052D01*
X120781881Y-97394794D01*
X120395623Y-97136704D01*
X119940000Y-97046075D01*
X119484377Y-97136704D01*
X119098119Y-97394794D01*
X118840029Y-97781052D01*
X118749400Y-98236675D01*
X118590600Y-98236675D01*
X118499971Y-97781052D01*
X118241881Y-97394794D01*
X117855623Y-97136704D01*
X117400000Y-97046075D01*
X116944377Y-97136704D01*
X116558119Y-97394794D01*
X116300029Y-97781052D01*
X116209400Y-98236675D01*
X116050600Y-98236675D01*
X115959971Y-97781052D01*
X115701881Y-97394794D01*
X115315623Y-97136704D01*
X114860000Y-97046075D01*
X114404377Y-97136704D01*
X114018119Y-97394794D01*
X113760029Y-97781052D01*
X113669400Y-98236675D01*
X106587625Y-98236675D01*
X106540712Y-98217216D01*
X105262462Y-98216585D01*
X104081270Y-98705167D01*
X104078580Y-98706965D01*
X103715470Y-99065865D01*
X99363600Y-99065865D01*
X99363600Y-97964863D01*
X111268419Y-97964863D01*
X111292346Y-98133000D01*
X112193000Y-98133000D01*
X112193000Y-97232771D01*
X112447000Y-97232771D01*
X112447000Y-98133000D01*
X113347654Y-98133000D01*
X113371581Y-97964863D01*
X113178590Y-97584906D01*
X112854886Y-97307726D01*
X112615135Y-97208432D01*
X112447000Y-97232771D01*
X112193000Y-97232771D01*
X112024865Y-97208432D01*
X111785114Y-97307726D01*
X111461410Y-97584906D01*
X111268419Y-97964863D01*
X99363600Y-97964863D01*
X99363600Y-97289900D01*
X99466256Y-96773817D01*
X99741654Y-96361654D01*
X100153821Y-96086254D01*
X100669900Y-95983600D01*
X169140100Y-95983600D01*
X169656183Y-96086256D01*
X169656183Y-96086256D01*
G37*
X169656183Y-96086256D02*
X170068346Y-96361654D01*
X170343746Y-96773821D01*
X170446400Y-97289900D01*
X170446400Y-110358131D01*
X170422350Y-110334039D01*
X170155244Y-110223126D01*
X169866025Y-110222874D01*
X169598725Y-110333320D01*
X169394039Y-110537650D01*
X169283126Y-110804756D01*
X169282874Y-111093975D01*
X169393320Y-111361275D01*
X169597650Y-111565961D01*
X169746000Y-111627562D01*
X169746000Y-122272994D01*
X167824000Y-122272994D01*
X167696411Y-122298373D01*
X167588246Y-122370646D01*
X167515973Y-122478811D01*
X167490594Y-122606400D01*
X167490594Y-124333600D01*
X167515973Y-124461189D01*
X167588246Y-124569354D01*
X167696411Y-124641627D01*
X167824000Y-124667006D01*
X169746000Y-124667006D01*
X169746000Y-125091551D01*
X169474334Y-124910029D01*
X169018711Y-124819400D01*
X168661289Y-124819400D01*
X168205666Y-124910029D01*
X167819408Y-125168119D01*
X167561318Y-125554377D01*
X167470689Y-126010000D01*
X167561318Y-126465623D01*
X167819408Y-126851881D01*
X168205666Y-127109971D01*
X168661289Y-127200600D01*
X169018711Y-127200600D01*
X169474334Y-127109971D01*
X169746000Y-126928449D01*
X169746000Y-127784029D01*
X169542186Y-127604219D01*
X169138401Y-127465818D01*
X168967000Y-127513477D01*
X168967000Y-128423000D01*
X168987000Y-128423000D01*
X168987000Y-128677000D01*
X168967000Y-128677000D01*
X168967000Y-129586523D01*
X169138401Y-129634182D01*
X169542186Y-129495781D01*
X169746000Y-129315971D01*
X169746000Y-130171551D01*
X169474334Y-129990029D01*
X169018711Y-129899400D01*
X168661289Y-129899400D01*
X168205666Y-129990029D01*
X167819408Y-130248119D01*
X167561318Y-130634377D01*
X167470689Y-131090000D01*
X167561318Y-131545623D01*
X167819408Y-131931881D01*
X168205666Y-132189971D01*
X168661289Y-132280600D01*
X169018711Y-132280600D01*
X169474334Y-132189971D01*
X169860592Y-131931881D01*
X170118682Y-131545623D01*
X170139106Y-131442946D01*
X170446400Y-131135653D01*
X170446400Y-149050100D01*
X170343746Y-149566179D01*
X170068346Y-149978346D01*
X169656183Y-150253744D01*
X169140100Y-150356400D01*
X156744864Y-150356400D01*
X157472632Y-149628632D01*
X157626107Y-149398940D01*
X157642685Y-149315595D01*
X157813881Y-149201206D01*
X157875412Y-149109118D01*
X167637007Y-149109118D01*
X167763695Y-149415001D01*
X168084801Y-149779310D01*
X168520880Y-149993005D01*
X168713000Y-149970965D01*
X168713000Y-148917000D01*
X168967000Y-148917000D01*
X168967000Y-149970965D01*
X169159120Y-149993005D01*
X169595199Y-149779310D01*
X169916305Y-149415001D01*
X170042993Y-149109118D01*
X170020639Y-148917000D01*
X168967000Y-148917000D01*
X168713000Y-148917000D01*
X167659361Y-148917000D01*
X167637007Y-149109118D01*
X157875412Y-149109118D01*
X158071971Y-148814948D01*
X158162600Y-148359325D01*
X158162600Y-148312675D01*
X158071971Y-147857052D01*
X157813881Y-147470794D01*
X157526745Y-147278935D01*
X161729070Y-147278935D01*
X162092180Y-147637835D01*
X163272888Y-148127584D01*
X164551138Y-148128215D01*
X165732330Y-147639633D01*
X165735020Y-147637835D01*
X166098130Y-147278935D01*
X163913600Y-145094405D01*
X161729070Y-147278935D01*
X157526745Y-147278935D01*
X157427623Y-147212704D01*
X156972000Y-147122075D01*
X156516377Y-147212704D01*
X156130119Y-147470794D01*
X155872029Y-147857052D01*
X155781400Y-148312675D01*
X155781400Y-148359325D01*
X155872029Y-148814948D01*
X156036957Y-149061779D01*
X155906736Y-149192000D01*
X155280032Y-149192000D01*
X155531971Y-148814948D01*
X155622600Y-148359325D01*
X155622600Y-148312675D01*
X155531971Y-147857052D01*
X155273881Y-147470794D01*
X154887623Y-147212704D01*
X154432000Y-147122075D01*
X153976377Y-147212704D01*
X153590119Y-147470794D01*
X153332029Y-147857052D01*
X153241400Y-148312675D01*
X153241400Y-148359325D01*
X153332029Y-148814948D01*
X153583968Y-149192000D01*
X152740032Y-149192000D01*
X152991971Y-148814948D01*
X153082600Y-148359325D01*
X153082600Y-148312675D01*
X152991971Y-147857052D01*
X152733881Y-147470794D01*
X152347623Y-147212704D01*
X151892000Y-147122075D01*
X151436377Y-147212704D01*
X151050119Y-147470794D01*
X150792029Y-147857052D01*
X150701400Y-148312675D01*
X150701400Y-148359325D01*
X150792029Y-148814948D01*
X151043968Y-149192000D01*
X150200032Y-149192000D01*
X150451971Y-148814948D01*
X150542600Y-148359325D01*
X150542600Y-148312675D01*
X150451971Y-147857052D01*
X150193881Y-147470794D01*
X149807623Y-147212704D01*
X149352000Y-147122075D01*
X148896377Y-147212704D01*
X148510119Y-147470794D01*
X148252029Y-147857052D01*
X148161400Y-148312675D01*
X148161400Y-148359325D01*
X148252029Y-148814948D01*
X148503968Y-149192000D01*
X147660032Y-149192000D01*
X147911971Y-148814948D01*
X148002600Y-148359325D01*
X148002600Y-148312675D01*
X147911971Y-147857052D01*
X147653881Y-147470794D01*
X147267623Y-147212704D01*
X146812000Y-147122075D01*
X146356377Y-147212704D01*
X145970119Y-147470794D01*
X145712029Y-147857052D01*
X145621400Y-148312675D01*
X145621400Y-148359325D01*
X145712029Y-148814948D01*
X145963968Y-149192000D01*
X145120032Y-149192000D01*
X145371971Y-148814948D01*
X145462600Y-148359325D01*
X145462600Y-148312675D01*
X145371971Y-147857052D01*
X145113881Y-147470794D01*
X144727623Y-147212704D01*
X144272000Y-147122075D01*
X143816377Y-147212704D01*
X143430119Y-147470794D01*
X143172029Y-147857052D01*
X143081400Y-148312675D01*
X143081400Y-148359325D01*
X143172029Y-148814948D01*
X143423968Y-149192000D01*
X142580032Y-149192000D01*
X142831971Y-148814948D01*
X142922600Y-148359325D01*
X142922600Y-148312675D01*
X142831971Y-147857052D01*
X142573881Y-147470794D01*
X142187623Y-147212704D01*
X141732000Y-147122075D01*
X141276377Y-147212704D01*
X140890119Y-147470794D01*
X140632029Y-147857052D01*
X140541400Y-148312675D01*
X140541400Y-148359325D01*
X140632029Y-148814948D01*
X140883968Y-149192000D01*
X140040032Y-149192000D01*
X140291971Y-148814948D01*
X140382600Y-148359325D01*
X140382600Y-148312675D01*
X140291971Y-147857052D01*
X140033881Y-147470794D01*
X139647623Y-147212704D01*
X139192000Y-147122075D01*
X138736377Y-147212704D01*
X138350119Y-147470794D01*
X138092029Y-147857052D01*
X138001400Y-148312675D01*
X138001400Y-148359325D01*
X138092029Y-148814948D01*
X138343968Y-149192000D01*
X137500032Y-149192000D01*
X137751971Y-148814948D01*
X137842600Y-148359325D01*
X137842600Y-148312675D01*
X137751971Y-147857052D01*
X137493881Y-147470794D01*
X137107623Y-147212704D01*
X136652000Y-147122075D01*
X136196377Y-147212704D01*
X135810119Y-147470794D01*
X135552029Y-147857052D01*
X135461400Y-148312675D01*
X135461400Y-148359325D01*
X135552029Y-148814948D01*
X135803968Y-149192000D01*
X134759319Y-149192000D01*
X134970590Y-149011094D01*
X135163581Y-148631137D01*
X135139654Y-148463000D01*
X134239000Y-148463000D01*
X134239000Y-148483000D01*
X133985000Y-148483000D01*
X133985000Y-148463000D01*
X133084346Y-148463000D01*
X133081844Y-148480580D01*
X133008000Y-148406736D01*
X133008000Y-148040863D01*
X133060419Y-148040863D01*
X133084346Y-148209000D01*
X133985000Y-148209000D01*
X133985000Y-147308771D01*
X134239000Y-147308771D01*
X134239000Y-148209000D01*
X135139654Y-148209000D01*
X135163581Y-148040863D01*
X134970590Y-147660906D01*
X134646886Y-147383726D01*
X134407135Y-147284432D01*
X134239000Y-147308771D01*
X133985000Y-147308771D01*
X133816865Y-147284432D01*
X133577114Y-147383726D01*
X133253410Y-147660906D01*
X133060419Y-148040863D01*
X133008000Y-148040863D01*
X133008000Y-146993264D01*
X133312044Y-146689220D01*
X133656377Y-146919296D01*
X134112000Y-147009925D01*
X134567623Y-146919296D01*
X134953881Y-146661206D01*
X135211971Y-146274948D01*
X135302600Y-145819325D01*
X135302600Y-145772675D01*
X135461400Y-145772675D01*
X135461400Y-145819325D01*
X135552029Y-146274948D01*
X135810119Y-146661206D01*
X136196377Y-146919296D01*
X136652000Y-147009925D01*
X137107623Y-146919296D01*
X137493881Y-146661206D01*
X137751971Y-146274948D01*
X137842600Y-145819325D01*
X137842600Y-145772675D01*
X138001400Y-145772675D01*
X138001400Y-145819325D01*
X138092029Y-146274948D01*
X138350119Y-146661206D01*
X138736377Y-146919296D01*
X139192000Y-147009925D01*
X139647623Y-146919296D01*
X140033881Y-146661206D01*
X140291971Y-146274948D01*
X140382600Y-145819325D01*
X140382600Y-145772675D01*
X140541400Y-145772675D01*
X140541400Y-145819325D01*
X140632029Y-146274948D01*
X140890119Y-146661206D01*
X141276377Y-146919296D01*
X141732000Y-147009925D01*
X142187623Y-146919296D01*
X142573881Y-146661206D01*
X142831971Y-146274948D01*
X142922600Y-145819325D01*
X142922600Y-145772675D01*
X143081400Y-145772675D01*
X143081400Y-145819325D01*
X143172029Y-146274948D01*
X143430119Y-146661206D01*
X143816377Y-146919296D01*
X144272000Y-147009925D01*
X144727623Y-146919296D01*
X145113881Y-146661206D01*
X145371971Y-146274948D01*
X145462600Y-145819325D01*
X145462600Y-145772675D01*
X145621400Y-145772675D01*
X145621400Y-145819325D01*
X145712029Y-146274948D01*
X145970119Y-146661206D01*
X146356377Y-146919296D01*
X146812000Y-147009925D01*
X147267623Y-146919296D01*
X147653881Y-146661206D01*
X147911971Y-146274948D01*
X147948533Y-146091137D01*
X148300419Y-146091137D01*
X148493410Y-146471094D01*
X148817114Y-146748274D01*
X149056865Y-146847568D01*
X149225000Y-146823229D01*
X149225000Y-145923000D01*
X149479000Y-145923000D01*
X149479000Y-146823229D01*
X149647135Y-146847568D01*
X149886886Y-146748274D01*
X150210590Y-146471094D01*
X150403581Y-146091137D01*
X150379654Y-145923000D01*
X149479000Y-145923000D01*
X149225000Y-145923000D01*
X148324346Y-145923000D01*
X148300419Y-146091137D01*
X147948533Y-146091137D01*
X148002600Y-145819325D01*
X148002600Y-145772675D01*
X150701400Y-145772675D01*
X150701400Y-145819325D01*
X150792029Y-146274948D01*
X151050119Y-146661206D01*
X151436377Y-146919296D01*
X151892000Y-147009925D01*
X152347623Y-146919296D01*
X152733881Y-146661206D01*
X152991971Y-146274948D01*
X153082600Y-145819325D01*
X153082600Y-145772675D01*
X153241400Y-145772675D01*
X153241400Y-145819325D01*
X153332029Y-146274948D01*
X153590119Y-146661206D01*
X153976377Y-146919296D01*
X154432000Y-147009925D01*
X154887623Y-146919296D01*
X155273881Y-146661206D01*
X155531971Y-146274948D01*
X155590609Y-145980150D01*
X155879800Y-145980150D01*
X155879800Y-146705071D01*
X155914602Y-146789091D01*
X155978908Y-146853397D01*
X156062928Y-146888200D01*
X156787850Y-146888200D01*
X156845000Y-146831050D01*
X156845000Y-145923000D01*
X157099000Y-145923000D01*
X157099000Y-146831050D01*
X157156150Y-146888200D01*
X157881072Y-146888200D01*
X157965092Y-146853397D01*
X158029398Y-146789091D01*
X158064200Y-146705071D01*
X158064200Y-145980150D01*
X158007050Y-145923000D01*
X157099000Y-145923000D01*
X156845000Y-145923000D01*
X155936950Y-145923000D01*
X155879800Y-145980150D01*
X155590609Y-145980150D01*
X155622600Y-145819325D01*
X155622600Y-145772675D01*
X155531971Y-145317052D01*
X155273881Y-144930794D01*
X155208233Y-144886929D01*
X155879800Y-144886929D01*
X155879800Y-145611850D01*
X155936950Y-145669000D01*
X156845000Y-145669000D01*
X156845000Y-144760950D01*
X157099000Y-144760950D01*
X157099000Y-145669000D01*
X158007050Y-145669000D01*
X158064200Y-145611850D01*
X158064200Y-145552338D01*
X160700185Y-145552338D01*
X161188767Y-146733530D01*
X161190565Y-146736220D01*
X161549465Y-147099330D01*
X163733995Y-144914800D01*
X164093205Y-144914800D01*
X166277735Y-147099330D01*
X166636635Y-146736220D01*
X167126384Y-145555512D01*
X167126542Y-145234000D01*
X167490594Y-145234000D01*
X167490594Y-147266000D01*
X167515973Y-147393589D01*
X167588246Y-147501754D01*
X167696411Y-147574027D01*
X167824000Y-147599406D01*
X168495553Y-147599406D01*
X168084801Y-147800690D01*
X167763695Y-148164999D01*
X167637007Y-148470882D01*
X167659361Y-148663000D01*
X168713000Y-148663000D01*
X168713000Y-148643000D01*
X168967000Y-148643000D01*
X168967000Y-148663000D01*
X170020639Y-148663000D01*
X170042993Y-148470882D01*
X169916305Y-148164999D01*
X169595199Y-147800690D01*
X169184447Y-147599406D01*
X169856000Y-147599406D01*
X169983589Y-147574027D01*
X170091754Y-147501754D01*
X170164027Y-147393589D01*
X170189406Y-147266000D01*
X170189406Y-145234000D01*
X170164027Y-145106411D01*
X170091754Y-144998246D01*
X169983589Y-144925973D01*
X169856000Y-144900594D01*
X167824000Y-144900594D01*
X167696411Y-144925973D01*
X167588246Y-144998246D01*
X167515973Y-145106411D01*
X167490594Y-145234000D01*
X167126542Y-145234000D01*
X167127015Y-144277262D01*
X166638433Y-143096070D01*
X166636635Y-143093380D01*
X166548170Y-143003877D01*
X167582866Y-143003877D01*
X167700908Y-143289560D01*
X167919290Y-143508324D01*
X168204767Y-143626865D01*
X168513877Y-143627134D01*
X168799560Y-143509092D01*
X169018324Y-143290710D01*
X169136865Y-143005233D01*
X169137134Y-142696123D01*
X169019092Y-142410440D01*
X168800710Y-142191676D01*
X168515233Y-142073135D01*
X168206123Y-142072866D01*
X167920440Y-142190908D01*
X167701676Y-142409290D01*
X167583135Y-142694767D01*
X167582866Y-143003877D01*
X166548170Y-143003877D01*
X166277735Y-142730270D01*
X164093205Y-144914800D01*
X163733995Y-144914800D01*
X161549465Y-142730270D01*
X161190565Y-143093380D01*
X160700816Y-144274088D01*
X160700185Y-145552338D01*
X158064200Y-145552338D01*
X158064200Y-144886929D01*
X158029398Y-144802909D01*
X157965092Y-144738603D01*
X157881072Y-144703800D01*
X157156150Y-144703800D01*
X157099000Y-144760950D01*
X156845000Y-144760950D01*
X156787850Y-144703800D01*
X156062928Y-144703800D01*
X155978908Y-144738603D01*
X155914602Y-144802909D01*
X155879800Y-144886929D01*
X155208233Y-144886929D01*
X154887623Y-144672704D01*
X154432000Y-144582075D01*
X153976377Y-144672704D01*
X153590119Y-144930794D01*
X153332029Y-145317052D01*
X153241400Y-145772675D01*
X153082600Y-145772675D01*
X152991971Y-145317052D01*
X152733881Y-144930794D01*
X152347623Y-144672704D01*
X151892000Y-144582075D01*
X151436377Y-144672704D01*
X151050119Y-144930794D01*
X150792029Y-145317052D01*
X150701400Y-145772675D01*
X148002600Y-145772675D01*
X147948534Y-145500863D01*
X148300419Y-145500863D01*
X148324346Y-145669000D01*
X149225000Y-145669000D01*
X149225000Y-144768771D01*
X149479000Y-144768771D01*
X149479000Y-145669000D01*
X150379654Y-145669000D01*
X150403581Y-145500863D01*
X150210590Y-145120906D01*
X149886886Y-144843726D01*
X149647135Y-144744432D01*
X149479000Y-144768771D01*
X149225000Y-144768771D01*
X149056865Y-144744432D01*
X148817114Y-144843726D01*
X148493410Y-145120906D01*
X148300419Y-145500863D01*
X147948534Y-145500863D01*
X147911971Y-145317052D01*
X147653881Y-144930794D01*
X147267623Y-144672704D01*
X146812000Y-144582075D01*
X146356377Y-144672704D01*
X145970119Y-144930794D01*
X145712029Y-145317052D01*
X145621400Y-145772675D01*
X145462600Y-145772675D01*
X145371971Y-145317052D01*
X145113881Y-144930794D01*
X144727623Y-144672704D01*
X144272000Y-144582075D01*
X143816377Y-144672704D01*
X143430119Y-144930794D01*
X143172029Y-145317052D01*
X143081400Y-145772675D01*
X142922600Y-145772675D01*
X142831971Y-145317052D01*
X142573881Y-144930794D01*
X142187623Y-144672704D01*
X141732000Y-144582075D01*
X141276377Y-144672704D01*
X140890119Y-144930794D01*
X140632029Y-145317052D01*
X140541400Y-145772675D01*
X140382600Y-145772675D01*
X140291971Y-145317052D01*
X140033881Y-144930794D01*
X139647623Y-144672704D01*
X139192000Y-144582075D01*
X138736377Y-144672704D01*
X138350119Y-144930794D01*
X138092029Y-145317052D01*
X138001400Y-145772675D01*
X137842600Y-145772675D01*
X137751971Y-145317052D01*
X137493881Y-144930794D01*
X137107623Y-144672704D01*
X136652000Y-144582075D01*
X136196377Y-144672704D01*
X135810119Y-144930794D01*
X135552029Y-145317052D01*
X135461400Y-145772675D01*
X135302600Y-145772675D01*
X135211971Y-145317052D01*
X134953881Y-144930794D01*
X134567623Y-144672704D01*
X134112000Y-144582075D01*
X133656377Y-144672704D01*
X133270119Y-144930794D01*
X133159112Y-145096928D01*
X132933060Y-145141893D01*
X132703368Y-145295368D01*
X131799368Y-146199368D01*
X131645893Y-146429060D01*
X131591999Y-146700000D01*
X131592000Y-146700005D01*
X131592000Y-148699995D01*
X131591999Y-148700000D01*
X131645893Y-148970940D01*
X131799368Y-149200632D01*
X132955137Y-150356400D01*
X100669900Y-150356400D01*
X100153821Y-150253746D01*
X99741654Y-149978346D01*
X99466256Y-149566183D01*
X99363600Y-149050100D01*
X99363600Y-148305514D01*
X113837833Y-148305514D01*
X113983980Y-148659217D01*
X114254359Y-148930069D01*
X114607807Y-149076833D01*
X114990514Y-149077167D01*
X115344217Y-148931020D01*
X115615069Y-148660641D01*
X115761833Y-148307193D01*
X115762167Y-147924486D01*
X115725063Y-147834685D01*
X119580725Y-147834685D01*
X119822126Y-148418920D01*
X120268729Y-148866303D01*
X120852542Y-149108723D01*
X121484685Y-149109275D01*
X122068920Y-148867874D01*
X122516303Y-148421271D01*
X122758723Y-147837458D01*
X122759275Y-147205315D01*
X122517874Y-146621080D01*
X122071271Y-146173697D01*
X121487458Y-145931277D01*
X120855315Y-145930725D01*
X120271080Y-146172126D01*
X119823697Y-146618729D01*
X119581277Y-147202542D01*
X119580725Y-147834685D01*
X115725063Y-147834685D01*
X115616020Y-147570783D01*
X115345641Y-147299931D01*
X114992193Y-147153167D01*
X114609486Y-147152833D01*
X114255783Y-147298980D01*
X113984931Y-147569359D01*
X113838167Y-147922807D01*
X113837833Y-148305514D01*
X99363600Y-148305514D01*
X99363600Y-147278935D01*
X103715470Y-147278935D01*
X104078580Y-147637835D01*
X105259288Y-148127584D01*
X106537538Y-148128215D01*
X107718730Y-147639633D01*
X107721420Y-147637835D01*
X108084530Y-147278935D01*
X105900000Y-145094405D01*
X103715470Y-147278935D01*
X99363600Y-147278935D01*
X99363600Y-145552338D01*
X102686585Y-145552338D01*
X103175167Y-146733530D01*
X103176965Y-146736220D01*
X103535865Y-147099330D01*
X105720395Y-144914800D01*
X106079605Y-144914800D01*
X108264135Y-147099330D01*
X108623035Y-146736220D01*
X109112784Y-145555512D01*
X109113415Y-144277262D01*
X108624833Y-143096070D01*
X108623035Y-143093380D01*
X108264135Y-142730270D01*
X106079605Y-144914800D01*
X105720395Y-144914800D01*
X103535865Y-142730270D01*
X103176965Y-143093380D01*
X102687216Y-144274088D01*
X102686585Y-145552338D01*
X99363600Y-145552338D01*
X99363600Y-142550665D01*
X103715470Y-142550665D01*
X105900000Y-144735195D01*
X108084530Y-142550665D01*
X161729070Y-142550665D01*
X163913600Y-144735195D01*
X166098130Y-142550665D01*
X165735020Y-142191765D01*
X164554312Y-141702016D01*
X163276062Y-141701385D01*
X162094870Y-142189967D01*
X162092180Y-142191765D01*
X161729070Y-142550665D01*
X108084530Y-142550665D01*
X107721420Y-142191765D01*
X106540712Y-141702016D01*
X105262462Y-141701385D01*
X104081270Y-142189967D01*
X104078580Y-142191765D01*
X103715470Y-142550665D01*
X99363600Y-142550665D01*
X99363600Y-136203877D01*
X167582866Y-136203877D01*
X167700908Y-136489560D01*
X167919290Y-136708324D01*
X168204767Y-136826865D01*
X168513877Y-136827134D01*
X168799560Y-136709092D01*
X169018324Y-136490710D01*
X169136865Y-136205233D01*
X169137134Y-135896123D01*
X169019092Y-135610440D01*
X168800710Y-135391676D01*
X168515233Y-135273135D01*
X168206123Y-135272866D01*
X167920440Y-135390908D01*
X167701676Y-135609290D01*
X167583135Y-135894767D01*
X167582866Y-136203877D01*
X99363600Y-136203877D01*
X99363600Y-134980212D01*
X139761877Y-134980212D01*
X139869436Y-135240526D01*
X140068426Y-135439864D01*
X140328552Y-135547877D01*
X140610212Y-135548123D01*
X140870526Y-135440564D01*
X141017346Y-135294000D01*
X141522817Y-135294000D01*
X141668426Y-135439864D01*
X141928552Y-135547877D01*
X142210212Y-135548123D01*
X142470526Y-135440564D01*
X142669864Y-135241574D01*
X142777877Y-134981448D01*
X142778123Y-134699788D01*
X142670564Y-134439474D01*
X142471574Y-134240136D01*
X142211448Y-134132123D01*
X141929788Y-134131877D01*
X141669474Y-134239436D01*
X141522654Y-134386000D01*
X141017183Y-134386000D01*
X140871574Y-134240136D01*
X140611448Y-134132123D01*
X140329788Y-134131877D01*
X140069474Y-134239436D01*
X139870136Y-134438426D01*
X139762123Y-134698552D01*
X139761877Y-134980212D01*
X99363600Y-134980212D01*
X99363600Y-122000212D01*
X136601877Y-122000212D01*
X136709436Y-122260526D01*
X136908426Y-122459864D01*
X137168552Y-122567877D01*
X137376006Y-122568058D01*
X138748974Y-123941027D01*
X138896262Y-124039441D01*
X139070000Y-124074000D01*
X145300000Y-124074000D01*
X145473738Y-124039441D01*
X145621026Y-123941026D01*
X146160028Y-123402025D01*
X146162750Y-123397951D01*
X146360212Y-123398123D01*
X146386000Y-123387468D01*
X146386000Y-129772817D01*
X146240136Y-129918426D01*
X146132123Y-130178552D01*
X146131877Y-130460212D01*
X146179719Y-130576000D01*
X143308053Y-130576000D01*
X142371026Y-129638974D01*
X142223738Y-129540559D01*
X142050000Y-129506000D01*
X140187183Y-129506000D01*
X140041574Y-129360136D01*
X139781448Y-129252123D01*
X139499788Y-129251877D01*
X139239474Y-129359436D01*
X139040136Y-129558426D01*
X138932123Y-129818552D01*
X138931877Y-130100212D01*
X139039436Y-130360526D01*
X139238426Y-130559864D01*
X139498552Y-130667877D01*
X139780212Y-130668123D01*
X140040526Y-130560564D01*
X140187346Y-130414000D01*
X141861948Y-130414000D01*
X142553947Y-131106000D01*
X140887183Y-131106000D01*
X140741574Y-130960136D01*
X140481448Y-130852123D01*
X140199788Y-130851877D01*
X139939474Y-130959436D01*
X139740136Y-131158426D01*
X139632123Y-131418552D01*
X139631877Y-131700212D01*
X139739436Y-131960526D01*
X139938426Y-132159864D01*
X140198552Y-132267877D01*
X140480212Y-132268123D01*
X140740526Y-132160564D01*
X140887346Y-132014000D01*
X147840000Y-132014000D01*
X148013738Y-131979441D01*
X148161026Y-131881026D01*
X148914110Y-131127943D01*
X149099842Y-131128105D01*
X147471948Y-132756000D01*
X141417183Y-132756000D01*
X141271574Y-132610136D01*
X141011448Y-132502123D01*
X140729788Y-132501877D01*
X140469474Y-132609436D01*
X140270136Y-132808426D01*
X140162123Y-133068552D01*
X140161877Y-133350212D01*
X140269436Y-133610526D01*
X140468426Y-133809864D01*
X140728552Y-133917877D01*
X141010212Y-133918123D01*
X141270526Y-133810564D01*
X141417346Y-133664000D01*
X147660000Y-133664000D01*
X147830927Y-133630000D01*
X167470689Y-133630000D01*
X167561318Y-134085623D01*
X167819408Y-134471881D01*
X168205666Y-134729971D01*
X168661289Y-134820600D01*
X169018711Y-134820600D01*
X169474334Y-134729971D01*
X169860592Y-134471881D01*
X170118682Y-134085623D01*
X170209311Y-133630000D01*
X170118682Y-133174377D01*
X169860592Y-132788119D01*
X169474334Y-132530029D01*
X169018711Y-132439400D01*
X168661289Y-132439400D01*
X168205666Y-132530029D01*
X167819408Y-132788119D01*
X167561318Y-133174377D01*
X167470689Y-133630000D01*
X147830927Y-133630000D01*
X147833738Y-133629441D01*
X147981026Y-133531026D01*
X150980371Y-130531682D01*
X151078786Y-130384394D01*
X151090028Y-130327877D01*
X151113345Y-130210655D01*
X151113345Y-127512250D01*
X161867355Y-127512250D01*
X161985300Y-127662127D01*
X162438550Y-127816513D01*
X162916379Y-127785696D01*
X163214700Y-127662127D01*
X163332645Y-127512250D01*
X162600000Y-126779605D01*
X161867355Y-127512250D01*
X151113345Y-127512250D01*
X151113345Y-126438550D01*
X161383487Y-126438550D01*
X161414304Y-126916379D01*
X161537873Y-127214700D01*
X161687750Y-127332645D01*
X162420395Y-126600000D01*
X162779605Y-126600000D01*
X163512250Y-127332645D01*
X163662127Y-127214700D01*
X163816513Y-126761450D01*
X163785696Y-126283621D01*
X163662127Y-125985300D01*
X163512250Y-125867355D01*
X162779605Y-126600000D01*
X162420395Y-126600000D01*
X161687750Y-125867355D01*
X161537873Y-125985300D01*
X161383487Y-126438550D01*
X151113345Y-126438550D01*
X151113345Y-125687750D01*
X161867355Y-125687750D01*
X162600000Y-126420395D01*
X163332645Y-125687750D01*
X163214700Y-125537873D01*
X162761450Y-125383487D01*
X162283621Y-125414304D01*
X161985300Y-125537873D01*
X161867355Y-125687750D01*
X151113345Y-125687750D01*
X151113345Y-125326528D01*
X151259209Y-125180919D01*
X151367222Y-124920793D01*
X151367468Y-124639133D01*
X151259909Y-124378819D01*
X151113345Y-124231999D01*
X151113345Y-120818707D01*
X152102025Y-119830028D01*
X152200440Y-119682739D01*
X152201034Y-119679751D01*
X152234999Y-119509001D01*
X152234999Y-118270999D01*
X152200440Y-118097261D01*
X152156465Y-118031448D01*
X152107940Y-117958825D01*
X152108123Y-117749788D01*
X152000564Y-117489474D01*
X151845361Y-117334000D01*
X153451948Y-117334000D01*
X154202057Y-118084110D01*
X154201877Y-118290212D01*
X154248084Y-118402041D01*
X154059788Y-118401877D01*
X153799474Y-118509436D01*
X153600136Y-118708426D01*
X153492123Y-118968552D01*
X153491877Y-119250212D01*
X153599436Y-119510526D01*
X153746000Y-119657346D01*
X153746000Y-121902834D01*
X153590136Y-122058426D01*
X153482123Y-122318552D01*
X153481877Y-122600212D01*
X153589436Y-122860526D01*
X153788426Y-123059864D01*
X154048552Y-123167877D01*
X154330212Y-123168123D01*
X154590526Y-123060564D01*
X154789864Y-122861574D01*
X154897877Y-122601448D01*
X154898005Y-122453975D01*
X158972874Y-122453975D01*
X159083320Y-122721275D01*
X159287650Y-122925961D01*
X159554756Y-123036874D01*
X159843975Y-123037126D01*
X160111275Y-122926680D01*
X160315961Y-122722350D01*
X160426874Y-122455244D01*
X160427075Y-122224977D01*
X160648077Y-122003975D01*
X165612874Y-122003975D01*
X165723320Y-122271275D01*
X165886000Y-122434238D01*
X165886000Y-127126905D01*
X165903464Y-127214700D01*
X165920559Y-127300643D01*
X166018974Y-127447931D01*
X166482591Y-127911548D01*
X166423126Y-128054756D01*
X166422874Y-128343975D01*
X166533320Y-128611275D01*
X166737650Y-128815961D01*
X167004756Y-128926874D01*
X167293975Y-128927126D01*
X167561275Y-128816680D01*
X167653475Y-128724641D01*
X167636032Y-128845135D01*
X167817729Y-129213394D01*
X168137814Y-129495781D01*
X168541599Y-129634182D01*
X168713000Y-129586523D01*
X168713000Y-128677000D01*
X168693000Y-128677000D01*
X168693000Y-128423000D01*
X168713000Y-128423000D01*
X168713000Y-127513477D01*
X168541599Y-127465818D01*
X168137814Y-127604219D01*
X167817729Y-127886606D01*
X167811957Y-127898304D01*
X167766680Y-127788725D01*
X167562350Y-127584039D01*
X167351727Y-127496580D01*
X166794000Y-126938853D01*
X166794000Y-122434029D01*
X166955961Y-122272350D01*
X167066874Y-122005244D01*
X167067126Y-121716025D01*
X166956680Y-121448725D01*
X166752350Y-121244039D01*
X166485244Y-121133126D01*
X166196025Y-121132874D01*
X165928725Y-121243320D01*
X165724039Y-121447650D01*
X165613126Y-121714756D01*
X165612874Y-122003975D01*
X160648077Y-122003975D01*
X161655393Y-120996659D01*
X161861513Y-121203139D01*
X162339880Y-121401774D01*
X162857848Y-121402226D01*
X163336560Y-121204426D01*
X163703139Y-120838487D01*
X163901774Y-120360120D01*
X163902226Y-119842152D01*
X163735505Y-119438655D01*
X167546218Y-119438655D01*
X167706281Y-119826037D01*
X168002404Y-120122678D01*
X168389507Y-120283416D01*
X168808655Y-120283782D01*
X169196037Y-120123719D01*
X169492678Y-119827596D01*
X169653416Y-119440493D01*
X169653782Y-119021345D01*
X169493719Y-118633963D01*
X169197596Y-118337322D01*
X168810493Y-118176584D01*
X168391345Y-118176218D01*
X168003963Y-118336281D01*
X167707322Y-118632404D01*
X167546584Y-119019507D01*
X167546218Y-119438655D01*
X163735505Y-119438655D01*
X163704426Y-119363440D01*
X163338487Y-118996861D01*
X162860120Y-118798226D01*
X162342152Y-118797774D01*
X161863440Y-118995574D01*
X161496861Y-119361513D01*
X161298226Y-119839880D01*
X161298025Y-120069923D01*
X159784875Y-121583073D01*
X159556025Y-121582874D01*
X159288725Y-121693320D01*
X159084039Y-121897650D01*
X158973126Y-122164756D01*
X158972874Y-122453975D01*
X154898005Y-122453975D01*
X154898123Y-122319788D01*
X154790564Y-122059474D01*
X154654000Y-121922671D01*
X154654000Y-119657183D01*
X154799864Y-119511574D01*
X154907877Y-119251448D01*
X154908123Y-118969788D01*
X154861916Y-118857959D01*
X155050212Y-118858123D01*
X155310526Y-118750564D01*
X155509864Y-118551574D01*
X155617877Y-118291448D01*
X155617905Y-118259957D01*
X155662057Y-118304110D01*
X155661877Y-118510212D01*
X155769436Y-118770526D01*
X155968426Y-118969864D01*
X156228552Y-119077877D01*
X156510212Y-119078123D01*
X156770526Y-118970564D01*
X156969864Y-118771574D01*
X157077877Y-118511448D01*
X157077907Y-118476137D01*
X165050847Y-118476137D01*
X165184385Y-118799323D01*
X165431436Y-119046806D01*
X165754389Y-119180907D01*
X166104077Y-119181213D01*
X166427263Y-119047675D01*
X166674746Y-118800624D01*
X166808847Y-118477671D01*
X166809153Y-118127983D01*
X166675615Y-117804797D01*
X166428564Y-117557314D01*
X166105611Y-117423213D01*
X165755923Y-117422907D01*
X165432737Y-117556445D01*
X165185254Y-117803496D01*
X165051153Y-118126449D01*
X165050847Y-118476137D01*
X157077907Y-118476137D01*
X157078123Y-118229788D01*
X156970564Y-117969474D01*
X156771574Y-117770136D01*
X156511448Y-117662123D01*
X156303995Y-117661942D01*
X153186028Y-114543975D01*
X153672874Y-114543975D01*
X153783320Y-114811275D01*
X153987650Y-115015961D01*
X154254756Y-115126874D01*
X154543975Y-115127126D01*
X154754323Y-115040212D01*
X162911877Y-115040212D01*
X163019436Y-115300526D01*
X163218426Y-115499864D01*
X163478552Y-115607877D01*
X163760212Y-115608123D01*
X164020526Y-115500564D01*
X164219864Y-115301574D01*
X164327877Y-115041448D01*
X164328058Y-114833994D01*
X165001026Y-114161027D01*
X165099441Y-114013739D01*
X165114787Y-113936588D01*
X165134000Y-113840000D01*
X165134000Y-113677382D01*
X165184385Y-113799323D01*
X165431436Y-114046806D01*
X165754389Y-114180907D01*
X166104077Y-114181213D01*
X166427263Y-114047675D01*
X166674746Y-113800624D01*
X166808847Y-113477671D01*
X166809153Y-113127983D01*
X166675615Y-112804797D01*
X166449868Y-112578655D01*
X167546218Y-112578655D01*
X167706281Y-112966037D01*
X168002404Y-113262678D01*
X168389507Y-113423416D01*
X168808655Y-113423782D01*
X169196037Y-113263719D01*
X169492678Y-112967596D01*
X169653416Y-112580493D01*
X169653782Y-112161345D01*
X169493719Y-111773963D01*
X169197596Y-111477322D01*
X168810493Y-111316584D01*
X168391345Y-111316218D01*
X168003963Y-111476281D01*
X167707322Y-111772404D01*
X167546584Y-112159507D01*
X167546218Y-112578655D01*
X166449868Y-112578655D01*
X166428564Y-112557314D01*
X166105611Y-112423213D01*
X165755923Y-112422907D01*
X165432737Y-112556445D01*
X165185254Y-112803496D01*
X165134000Y-112926930D01*
X165134000Y-110507166D01*
X165289864Y-110351574D01*
X165397877Y-110091448D01*
X165398123Y-109809788D01*
X165290564Y-109549474D01*
X165091574Y-109350136D01*
X164831448Y-109242123D01*
X164549788Y-109241877D01*
X164289474Y-109349436D01*
X164090136Y-109548426D01*
X163982123Y-109808552D01*
X163981877Y-110090212D01*
X164089436Y-110350526D01*
X164226000Y-110487329D01*
X164226000Y-113651947D01*
X163685891Y-114192057D01*
X163479788Y-114191877D01*
X163219474Y-114299436D01*
X163020136Y-114498426D01*
X162912123Y-114758552D01*
X162911877Y-115040212D01*
X154754323Y-115040212D01*
X154811275Y-115016680D01*
X155015961Y-114812350D01*
X155126874Y-114545244D01*
X155127075Y-114314977D01*
X155548052Y-113894000D01*
X158960000Y-113894000D01*
X159133738Y-113859441D01*
X159281026Y-113761026D01*
X159515126Y-113526927D01*
X159743975Y-113527126D01*
X160011275Y-113416680D01*
X160215961Y-113212350D01*
X160326874Y-112945244D01*
X160327126Y-112656025D01*
X160216680Y-112388725D01*
X160012350Y-112184039D01*
X159745244Y-112073126D01*
X159659669Y-112073051D01*
X159916963Y-111425966D01*
X159903765Y-110499686D01*
X159574683Y-109705212D01*
X159307756Y-109449850D01*
X159144875Y-109612731D01*
X158892975Y-109864630D01*
X157761605Y-110996000D01*
X157775748Y-111010143D01*
X157596143Y-111189748D01*
X157582000Y-111175605D01*
X156198731Y-112558874D01*
X156198731Y-112558875D01*
X156035850Y-112721756D01*
X156288645Y-112986000D01*
X155360000Y-112986000D01*
X155191883Y-113019441D01*
X155186262Y-113020559D01*
X155038974Y-113118974D01*
X154484875Y-113673073D01*
X154256025Y-113672874D01*
X153988725Y-113783320D01*
X153784039Y-113987650D01*
X153673126Y-114254756D01*
X153672874Y-114543975D01*
X153186028Y-114543975D01*
X153094458Y-114452406D01*
X152947170Y-114353991D01*
X152773432Y-114319432D01*
X151111012Y-114319432D01*
X151174718Y-114166010D01*
X151174964Y-113884350D01*
X151067405Y-113624036D01*
X150924000Y-113480380D01*
X150924000Y-113448052D01*
X151324367Y-113047685D01*
X151313126Y-113074756D01*
X151312874Y-113363975D01*
X151423320Y-113631275D01*
X151627650Y-113835961D01*
X151894756Y-113946874D01*
X152183975Y-113947126D01*
X152451275Y-113836680D01*
X152655961Y-113632350D01*
X152766874Y-113365244D01*
X152767075Y-113134978D01*
X153448053Y-112454000D01*
X153925971Y-112454000D01*
X154087650Y-112615961D01*
X154354756Y-112726874D01*
X154643975Y-112727126D01*
X154911275Y-112616680D01*
X155115961Y-112412350D01*
X155226874Y-112145244D01*
X155227126Y-111856025D01*
X155116680Y-111588725D01*
X154912350Y-111384039D01*
X154645244Y-111273126D01*
X154356025Y-111272874D01*
X154088725Y-111383320D01*
X153925762Y-111546000D01*
X153260000Y-111546000D01*
X153086262Y-111580559D01*
X152938974Y-111678973D01*
X152124874Y-112493073D01*
X151896025Y-112492874D01*
X151867316Y-112504736D01*
X153806018Y-110566034D01*
X155247037Y-110566034D01*
X155260235Y-111492314D01*
X155589317Y-112286788D01*
X155856244Y-112542150D01*
X156019125Y-112379269D01*
X156019126Y-112379269D01*
X157402395Y-110996000D01*
X156019126Y-109612731D01*
X156019125Y-109612731D01*
X155856244Y-109449850D01*
X155589317Y-109705212D01*
X155247037Y-110566034D01*
X153806018Y-110566034D01*
X154441027Y-109931026D01*
X154539441Y-109783738D01*
X154574000Y-109610000D01*
X154574000Y-109270244D01*
X156035850Y-109270244D01*
X156198731Y-109433125D01*
X156198731Y-109433126D01*
X157582000Y-110816395D01*
X158965269Y-109433126D01*
X158965269Y-109433125D01*
X159128150Y-109270244D01*
X158872788Y-109003317D01*
X158011966Y-108661037D01*
X157085686Y-108674235D01*
X156291212Y-109003317D01*
X156035850Y-109270244D01*
X154574000Y-109270244D01*
X154574000Y-109177183D01*
X154719864Y-109031574D01*
X154827877Y-108771448D01*
X154828123Y-108489788D01*
X154720564Y-108229474D01*
X154521574Y-108030136D01*
X154261448Y-107922123D01*
X153979788Y-107921877D01*
X153719474Y-108029436D01*
X153520136Y-108228426D01*
X153412123Y-108488552D01*
X153411877Y-108770212D01*
X153489735Y-108958643D01*
X153291574Y-108760136D01*
X153031448Y-108652123D01*
X152749788Y-108651877D01*
X152489474Y-108759436D01*
X152290136Y-108958426D01*
X152182123Y-109218552D01*
X152182038Y-109315909D01*
X151514000Y-109983948D01*
X151514000Y-108107183D01*
X151659864Y-107961574D01*
X151767877Y-107701448D01*
X151768123Y-107419788D01*
X151660564Y-107159474D01*
X151461574Y-106960136D01*
X151201448Y-106852123D01*
X150919788Y-106851877D01*
X150659474Y-106959436D01*
X150460136Y-107158426D01*
X150352123Y-107418552D01*
X150351877Y-107700212D01*
X150459436Y-107960526D01*
X150606000Y-108107346D01*
X150606000Y-109801947D01*
X149898974Y-110508974D01*
X149800559Y-110656262D01*
X149766000Y-110830000D01*
X149766000Y-110982817D01*
X149620136Y-111128426D01*
X149615528Y-111139525D01*
X149576602Y-111100531D01*
X149544162Y-110937447D01*
X149472368Y-110830000D01*
X149445747Y-110790158D01*
X149294000Y-110638412D01*
X149294000Y-107490000D01*
X149259441Y-107316262D01*
X149259441Y-107316261D01*
X149161026Y-107168973D01*
X149147943Y-107155890D01*
X149148123Y-106949788D01*
X149040564Y-106689474D01*
X148841574Y-106490136D01*
X148581448Y-106382123D01*
X148299788Y-106381877D01*
X148039474Y-106489436D01*
X147984000Y-106544813D01*
X147984000Y-105678074D01*
X148040212Y-105678123D01*
X148300526Y-105570564D01*
X148499864Y-105371574D01*
X148607877Y-105111448D01*
X148608123Y-104829788D01*
X148500564Y-104569474D01*
X148301574Y-104370136D01*
X148041448Y-104262123D01*
X147759788Y-104261877D01*
X147499474Y-104369436D01*
X147300136Y-104568426D01*
X147192123Y-104828552D01*
X147191934Y-105044475D01*
X147110559Y-105166262D01*
X147076000Y-105340000D01*
X147076000Y-112600000D01*
X147092741Y-112684160D01*
X147110559Y-112773738D01*
X147208974Y-112921026D01*
X148293405Y-114005458D01*
X148440693Y-114103873D01*
X148469518Y-114109607D01*
X148614432Y-114138432D01*
X148656422Y-114138432D01*
X148656363Y-114205643D01*
X148703379Y-114319432D01*
X148106568Y-114319432D01*
X147932830Y-114353991D01*
X147785542Y-114452405D01*
X146005891Y-116232057D01*
X145799788Y-116231877D01*
X145539474Y-116339436D01*
X145340136Y-116538426D01*
X145232123Y-116798552D01*
X145231877Y-117080212D01*
X145339436Y-117340526D01*
X145538426Y-117539864D01*
X145798552Y-117647877D01*
X146080212Y-117648123D01*
X146340526Y-117540564D01*
X146539864Y-117341574D01*
X146647877Y-117081448D01*
X146648058Y-116873994D01*
X148294621Y-115227432D01*
X152585380Y-115227432D01*
X153828109Y-116470162D01*
X153813738Y-116460559D01*
X153640000Y-116426000D01*
X150890000Y-116426000D01*
X150716262Y-116460559D01*
X150568974Y-116558973D01*
X150279026Y-116848921D01*
X150210875Y-116683981D01*
X150011885Y-116484643D01*
X149905787Y-116440587D01*
X149948454Y-116337832D01*
X149948700Y-116056172D01*
X149841141Y-115795858D01*
X149642151Y-115596520D01*
X149382025Y-115488507D01*
X149100365Y-115488261D01*
X148840051Y-115595820D01*
X148640713Y-115794810D01*
X148532700Y-116054936D01*
X148532519Y-116262389D01*
X146498974Y-118295935D01*
X146400559Y-118443223D01*
X146366000Y-118616961D01*
X146366000Y-121984013D01*
X146361448Y-121982123D01*
X146079788Y-121981877D01*
X145819474Y-122089436D01*
X145620136Y-122288426D01*
X145512123Y-122548552D01*
X145511939Y-122759006D01*
X145497840Y-122780107D01*
X145111948Y-123166000D01*
X139258053Y-123166000D01*
X138017943Y-121925891D01*
X138018123Y-121719788D01*
X137910564Y-121459474D01*
X137711574Y-121260136D01*
X137451448Y-121152123D01*
X137169788Y-121151877D01*
X136909474Y-121259436D01*
X136710136Y-121458426D01*
X136602123Y-121718552D01*
X136601877Y-122000212D01*
X99363600Y-122000212D01*
X99363600Y-120203975D01*
X140772874Y-120203975D01*
X140883320Y-120471275D01*
X140990272Y-120578413D01*
X140920136Y-120648426D01*
X140812123Y-120908552D01*
X140811877Y-121190212D01*
X140919436Y-121450526D01*
X141118426Y-121649864D01*
X141378552Y-121757877D01*
X141660212Y-121758123D01*
X141920526Y-121650564D01*
X142067346Y-121504000D01*
X143090000Y-121504000D01*
X143263738Y-121469441D01*
X143295962Y-121447910D01*
X143540212Y-121448123D01*
X143800526Y-121340564D01*
X143999864Y-121141574D01*
X144107877Y-120881448D01*
X144108123Y-120599788D01*
X144000564Y-120339474D01*
X143801574Y-120140136D01*
X143721262Y-120106788D01*
X143760526Y-120090564D01*
X143959864Y-119891574D01*
X144067877Y-119631448D01*
X144068123Y-119349788D01*
X143960564Y-119089474D01*
X143761574Y-118890136D01*
X143501448Y-118782123D01*
X143219788Y-118781877D01*
X142959474Y-118889436D01*
X142760136Y-119088426D01*
X142652123Y-119348552D01*
X142651898Y-119606000D01*
X142074029Y-119606000D01*
X141912350Y-119444039D01*
X141645244Y-119333126D01*
X141356025Y-119332874D01*
X141088725Y-119443320D01*
X140884039Y-119647650D01*
X140773126Y-119914756D01*
X140772874Y-120203975D01*
X99363600Y-120203975D01*
X99363600Y-116240212D01*
X141551877Y-116240212D01*
X141659436Y-116500526D01*
X141858426Y-116699864D01*
X142118552Y-116807877D01*
X142400212Y-116808123D01*
X142585782Y-116731447D01*
X144883519Y-119029185D01*
X144883339Y-119235287D01*
X144990898Y-119495601D01*
X145189888Y-119694939D01*
X145450014Y-119802952D01*
X145731674Y-119803198D01*
X145991988Y-119695639D01*
X146191326Y-119496649D01*
X146299339Y-119236523D01*
X146299585Y-118954863D01*
X146192026Y-118694549D01*
X145993036Y-118495211D01*
X145732910Y-118387198D01*
X145525457Y-118387017D01*
X142917413Y-115778974D01*
X142884259Y-115756821D01*
X142860564Y-115699474D01*
X142661574Y-115500136D01*
X142401448Y-115392123D01*
X142119788Y-115391877D01*
X141859474Y-115499436D01*
X141660136Y-115698426D01*
X141552123Y-115958552D01*
X141551877Y-116240212D01*
X99363600Y-116240212D01*
X99363600Y-112721756D01*
X131965850Y-112721756D01*
X132221212Y-112988683D01*
X133082034Y-113330963D01*
X134008314Y-113317765D01*
X134802788Y-112988683D01*
X135058150Y-112721756D01*
X134895269Y-112558875D01*
X134895269Y-112558874D01*
X133512000Y-111175605D01*
X132128731Y-112558874D01*
X132128731Y-112558875D01*
X131965850Y-112721756D01*
X99363600Y-112721756D01*
X99363600Y-110680148D01*
X120239457Y-110680148D01*
X120392552Y-110859894D01*
X120949941Y-111062289D01*
X121542354Y-111035974D01*
X121967448Y-110859894D01*
X122120543Y-110680148D01*
X122006429Y-110566034D01*
X131177037Y-110566034D01*
X131190235Y-111492314D01*
X131519317Y-112286788D01*
X131786244Y-112542150D01*
X131949125Y-112379269D01*
X131949126Y-112379269D01*
X133332395Y-110996000D01*
X133691605Y-110996000D01*
X135074874Y-112379269D01*
X135074875Y-112379269D01*
X135237756Y-112542150D01*
X135504683Y-112286788D01*
X135846963Y-111425966D01*
X135833765Y-110499686D01*
X135504683Y-109705212D01*
X135237756Y-109449850D01*
X135074875Y-109612731D01*
X134822975Y-109864630D01*
X133691605Y-110996000D01*
X133332395Y-110996000D01*
X131949126Y-109612731D01*
X131949125Y-109612731D01*
X131786244Y-109449850D01*
X131519317Y-109705212D01*
X131177037Y-110566034D01*
X122006429Y-110566034D01*
X121180000Y-109739605D01*
X120239457Y-110680148D01*
X99363600Y-110680148D01*
X99363600Y-109329941D01*
X119677711Y-109329941D01*
X119704026Y-109922354D01*
X119880106Y-110347448D01*
X120059852Y-110500543D01*
X121000395Y-109560000D01*
X121359605Y-109560000D01*
X122300148Y-110500543D01*
X122479894Y-110347448D01*
X122682289Y-109790059D01*
X122659199Y-109270244D01*
X131965850Y-109270244D01*
X132128731Y-109433125D01*
X132128731Y-109433126D01*
X133512000Y-110816395D01*
X134895269Y-109433126D01*
X134895269Y-109433125D01*
X135058150Y-109270244D01*
X134802788Y-109003317D01*
X133941966Y-108661037D01*
X133015686Y-108674235D01*
X132221212Y-109003317D01*
X131965850Y-109270244D01*
X122659199Y-109270244D01*
X122655974Y-109197646D01*
X122479894Y-108772552D01*
X122300148Y-108619457D01*
X121359605Y-109560000D01*
X121000395Y-109560000D01*
X120059852Y-108619457D01*
X119880106Y-108772552D01*
X119677711Y-109329941D01*
X99363600Y-109329941D01*
X99363600Y-108439852D01*
X120239457Y-108439852D01*
X121180000Y-109380395D01*
X122120543Y-108439852D01*
X121967448Y-108260106D01*
X121410059Y-108057711D01*
X120817646Y-108084026D01*
X120392552Y-108260106D01*
X120239457Y-108439852D01*
X99363600Y-108439852D01*
X99363600Y-103794135D01*
X103715470Y-103794135D01*
X104078580Y-104153035D01*
X105259288Y-104642784D01*
X106537538Y-104643415D01*
X107718730Y-104154833D01*
X107721420Y-104153035D01*
X108084530Y-103794135D01*
X161742659Y-103794135D01*
X162105769Y-104153035D01*
X163286477Y-104642784D01*
X164564727Y-104643415D01*
X165745919Y-104154833D01*
X165748609Y-104153035D01*
X166111719Y-103794135D01*
X163927189Y-101609605D01*
X161742659Y-103794135D01*
X108084530Y-103794135D01*
X105900000Y-101609605D01*
X103715470Y-103794135D01*
X99363600Y-103794135D01*
X99363600Y-102067538D01*
X102686585Y-102067538D01*
X103175167Y-103248730D01*
X103176965Y-103251420D01*
X103535865Y-103614530D01*
X105720395Y-101430000D01*
X106079605Y-101430000D01*
X108264135Y-103614530D01*
X108623035Y-103251420D01*
X109112784Y-102070712D01*
X109112785Y-102067538D01*
X160713774Y-102067538D01*
X161202356Y-103248730D01*
X161204154Y-103251420D01*
X161563054Y-103614530D01*
X163747584Y-101430000D01*
X164106794Y-101430000D01*
X166291324Y-103614530D01*
X166650224Y-103251420D01*
X167139973Y-102070712D01*
X167140604Y-100792462D01*
X166652022Y-99611270D01*
X166650224Y-99608580D01*
X166291324Y-99245470D01*
X164106794Y-101430000D01*
X163747584Y-101430000D01*
X161563054Y-99245470D01*
X161204154Y-99608580D01*
X160714405Y-100789288D01*
X160713774Y-102067538D01*
X109112785Y-102067538D01*
X109113415Y-100792462D01*
X109106885Y-100776675D01*
X111129400Y-100776675D01*
X111129400Y-100823325D01*
X111220029Y-101278948D01*
X111478119Y-101665206D01*
X111864377Y-101923296D01*
X112320000Y-102013925D01*
X112775623Y-101923296D01*
X113161881Y-101665206D01*
X113419971Y-101278948D01*
X113510600Y-100823325D01*
X113510600Y-100776675D01*
X113669400Y-100776675D01*
X113669400Y-100823325D01*
X113760029Y-101278948D01*
X114018119Y-101665206D01*
X114404377Y-101923296D01*
X114860000Y-102013925D01*
X115315623Y-101923296D01*
X115701881Y-101665206D01*
X115959971Y-101278948D01*
X116050600Y-100823325D01*
X116050600Y-100776675D01*
X116209400Y-100776675D01*
X116209400Y-100823325D01*
X116300029Y-101278948D01*
X116558119Y-101665206D01*
X116944377Y-101923296D01*
X117400000Y-102013925D01*
X117855623Y-101923296D01*
X118241881Y-101665206D01*
X118499971Y-101278948D01*
X118590600Y-100823325D01*
X118590600Y-100776675D01*
X118749400Y-100776675D01*
X118749400Y-100823325D01*
X118840029Y-101278948D01*
X119098119Y-101665206D01*
X119484377Y-101923296D01*
X119940000Y-102013925D01*
X120395623Y-101923296D01*
X120781881Y-101665206D01*
X121039971Y-101278948D01*
X121130600Y-100823325D01*
X121130600Y-100776675D01*
X121289400Y-100776675D01*
X121289400Y-100823325D01*
X121380029Y-101278948D01*
X121638119Y-101665206D01*
X122024377Y-101923296D01*
X122480000Y-102013925D01*
X122935623Y-101923296D01*
X123321881Y-101665206D01*
X123579971Y-101278948D01*
X123670600Y-100823325D01*
X123670600Y-100776675D01*
X123829400Y-100776675D01*
X123829400Y-100823325D01*
X123920029Y-101278948D01*
X124178119Y-101665206D01*
X124564377Y-101923296D01*
X125020000Y-102013925D01*
X125475623Y-101923296D01*
X125861881Y-101665206D01*
X126119971Y-101278948D01*
X126210600Y-100823325D01*
X126210600Y-100776675D01*
X126369400Y-100776675D01*
X126369400Y-100823325D01*
X126460029Y-101278948D01*
X126718119Y-101665206D01*
X127104377Y-101923296D01*
X127560000Y-102013925D01*
X128015623Y-101923296D01*
X128401881Y-101665206D01*
X128659971Y-101278948D01*
X128696533Y-101095137D01*
X129048419Y-101095137D01*
X129241410Y-101475094D01*
X129565114Y-101752274D01*
X129804865Y-101851568D01*
X129973000Y-101827229D01*
X129973000Y-100927000D01*
X130227000Y-100927000D01*
X130227000Y-101827229D01*
X130395135Y-101851568D01*
X130634886Y-101752274D01*
X130958590Y-101475094D01*
X131151581Y-101095137D01*
X131127654Y-100927000D01*
X130227000Y-100927000D01*
X129973000Y-100927000D01*
X129072346Y-100927000D01*
X129048419Y-101095137D01*
X128696533Y-101095137D01*
X128750600Y-100823325D01*
X128750600Y-100776675D01*
X128696534Y-100504863D01*
X129048419Y-100504863D01*
X129072346Y-100673000D01*
X129973000Y-100673000D01*
X129973000Y-99772771D01*
X130227000Y-99772771D01*
X130227000Y-100673000D01*
X131127654Y-100673000D01*
X131151581Y-100504863D01*
X130958590Y-100124906D01*
X130634886Y-99847726D01*
X130395135Y-99748432D01*
X130227000Y-99772771D01*
X129973000Y-99772771D01*
X129804865Y-99748432D01*
X129565114Y-99847726D01*
X129241410Y-100124906D01*
X129048419Y-100504863D01*
X128696534Y-100504863D01*
X128659971Y-100321052D01*
X128401881Y-99934794D01*
X128015623Y-99676704D01*
X127560000Y-99586075D01*
X127104377Y-99676704D01*
X126718119Y-99934794D01*
X126460029Y-100321052D01*
X126369400Y-100776675D01*
X126210600Y-100776675D01*
X126119971Y-100321052D01*
X125861881Y-99934794D01*
X125475623Y-99676704D01*
X125020000Y-99586075D01*
X124564377Y-99676704D01*
X124178119Y-99934794D01*
X123920029Y-100321052D01*
X123829400Y-100776675D01*
X123670600Y-100776675D01*
X123579971Y-100321052D01*
X123321881Y-99934794D01*
X122935623Y-99676704D01*
X122480000Y-99586075D01*
X122024377Y-99676704D01*
X121638119Y-99934794D01*
X121380029Y-100321052D01*
X121289400Y-100776675D01*
X121130600Y-100776675D01*
X121039971Y-100321052D01*
X120781881Y-99934794D01*
X120395623Y-99676704D01*
X119940000Y-99586075D01*
X119484377Y-99676704D01*
X119098119Y-99934794D01*
X118840029Y-100321052D01*
X118749400Y-100776675D01*
X118590600Y-100776675D01*
X118499971Y-100321052D01*
X118241881Y-99934794D01*
X117855623Y-99676704D01*
X117400000Y-99586075D01*
X116944377Y-99676704D01*
X116558119Y-99934794D01*
X116300029Y-100321052D01*
X116209400Y-100776675D01*
X116050600Y-100776675D01*
X115959971Y-100321052D01*
X115701881Y-99934794D01*
X115315623Y-99676704D01*
X114860000Y-99586075D01*
X114404377Y-99676704D01*
X114018119Y-99934794D01*
X113760029Y-100321052D01*
X113669400Y-100776675D01*
X113510600Y-100776675D01*
X113419971Y-100321052D01*
X113161881Y-99934794D01*
X112775623Y-99676704D01*
X112320000Y-99586075D01*
X111864377Y-99676704D01*
X111478119Y-99934794D01*
X111220029Y-100321052D01*
X111129400Y-100776675D01*
X109106885Y-100776675D01*
X108624833Y-99611270D01*
X108623035Y-99608580D01*
X108264135Y-99245470D01*
X106079605Y-101430000D01*
X105720395Y-101430000D01*
X103535865Y-99245470D01*
X103176965Y-99608580D01*
X102687216Y-100789288D01*
X102686585Y-102067538D01*
X99363600Y-102067538D01*
X99363600Y-99065865D01*
X103715470Y-99065865D01*
X105900000Y-101250395D01*
X108084530Y-99065865D01*
X107721420Y-98706965D01*
X107355387Y-98555137D01*
X111268419Y-98555137D01*
X111461410Y-98935094D01*
X111785114Y-99212274D01*
X112024865Y-99311568D01*
X112193000Y-99287229D01*
X112193000Y-98387000D01*
X112447000Y-98387000D01*
X112447000Y-99287229D01*
X112615135Y-99311568D01*
X112854886Y-99212274D01*
X113178590Y-98935094D01*
X113371581Y-98555137D01*
X113347654Y-98387000D01*
X112447000Y-98387000D01*
X112193000Y-98387000D01*
X111292346Y-98387000D01*
X111268419Y-98555137D01*
X107355387Y-98555137D01*
X106587625Y-98236675D01*
X113669400Y-98236675D01*
X113669400Y-98283325D01*
X113760029Y-98738948D01*
X114018119Y-99125206D01*
X114404377Y-99383296D01*
X114860000Y-99473925D01*
X115315623Y-99383296D01*
X115701881Y-99125206D01*
X115959971Y-98738948D01*
X116050600Y-98283325D01*
X116050600Y-98236675D01*
X116209400Y-98236675D01*
X116209400Y-98283325D01*
X116300029Y-98738948D01*
X116558119Y-99125206D01*
X116944377Y-99383296D01*
X117400000Y-99473925D01*
X117855623Y-99383296D01*
X118241881Y-99125206D01*
X118499971Y-98738948D01*
X118590600Y-98283325D01*
X118590600Y-98236675D01*
X118749400Y-98236675D01*
X118749400Y-98283325D01*
X118840029Y-98738948D01*
X119098119Y-99125206D01*
X119484377Y-99383296D01*
X119940000Y-99473925D01*
X120395623Y-99383296D01*
X120781881Y-99125206D01*
X121039971Y-98738948D01*
X121130600Y-98283325D01*
X121130600Y-98236675D01*
X121289400Y-98236675D01*
X121289400Y-98283325D01*
X121380029Y-98738948D01*
X121638119Y-99125206D01*
X122024377Y-99383296D01*
X122480000Y-99473925D01*
X122935623Y-99383296D01*
X123321881Y-99125206D01*
X123579971Y-98738948D01*
X123670600Y-98283325D01*
X123670600Y-98236675D01*
X123829400Y-98236675D01*
X123829400Y-98283325D01*
X123920029Y-98738948D01*
X124178119Y-99125206D01*
X124564377Y-99383296D01*
X125020000Y-99473925D01*
X125475623Y-99383296D01*
X125861881Y-99125206D01*
X126119971Y-98738948D01*
X126210600Y-98283325D01*
X126210600Y-98236675D01*
X126369400Y-98236675D01*
X126369400Y-98283325D01*
X126460029Y-98738948D01*
X126718119Y-99125206D01*
X127104377Y-99383296D01*
X127560000Y-99473925D01*
X128015623Y-99383296D01*
X128401881Y-99125206D01*
X128659971Y-98738948D01*
X128750600Y-98283325D01*
X128750600Y-98236675D01*
X128659971Y-97781052D01*
X128402955Y-97396400D01*
X128902994Y-97396400D01*
X128902994Y-99123600D01*
X128928373Y-99251189D01*
X129000646Y-99359354D01*
X129108811Y-99431627D01*
X129236400Y-99457006D01*
X130963600Y-99457006D01*
X131091189Y-99431627D01*
X131199354Y-99359354D01*
X131271627Y-99251189D01*
X131297006Y-99123600D01*
X131297006Y-99065865D01*
X161742659Y-99065865D01*
X163927189Y-101250395D01*
X166111719Y-99065865D01*
X165748609Y-98706965D01*
X164567901Y-98217216D01*
X163289651Y-98216585D01*
X162108459Y-98705167D01*
X162105769Y-98706965D01*
X161742659Y-99065865D01*
X131297006Y-99065865D01*
X131297006Y-97396400D01*
X131271627Y-97268811D01*
X131199354Y-97160646D01*
X131091189Y-97088373D01*
X130963600Y-97062994D01*
X129236400Y-97062994D01*
X129108811Y-97088373D01*
X129000646Y-97160646D01*
X128928373Y-97268811D01*
X128902994Y-97396400D01*
X128402955Y-97396400D01*
X128401881Y-97394794D01*
X128015623Y-97136704D01*
X127560000Y-97046075D01*
X127104377Y-97136704D01*
X126718119Y-97394794D01*
X126460029Y-97781052D01*
X126369400Y-98236675D01*
X126210600Y-98236675D01*
X126119971Y-97781052D01*
X125861881Y-97394794D01*
X125475623Y-97136704D01*
X125020000Y-97046075D01*
X124564377Y-97136704D01*
X124178119Y-97394794D01*
X123920029Y-97781052D01*
X123829400Y-98236675D01*
X123670600Y-98236675D01*
X123579971Y-97781052D01*
X123321881Y-97394794D01*
X122935623Y-97136704D01*
X122480000Y-97046075D01*
X122024377Y-97136704D01*
X121638119Y-97394794D01*
X121380029Y-97781052D01*
X121289400Y-98236675D01*
X121130600Y-98236675D01*
X121039971Y-97781052D01*
X120781881Y-97394794D01*
X120395623Y-97136704D01*
X119940000Y-97046075D01*
X119484377Y-97136704D01*
X119098119Y-97394794D01*
X118840029Y-97781052D01*
X118749400Y-98236675D01*
X118590600Y-98236675D01*
X118499971Y-97781052D01*
X118241881Y-97394794D01*
X117855623Y-97136704D01*
X117400000Y-97046075D01*
X116944377Y-97136704D01*
X116558119Y-97394794D01*
X116300029Y-97781052D01*
X116209400Y-98236675D01*
X116050600Y-98236675D01*
X115959971Y-97781052D01*
X115701881Y-97394794D01*
X115315623Y-97136704D01*
X114860000Y-97046075D01*
X114404377Y-97136704D01*
X114018119Y-97394794D01*
X113760029Y-97781052D01*
X113669400Y-98236675D01*
X106587625Y-98236675D01*
X106540712Y-98217216D01*
X105262462Y-98216585D01*
X104081270Y-98705167D01*
X104078580Y-98706965D01*
X103715470Y-99065865D01*
X99363600Y-99065865D01*
X99363600Y-97964863D01*
X111268419Y-97964863D01*
X111292346Y-98133000D01*
X112193000Y-98133000D01*
X112193000Y-97232771D01*
X112447000Y-97232771D01*
X112447000Y-98133000D01*
X113347654Y-98133000D01*
X113371581Y-97964863D01*
X113178590Y-97584906D01*
X112854886Y-97307726D01*
X112615135Y-97208432D01*
X112447000Y-97232771D01*
X112193000Y-97232771D01*
X112024865Y-97208432D01*
X111785114Y-97307726D01*
X111461410Y-97584906D01*
X111268419Y-97964863D01*
X99363600Y-97964863D01*
X99363600Y-97289900D01*
X99466256Y-96773817D01*
X99741654Y-96361654D01*
X100153821Y-96086254D01*
X100669900Y-95983600D01*
X169140100Y-95983600D01*
X169656183Y-96086256D01*
M02*
