G04 #@! TF.GenerationSoftware,KiCad,Pcbnew,(2017-01-24 revision 0b6147e)-makepkg*
G04 #@! TF.CreationDate,2018-07-27T06:26:55-07:00*
G04 #@! TF.ProjectId,SmartiePiNode,536D617274696550694E6F64652E6B69,1.a*
G04 #@! TF.FileFunction,Copper,L1,Top,Signal*
G04 #@! TF.FilePolarity,Positive*
%FSLAX46Y46*%
G04 Gerber Fmt 4.6, Leading zero omitted, Abs format (unit mm)*
G04 Created by KiCad (PCBNEW (2017-01-24 revision 0b6147e)-makepkg) date 07/27/18 06:26:55*
%MOMM*%
%LPD*%
G01*
G04 APERTURE LIST*
%ADD10C,0.100000*%
%ADD11R,1.348740X0.398780*%
%ADD12R,1.899920X1.899920*%
%ADD13C,1.650000*%
%ADD14C,1.250000*%
%ADD15R,0.500000X0.900000*%
%ADD16C,0.635000*%
%ADD17C,4.200000*%
%ADD18R,1.727200X1.727200*%
%ADD19O,1.727200X1.727200*%
%ADD20R,0.304800X1.193800*%
%ADD21R,1.193800X0.304800*%
%ADD22R,0.700000X1.750000*%
%ADD23R,1.300000X1.500000*%
%ADD24R,0.800000X1.500000*%
%ADD25R,0.800000X1.400000*%
%ADD26R,1.000000X1.550000*%
%ADD27R,1.400000X1.000000*%
%ADD28R,1.000000X1.250000*%
%ADD29R,0.800000X0.750000*%
%ADD30R,0.750000X0.800000*%
%ADD31R,2.032000X1.727200*%
%ADD32O,2.032000X1.727200*%
%ADD33R,1.220000X1.250000*%
%ADD34R,0.910000X1.270000*%
%ADD35R,2.500000X0.750000*%
%ADD36R,0.900000X0.500000*%
%ADD37C,1.950000*%
%ADD38R,1.150000X1.000000*%
%ADD39C,5.969000*%
%ADD40R,1.800000X1.000000*%
%ADD41R,0.711200X0.711200*%
%ADD42C,2.524000*%
%ADD43R,2.032000X2.032000*%
%ADD44O,2.032000X2.032000*%
%ADD45R,0.600000X0.250000*%
%ADD46R,0.250000X0.600000*%
%ADD47R,2.700000X2.700000*%
%ADD48C,0.500000*%
%ADD49R,1.600000X1.200000*%
%ADD50C,0.762000*%
%ADD51C,0.800000*%
%ADD52C,0.762000*%
%ADD53C,1.016000*%
%ADD54C,0.381000*%
%ADD55C,0.250000*%
%ADD56C,0.508000*%
%ADD57C,0.279400*%
%ADD58C,0.254000*%
G04 APERTURE END LIST*
D10*
D11*
X165930000Y-117097940D03*
X165930000Y-116447700D03*
X165930000Y-115800000D03*
X165930000Y-115152300D03*
X165930000Y-114502060D03*
D12*
X168604620Y-116998880D03*
X168604620Y-114601120D03*
D13*
X168600000Y-119230000D03*
X168600000Y-112370000D03*
D14*
X165930000Y-113302060D03*
X165930000Y-118302060D03*
D15*
X147950000Y-110500000D03*
X149450000Y-110500000D03*
X147950000Y-108900000D03*
X149450000Y-108900000D03*
D16*
X158713370Y-112127370D03*
D17*
X157582000Y-110996000D03*
D18*
X156972000Y-145796000D03*
D19*
X156972000Y-148336000D03*
X154432000Y-145796000D03*
X154432000Y-148336000D03*
X151892000Y-145796000D03*
X151892000Y-148336000D03*
X149352000Y-145796000D03*
X149352000Y-148336000D03*
X146812000Y-145796000D03*
X146812000Y-148336000D03*
X144272000Y-145796000D03*
X144272000Y-148336000D03*
X141732000Y-145796000D03*
X141732000Y-148336000D03*
X139192000Y-145796000D03*
X139192000Y-148336000D03*
X136652000Y-145796000D03*
X136652000Y-148336000D03*
X134112000Y-145796000D03*
X134112000Y-148336000D03*
D16*
X156450630Y-112127370D03*
X157582000Y-112596000D03*
X155982000Y-110996000D03*
X156450630Y-109864630D03*
X157582000Y-109396000D03*
X158713370Y-109864630D03*
X159182000Y-110996000D03*
X135112000Y-110996000D03*
X134643370Y-109864630D03*
D17*
X133512000Y-110996000D03*
D16*
X134643370Y-112127370D03*
X133512000Y-112596000D03*
X132380630Y-112127370D03*
X131912000Y-110996000D03*
X132380630Y-109864630D03*
X133512000Y-109396000D03*
D20*
X145950000Y-112950001D03*
X146449999Y-112950001D03*
X146950001Y-112950001D03*
X147450000Y-112950001D03*
X147949999Y-112950001D03*
X148450000Y-112950001D03*
X148950000Y-112950001D03*
X149450001Y-112950001D03*
X149950000Y-112950001D03*
X150449999Y-112950001D03*
X150950001Y-112950001D03*
X151450000Y-112950001D03*
D21*
X152949999Y-114450000D03*
X152949999Y-114949999D03*
X152949999Y-115450001D03*
X152949999Y-115950000D03*
X152949999Y-116449999D03*
X152949999Y-116950000D03*
X152949999Y-117450000D03*
X152949999Y-117950001D03*
X152949999Y-118450000D03*
X152949999Y-118949999D03*
X152949999Y-119450001D03*
X152949999Y-119950000D03*
D20*
X151450000Y-121449999D03*
X150950001Y-121449999D03*
X150449999Y-121449999D03*
X149950000Y-121449999D03*
X149450001Y-121449999D03*
X148950000Y-121449999D03*
X148450000Y-121449999D03*
X147949999Y-121449999D03*
X147450000Y-121449999D03*
X146950001Y-121449999D03*
X146449999Y-121449999D03*
X145950000Y-121449999D03*
D21*
X144450001Y-119950000D03*
X144450001Y-119450001D03*
X144450001Y-118949999D03*
X144450001Y-118450000D03*
X144450001Y-117950001D03*
X144450001Y-117450000D03*
X144450001Y-116950000D03*
X144450001Y-116449999D03*
X144450001Y-115950000D03*
X144450001Y-115450001D03*
X144450001Y-114949999D03*
X144450001Y-114450000D03*
D22*
X101353620Y-137152380D03*
X102453620Y-137152380D03*
X103553620Y-137152380D03*
X104653620Y-137152380D03*
X105753620Y-137152380D03*
X106853620Y-137152380D03*
X107953620Y-137152380D03*
X109053620Y-137152380D03*
D23*
X111403620Y-137027380D03*
X100153620Y-137027380D03*
D24*
X99903620Y-129427380D03*
D25*
X111653620Y-128777380D03*
D26*
X111303620Y-126352380D03*
D27*
X100203620Y-127927380D03*
D28*
X157100000Y-138700000D03*
X159100000Y-138700000D03*
D29*
X158850000Y-136800000D03*
X157350000Y-136800000D03*
X103350000Y-140400000D03*
X104850000Y-140400000D03*
X157350000Y-135200000D03*
X158850000Y-135200000D03*
D30*
X163800000Y-129550000D03*
X163800000Y-131050000D03*
D29*
X158850000Y-127800000D03*
X157350000Y-127800000D03*
X157350000Y-126200000D03*
X158850000Y-126200000D03*
X158850000Y-124600000D03*
X157350000Y-124600000D03*
D30*
X165300000Y-121800000D03*
X165300000Y-123300000D03*
D29*
X138550000Y-120200000D03*
X137050000Y-120200000D03*
X137050000Y-115800000D03*
X138550000Y-115800000D03*
X142550000Y-121800000D03*
X144050000Y-121800000D03*
X142550000Y-123400000D03*
X144050000Y-123400000D03*
X151250000Y-123200000D03*
X152750000Y-123200000D03*
D30*
X143260000Y-112600000D03*
X143260000Y-111100000D03*
X144780000Y-112600000D03*
X144780000Y-111100000D03*
X153200000Y-111350000D03*
X153200000Y-112850000D03*
D29*
X138550000Y-110200000D03*
X137050000Y-110200000D03*
D30*
X136500000Y-112750000D03*
X136500000Y-114250000D03*
D31*
X168840000Y-123470000D03*
D32*
X168840000Y-126010000D03*
X168840000Y-128550000D03*
X168840000Y-131090000D03*
X168840000Y-133630000D03*
D33*
X165840000Y-128710000D03*
X165840000Y-125760000D03*
X131420000Y-145900000D03*
X131420000Y-148850000D03*
D34*
X158930000Y-140800000D03*
X157260000Y-140800000D03*
D35*
X153590000Y-132720000D03*
X153590000Y-130270000D03*
D15*
X109450000Y-140400000D03*
X107950000Y-140400000D03*
X156650000Y-117100000D03*
X155150000Y-117100000D03*
X155150000Y-115300000D03*
X156650000Y-115300000D03*
X161850000Y-136800000D03*
X163350000Y-136800000D03*
X163350000Y-135200000D03*
X161850000Y-135200000D03*
D36*
X162100000Y-131050000D03*
X162100000Y-129550000D03*
X162100000Y-132250000D03*
X162100000Y-133750000D03*
D15*
X158850000Y-123000000D03*
X157350000Y-123000000D03*
X140150000Y-117200000D03*
X141650000Y-117200000D03*
X140150000Y-118800000D03*
X141650000Y-118800000D03*
X141650000Y-112500000D03*
X140150000Y-112500000D03*
X140150000Y-114100000D03*
X141650000Y-114100000D03*
D37*
X162600000Y-126600000D03*
X162600000Y-120100000D03*
D38*
X138670000Y-117350000D03*
X136920000Y-117350000D03*
X136920000Y-118650000D03*
X138670000Y-118650000D03*
D16*
X105900000Y-142564800D03*
X104238300Y-143253100D03*
X103550000Y-144914800D03*
X104238300Y-146576500D03*
X105900000Y-147264800D03*
X107561700Y-146576500D03*
X108250000Y-144914800D03*
X107561700Y-143253100D03*
D39*
X105900000Y-144914800D03*
X105900000Y-101430000D03*
D16*
X107561700Y-99768300D03*
X108250000Y-101430000D03*
X107561700Y-103091700D03*
X105900000Y-103780000D03*
X104238300Y-103091700D03*
X103550000Y-101430000D03*
X104238300Y-99768300D03*
X105900000Y-99080000D03*
X163913600Y-142564800D03*
X162251900Y-143253100D03*
X161563600Y-144914800D03*
X162251900Y-146576500D03*
X163913600Y-147264800D03*
X165575300Y-146576500D03*
X166263600Y-144914800D03*
X165575300Y-143253100D03*
D39*
X163913600Y-144914800D03*
X163927189Y-101430000D03*
D16*
X165588889Y-99768300D03*
X166277189Y-101430000D03*
X165588889Y-103091700D03*
X163927189Y-103780000D03*
X162265489Y-103091700D03*
X161577189Y-101430000D03*
X162265489Y-99768300D03*
X163927189Y-99080000D03*
D40*
X138410000Y-114250000D03*
X138410000Y-111750000D03*
D15*
X161850000Y-138400000D03*
X163350000Y-138400000D03*
D41*
X144011200Y-124800000D03*
X142588800Y-124800000D03*
D42*
X121180000Y-109560000D03*
X121170000Y-147520000D03*
D36*
X163600000Y-113050000D03*
X163600000Y-111550000D03*
X163600000Y-114250000D03*
X163600000Y-115750000D03*
D43*
X168840000Y-146250000D03*
D44*
X168840000Y-148790000D03*
D29*
X138550000Y-124700000D03*
X137050000Y-124700000D03*
D36*
X161900000Y-115750000D03*
X161900000Y-114250000D03*
D15*
X132850000Y-124700000D03*
X134350000Y-124700000D03*
X132850000Y-121500000D03*
X134350000Y-121500000D03*
X134350000Y-123100000D03*
X132850000Y-123100000D03*
X138550000Y-123100000D03*
X137050000Y-123100000D03*
D45*
X156200000Y-130500000D03*
X156200000Y-131000000D03*
X156200000Y-131500000D03*
X156200000Y-132000000D03*
X156200000Y-132500000D03*
X160000000Y-132500000D03*
X160000000Y-132000000D03*
X160000000Y-131500000D03*
X160000000Y-131000000D03*
X160000000Y-130500000D03*
D46*
X159100000Y-129600000D03*
X158600000Y-129600000D03*
X158100000Y-129600000D03*
X157600000Y-129600000D03*
X157100000Y-129600000D03*
X157100000Y-133400000D03*
X157600000Y-133400000D03*
X158100000Y-133400000D03*
X158600000Y-133400000D03*
X159100000Y-133400000D03*
D47*
X158100000Y-131500000D03*
D48*
X157290000Y-130690000D03*
X157830000Y-130690000D03*
X158370000Y-130690000D03*
X158910000Y-130690000D03*
X158910000Y-131230000D03*
X158910000Y-131770000D03*
X158910000Y-132310000D03*
X158370000Y-131230000D03*
X158370000Y-131770000D03*
X158370000Y-132310000D03*
X157830000Y-131230000D03*
X157830000Y-131770000D03*
X157830000Y-132310000D03*
X157290000Y-131230000D03*
X157290000Y-131770000D03*
X157290000Y-132310000D03*
D18*
X130100000Y-98260000D03*
D19*
X130100000Y-100800000D03*
X127560000Y-98260000D03*
X127560000Y-100800000D03*
X125020000Y-98260000D03*
X125020000Y-100800000D03*
X122480000Y-98260000D03*
X122480000Y-100800000D03*
X119940000Y-98260000D03*
X119940000Y-100800000D03*
X117400000Y-98260000D03*
X117400000Y-100800000D03*
X114860000Y-98260000D03*
X114860000Y-100800000D03*
X112320000Y-98260000D03*
X112320000Y-100800000D03*
D36*
X168840000Y-138580000D03*
X168840000Y-140080000D03*
D49*
X169760000Y-141950000D03*
X166960000Y-139450000D03*
X169760000Y-136950000D03*
D50*
X159610000Y-134410000D03*
X161000000Y-138640000D03*
X160530000Y-137330000D03*
X160530000Y-136280000D03*
D51*
X162950000Y-128100000D03*
X162090000Y-124900000D03*
X163680000Y-132180000D03*
X164550000Y-137580000D03*
X160850000Y-127980000D03*
X160850000Y-127090000D03*
X160850000Y-126200000D03*
X160850000Y-125290000D03*
X160850000Y-124370000D03*
X159800000Y-127090000D03*
X159800000Y-127990000D03*
X159800000Y-126199998D03*
X159800000Y-125290000D03*
X159790000Y-124370000D03*
D50*
X159740000Y-137710000D03*
X163880000Y-123460000D03*
D51*
X151753097Y-115549429D03*
X145485926Y-110864074D03*
X135960000Y-116560000D03*
X145681969Y-118118247D03*
X103330000Y-141250000D03*
X151970000Y-124130000D03*
X144050000Y-122570000D03*
X136470000Y-125470000D03*
X132350000Y-120650000D03*
X136170000Y-120190000D03*
D50*
X139300000Y-118460000D03*
D51*
X135340000Y-117070000D03*
X137570000Y-113110000D03*
X136230000Y-109760000D03*
X144020000Y-111100000D03*
X153990000Y-110990000D03*
D50*
X150200000Y-109740000D03*
X162550000Y-111520000D03*
X167030000Y-114500000D03*
D51*
X162650000Y-134000000D03*
X163680000Y-134420000D03*
X159750000Y-135790000D03*
X159740000Y-136800000D03*
X159990000Y-138720000D03*
X167150000Y-128200000D03*
X166340000Y-121860000D03*
D50*
X156370000Y-118370000D03*
X145940000Y-116940000D03*
D51*
X159700000Y-122310000D03*
X152040000Y-113220000D03*
X154500000Y-112000000D03*
X170010000Y-110950000D03*
X159600000Y-112800000D03*
X154400000Y-114400000D03*
D50*
X150659345Y-124779345D03*
X140870000Y-133210000D03*
X151400000Y-117890000D03*
X154190000Y-122460000D03*
X154200000Y-119110000D03*
X140340000Y-131560000D03*
X148980000Y-130420000D03*
X150893711Y-119279225D03*
X139640000Y-129960000D03*
X148970000Y-128310000D03*
X150210000Y-118580000D03*
X148260000Y-128970000D03*
X154910000Y-118150000D03*
X146840000Y-130320000D03*
X149240577Y-116196384D03*
X147550000Y-129620000D03*
X149610311Y-117084507D03*
X142070000Y-134840000D03*
X140470000Y-134840000D03*
X141520000Y-121050000D03*
X143400000Y-120740000D03*
X152890000Y-109360000D03*
X151190000Y-110950000D03*
X164690000Y-109950000D03*
X163620000Y-114900000D03*
D51*
X141500000Y-120060000D03*
D50*
X143360000Y-119490000D03*
X151060000Y-107560000D03*
X150220000Y-111530000D03*
X154120000Y-108630000D03*
X150466841Y-114024562D03*
X148440000Y-107090000D03*
X149124721Y-111650000D03*
X147900000Y-104970000D03*
X149364486Y-114065431D03*
X137310000Y-121860000D03*
X146220000Y-122690000D03*
X142260000Y-116100000D03*
X145591462Y-119095075D03*
D52*
X158850000Y-135200000D02*
X158850000Y-135170000D01*
X158850000Y-135170000D02*
X159610000Y-134410000D01*
X159990000Y-138720000D02*
X160920000Y-138720000D01*
X160920000Y-138720000D02*
X161000000Y-138640000D01*
X159740000Y-136800000D02*
X160000000Y-136800000D01*
X160000000Y-136800000D02*
X160530000Y-137330000D01*
X160530000Y-136280000D02*
X160260000Y-136280000D01*
X160260000Y-136280000D02*
X159740000Y-136800000D01*
X159750000Y-135790000D02*
X160040000Y-135790000D01*
X160040000Y-135790000D02*
X160530000Y-136280000D01*
X160850000Y-127980000D02*
X162830000Y-127980000D01*
X162830000Y-127980000D02*
X162950000Y-128100000D01*
X160850000Y-125290000D02*
X161700000Y-125290000D01*
X161700000Y-125290000D02*
X162090000Y-124900000D01*
X163680000Y-134420000D02*
X163680000Y-132180000D01*
X163680000Y-134420000D02*
X164550000Y-135290000D01*
X164550000Y-135290000D02*
X164550000Y-137580000D01*
X159800000Y-127990000D02*
X160840000Y-127990000D01*
X160840000Y-127990000D02*
X160850000Y-127980000D01*
X159800000Y-127090000D02*
X160850000Y-127090000D01*
X159800000Y-126199998D02*
X160849998Y-126199998D01*
X160849998Y-126199998D02*
X160850000Y-126200000D01*
X159800000Y-125290000D02*
X160850000Y-125290000D01*
X159790000Y-124370000D02*
X160850000Y-124370000D01*
X159800000Y-127990000D02*
X159800000Y-127090000D01*
D53*
X159400001Y-127590001D02*
X159800000Y-127990000D01*
X159059999Y-127590001D02*
X159400001Y-127590001D01*
X158850000Y-127800000D02*
X159059999Y-127590001D01*
X159234315Y-126199998D02*
X159800000Y-126199998D01*
X158850002Y-126199998D02*
X159234315Y-126199998D01*
X158850000Y-126200000D02*
X158850002Y-126199998D01*
D54*
X159790000Y-125280000D02*
X159800000Y-125290000D01*
X159790000Y-124370000D02*
X159790000Y-125280000D01*
D53*
X159080000Y-124370000D02*
X159224315Y-124370000D01*
X158850000Y-124600000D02*
X159080000Y-124370000D01*
X159224315Y-124370000D02*
X159790000Y-124370000D01*
D55*
X159740000Y-136800000D02*
X159740000Y-137710000D01*
D56*
X164418815Y-123460000D02*
X163880000Y-123460000D01*
X165070000Y-123460000D02*
X164418815Y-123460000D01*
X165220000Y-123310000D02*
X165070000Y-123460000D01*
D57*
X151753097Y-115270601D02*
X151753097Y-115549429D01*
X152949999Y-114949999D02*
X152073699Y-114949999D01*
X152073699Y-114949999D02*
X151753097Y-115270601D01*
D52*
X144920241Y-110864074D02*
X145485926Y-110864074D01*
X144780000Y-111100000D02*
X144780000Y-111004315D01*
X144780000Y-111004315D02*
X144920241Y-110864074D01*
X136359999Y-116160001D02*
X135960000Y-116560000D01*
X136720000Y-115800000D02*
X136359999Y-116160001D01*
X137050000Y-115800000D02*
X136720000Y-115800000D01*
D57*
X144450001Y-117950001D02*
X145513723Y-117950001D01*
X145513723Y-117950001D02*
X145681969Y-118118247D01*
D52*
X103553620Y-139176380D02*
X103350000Y-139380000D01*
X103350000Y-139380000D02*
X103350000Y-140400000D01*
X103553620Y-137152380D02*
X103553620Y-139176380D01*
X103350000Y-140400000D02*
X103350000Y-141230000D01*
X103350000Y-141230000D02*
X103330000Y-141250000D01*
X151250000Y-123200000D02*
X151250000Y-123410000D01*
X151250000Y-123410000D02*
X151970000Y-124130000D01*
X144050000Y-122570000D02*
X144050000Y-123400000D01*
X144050000Y-121800000D02*
X144050000Y-122570000D01*
X137050000Y-124700000D02*
X137050000Y-124890000D01*
X137050000Y-124890000D02*
X136470000Y-125470000D01*
D54*
X132850000Y-121500000D02*
X132850000Y-121150000D01*
X132850000Y-121150000D02*
X132350000Y-120650000D01*
D52*
X137050000Y-120200000D02*
X136180000Y-120200000D01*
X136180000Y-120200000D02*
X136170000Y-120190000D01*
D58*
X136920000Y-117350000D02*
X137237001Y-117350000D01*
D57*
X136920000Y-117350000D02*
X137225299Y-117350000D01*
D52*
X138670000Y-118650000D02*
X139110000Y-118650000D01*
X139110000Y-118650000D02*
X139300000Y-118460000D01*
X136920000Y-117350000D02*
X135620000Y-117350000D01*
X135620000Y-117350000D02*
X135340000Y-117070000D01*
X137050000Y-115800000D02*
X137050000Y-117220000D01*
X137050000Y-117220000D02*
X136920000Y-117350000D01*
X137050000Y-110590000D02*
X136500000Y-111140000D01*
X136500000Y-111140000D02*
X136500000Y-112750000D01*
X137050000Y-110200000D02*
X137050000Y-110590000D01*
X136500000Y-112750000D02*
X137210000Y-112750000D01*
X137210000Y-112750000D02*
X137570000Y-113110000D01*
X137050000Y-110200000D02*
X136670000Y-110200000D01*
X136670000Y-110200000D02*
X136230000Y-109760000D01*
X144020000Y-111100000D02*
X143260000Y-111100000D01*
X144780000Y-111100000D02*
X144020000Y-111100000D01*
X153200000Y-111350000D02*
X153630000Y-111350000D01*
X153630000Y-111350000D02*
X153990000Y-110990000D01*
D54*
X149450000Y-110500000D02*
X149450000Y-110490000D01*
X149450000Y-110490000D02*
X150200000Y-109740000D01*
X163600000Y-111550000D02*
X162580000Y-111550000D01*
X162580000Y-111550000D02*
X162550000Y-111520000D01*
X165930000Y-114502060D02*
X167027940Y-114502060D01*
X167027940Y-114502060D02*
X167030000Y-114500000D01*
D52*
X162100000Y-133750000D02*
X162400000Y-133750000D01*
X162400000Y-133750000D02*
X162650000Y-134000000D01*
X163350000Y-135200000D02*
X163350000Y-134750000D01*
X163350000Y-134750000D02*
X163680000Y-134420000D01*
D53*
X158850000Y-135200000D02*
X159160000Y-135200000D01*
X159160000Y-135200000D02*
X159750000Y-135790000D01*
X158850000Y-136800000D02*
X159740000Y-136800000D01*
X159100000Y-138700000D02*
X159970000Y-138700000D01*
X159970000Y-138700000D02*
X159990000Y-138720000D01*
D58*
X151250000Y-122650000D02*
X151250000Y-123200000D01*
X150950001Y-122350001D02*
X151250000Y-122650000D01*
X150950001Y-121449999D02*
X150950001Y-122350001D01*
X161300000Y-133600000D02*
X161450000Y-133750000D01*
X161450000Y-133750000D02*
X162100000Y-133750000D01*
X161300000Y-131800000D02*
X161300000Y-133600000D01*
X160500000Y-131000000D02*
X161300000Y-131800000D01*
X160000000Y-131000000D02*
X160500000Y-131000000D01*
X146449999Y-112049999D02*
X145500000Y-111100000D01*
X145500000Y-111100000D02*
X144780000Y-111100000D01*
X146449999Y-112950001D02*
X146449999Y-112049999D01*
D53*
X158850000Y-136800000D02*
X158850000Y-138450000D01*
X158850000Y-138450000D02*
X159100000Y-138700000D01*
X158850000Y-135200000D02*
X158850000Y-136800000D01*
X158850000Y-126200000D02*
X158850000Y-124600000D01*
X158850000Y-127800000D02*
X158850000Y-126200000D01*
D58*
X160000000Y-131500000D02*
X160000000Y-131000000D01*
X160000000Y-131000000D02*
X159140000Y-131000000D01*
X159140000Y-131000000D02*
X158910000Y-131230000D01*
X160000000Y-131500000D02*
X158100000Y-131500000D01*
X156200000Y-131500000D02*
X158100000Y-131500000D01*
X141260000Y-138975990D02*
X141260000Y-134642158D01*
X132850000Y-124900000D02*
X132850000Y-124700000D01*
X141590000Y-128300000D02*
X140680000Y-127390000D01*
X141590000Y-134312158D02*
X141590000Y-128300000D01*
X141260000Y-134642158D02*
X141590000Y-134312158D01*
X140680000Y-127390000D02*
X135340000Y-127390000D01*
X135350000Y-144885990D02*
X141260000Y-138975990D01*
X135340000Y-127390000D02*
X132850000Y-124900000D01*
X131420000Y-145900000D02*
X132420000Y-145900000D01*
X135350000Y-146600000D02*
X135350000Y-144885990D01*
X134880000Y-147070000D02*
X135350000Y-146600000D01*
X133590000Y-147070000D02*
X134880000Y-147070000D01*
X132420000Y-145900000D02*
X133590000Y-147070000D01*
D52*
X131420000Y-145900000D02*
X122790000Y-145900000D01*
D58*
X132840000Y-124710000D02*
X132850000Y-124700000D01*
D52*
X122790000Y-145900000D02*
X121170000Y-147520000D01*
D58*
X157458011Y-139661989D02*
X160283733Y-139661989D01*
X163350000Y-138600000D02*
X163350000Y-138400000D01*
X160283733Y-139661989D02*
X160517711Y-139428011D01*
X157260000Y-139860000D02*
X157458011Y-139661989D01*
X162521989Y-139428011D02*
X163350000Y-138600000D01*
X160517711Y-139428011D02*
X162521989Y-139428011D01*
X162500000Y-137000000D02*
X162300000Y-136800000D01*
X162300000Y-136800000D02*
X161850000Y-136800000D01*
X162500000Y-138100000D02*
X162500000Y-137000000D01*
X162800000Y-138400000D02*
X162500000Y-138100000D01*
X163350000Y-138400000D02*
X162800000Y-138400000D01*
D53*
X157350000Y-136800000D02*
X157350000Y-135800000D01*
X157350000Y-135800000D02*
X157350000Y-135200000D01*
D56*
X157100000Y-133400000D02*
X157100000Y-135550000D01*
X157100000Y-135550000D02*
X157350000Y-135800000D01*
X157100000Y-133400000D02*
X157100000Y-134950000D01*
X157100000Y-134950000D02*
X157350000Y-135200000D01*
X157100000Y-133400000D02*
X159100000Y-133400000D01*
X159100000Y-133400000D02*
X159100000Y-133450000D01*
X159100000Y-133450000D02*
X157350000Y-135200000D01*
X158600000Y-133400000D02*
X158600000Y-133950000D01*
X158600000Y-133950000D02*
X157350000Y-135200000D01*
X158100000Y-133400000D02*
X158100000Y-134450000D01*
X158100000Y-134450000D02*
X157350000Y-135200000D01*
X157600000Y-133400000D02*
X157600000Y-134950000D01*
X157600000Y-134950000D02*
X157350000Y-135200000D01*
D53*
X157100000Y-137900000D02*
X157350000Y-137650000D01*
X157350000Y-137650000D02*
X157350000Y-136800000D01*
X157100000Y-138700000D02*
X157100000Y-137900000D01*
X157260000Y-139860000D02*
X157100000Y-139700000D01*
X157100000Y-139700000D02*
X157100000Y-138700000D01*
X157260000Y-140800000D02*
X157260000Y-139860000D01*
D55*
X157030000Y-140830000D02*
X157030000Y-140460000D01*
D54*
X159409314Y-128800000D02*
X158100000Y-128800000D01*
X162100000Y-129550000D02*
X160159314Y-129550000D01*
X160159314Y-129550000D02*
X159409314Y-128800000D01*
D52*
X168687600Y-123470000D02*
X168840000Y-123470000D01*
X166450000Y-127294802D02*
X167062000Y-126682802D01*
X164974802Y-127294802D02*
X166450000Y-127294802D01*
X167062000Y-126682802D02*
X167062000Y-125095600D01*
X164310000Y-125350000D02*
X164310000Y-126630000D01*
X167062000Y-125095600D02*
X168687600Y-123470000D01*
X156000000Y-121300000D02*
X160260000Y-121300000D01*
X164310000Y-126630000D02*
X164974802Y-127294802D01*
X160260000Y-121300000D02*
X164310000Y-125350000D01*
X156972000Y-148336000D02*
X157864000Y-148336000D01*
X157864000Y-148336000D02*
X158700000Y-147500000D01*
X158700000Y-147500000D02*
X158700000Y-144920000D01*
X158700000Y-144920000D02*
X157660000Y-143880000D01*
X157660000Y-143880000D02*
X156380000Y-143880000D01*
X156380000Y-143880000D02*
X151470000Y-138970000D01*
X151470000Y-138970000D02*
X151470000Y-126930000D01*
X151470000Y-126930000D02*
X151800000Y-126600000D01*
X147970000Y-115977967D02*
X148920534Y-115027433D01*
X151705167Y-114210000D02*
X152460000Y-114210000D01*
X152460000Y-114210000D02*
X152990000Y-113680000D01*
X150887734Y-115027433D02*
X151705167Y-114210000D01*
X147970000Y-116670000D02*
X147970000Y-115977967D01*
X148700000Y-117400000D02*
X147970000Y-116670000D01*
X148920534Y-115027433D02*
X150887734Y-115027433D01*
D56*
X148700000Y-117400000D02*
X148480000Y-117400000D01*
X148480000Y-117400000D02*
X144930987Y-120949013D01*
X144930987Y-120949013D02*
X144930987Y-124389013D01*
X144930987Y-124389013D02*
X144520000Y-124800000D01*
X144520000Y-124800000D02*
X144011200Y-124800000D01*
D52*
X149450000Y-108900000D02*
X149450000Y-102930000D01*
X149450000Y-102930000D02*
X144780000Y-98260000D01*
X144780000Y-98260000D02*
X130100000Y-98260000D01*
X152990000Y-113680000D02*
X153200000Y-113470000D01*
D58*
X152949999Y-114450000D02*
X152949999Y-113720001D01*
X152949999Y-113720001D02*
X152990000Y-113680000D01*
D52*
X152160000Y-110140000D02*
X150950000Y-108930000D01*
X150950000Y-108930000D02*
X150950000Y-108760000D01*
X152160000Y-111950000D02*
X152160000Y-110140000D01*
X152550000Y-112340000D02*
X152160000Y-111950000D01*
X152740000Y-112340000D02*
X152550000Y-112340000D01*
X153200000Y-112800000D02*
X152740000Y-112340000D01*
X153200000Y-112850000D02*
X153200000Y-112800000D01*
X149840000Y-108760000D02*
X150950000Y-108760000D01*
X149700000Y-108900000D02*
X149840000Y-108760000D01*
X149450000Y-108900000D02*
X149700000Y-108900000D01*
X153200000Y-112850000D02*
X153200000Y-112780000D01*
X153200000Y-113470000D02*
X153200000Y-112850000D01*
X148700000Y-118509276D02*
X148700000Y-117400000D01*
X151541226Y-120241226D02*
X150431950Y-120241226D01*
X151900000Y-120600000D02*
X151541226Y-120241226D01*
X150431950Y-120241226D02*
X148700000Y-118509276D01*
D56*
X148700000Y-117400000D02*
X147630000Y-117400000D01*
X147630000Y-117400000D02*
X146000000Y-115770000D01*
X146000000Y-115770000D02*
X146000000Y-114400000D01*
D52*
X131060000Y-141650000D02*
X109580000Y-141650000D01*
X109580000Y-141650000D02*
X107580000Y-141650000D01*
X109450000Y-140400000D02*
X109450000Y-141520000D01*
X109450000Y-141520000D02*
X109580000Y-141650000D01*
X107580000Y-141650000D02*
X105753620Y-139823620D01*
X105753620Y-139823620D02*
X105753620Y-138946380D01*
X134112000Y-144702000D02*
X131060000Y-141650000D01*
X134112000Y-145796000D02*
X134112000Y-144702000D01*
D56*
X161900000Y-114250000D02*
X155550000Y-114250000D01*
X155550000Y-114250000D02*
X154150000Y-112850000D01*
X154150000Y-112850000D02*
X153200000Y-112850000D01*
D53*
X156000000Y-121300000D02*
X156000000Y-122400000D01*
X156000000Y-122400000D02*
X151800000Y-126600000D01*
D52*
X105753620Y-138946380D02*
X104850000Y-139850000D01*
X104850000Y-139850000D02*
X104850000Y-140400000D01*
X105753620Y-137152380D02*
X105753620Y-138946380D01*
X152200000Y-120900000D02*
X151900000Y-120600000D01*
D56*
X151900000Y-120600000D02*
X151600000Y-120900000D01*
X152750000Y-122650000D02*
X152750000Y-123200000D01*
X152000000Y-122300000D02*
X152400000Y-122300000D01*
X152400000Y-122300000D02*
X152750000Y-122650000D01*
X151700000Y-122000000D02*
X152000000Y-122300000D01*
X151700000Y-121700000D02*
X151700000Y-122000000D01*
X151800000Y-121600000D02*
X151700000Y-121700000D01*
X151800000Y-121300000D02*
X151800000Y-121600000D01*
X151800000Y-121300000D02*
X151700000Y-121200000D01*
X152200000Y-121300000D02*
X151800000Y-121300000D01*
X143260000Y-112600000D02*
X143300000Y-112600000D01*
X143300000Y-112600000D02*
X144450001Y-113750001D01*
X144450001Y-113750001D02*
X144450001Y-114200000D01*
D58*
X144450001Y-114450000D02*
X144450001Y-114200000D01*
D56*
X144780000Y-112600000D02*
X145400000Y-112600000D01*
X145400000Y-112600000D02*
X145750001Y-112950001D01*
X156972000Y-148336000D02*
X156836000Y-148336000D01*
X156972000Y-148336000D02*
X157364000Y-148336000D01*
X158100000Y-129600000D02*
X158100000Y-128800000D01*
X158100000Y-128800000D02*
X158100000Y-128550000D01*
D52*
X163800000Y-129550000D02*
X162100000Y-129550000D01*
D58*
X152500000Y-122400000D02*
X152750000Y-122650000D01*
X151900000Y-122400000D02*
X152500000Y-122400000D01*
X151450000Y-121950000D02*
X151900000Y-122400000D01*
X151450000Y-121449999D02*
X151450000Y-121950000D01*
X152200000Y-121300000D02*
X151599999Y-121300000D01*
X151599999Y-121300000D02*
X151450000Y-121449999D01*
X145950000Y-112950001D02*
X145750001Y-112950001D01*
X145950000Y-112950001D02*
X145950000Y-114350000D01*
X145950000Y-114350000D02*
X146000000Y-114400000D01*
X146000000Y-114400000D02*
X144500001Y-114400000D01*
X144500001Y-114400000D02*
X144450001Y-114450000D01*
D52*
X152200000Y-121300000D02*
X152200000Y-120900000D01*
D53*
X152800000Y-121300000D02*
X152200000Y-121300000D01*
X156000000Y-121300000D02*
X152800000Y-121300000D01*
X157350000Y-122650000D02*
X156000000Y-121300000D01*
X157350000Y-123000000D02*
X157350000Y-122650000D01*
D56*
X157400000Y-127800000D02*
X158520999Y-128920999D01*
X158520999Y-128920999D02*
X158520999Y-129600000D01*
X157350000Y-127800000D02*
X157400000Y-127800000D01*
X158100000Y-128550000D02*
X157350000Y-127800000D01*
X157100000Y-129600000D02*
X157100000Y-128200000D01*
X157100000Y-128200000D02*
X157100000Y-127050000D01*
X157600000Y-129600000D02*
X157600000Y-128700000D01*
X157600000Y-128700000D02*
X157100000Y-128200000D01*
D53*
X157350000Y-127800000D02*
X157350000Y-126800000D01*
X157350000Y-126800000D02*
X157350000Y-126200000D01*
D56*
X157100000Y-127050000D02*
X157350000Y-126800000D01*
X158100000Y-129600000D02*
X158500000Y-129600000D01*
X157600000Y-129600000D02*
X158100000Y-129600000D01*
X157100000Y-129600000D02*
X157600000Y-129600000D01*
D53*
X157350000Y-124600000D02*
X157350000Y-123000000D01*
X157350000Y-126200000D02*
X157350000Y-124600000D01*
D58*
X162100000Y-131050000D02*
X161350000Y-131050000D01*
X161350000Y-131050000D02*
X160800000Y-130500000D01*
X160800000Y-130500000D02*
X160000000Y-130500000D01*
X162100000Y-131050000D02*
X163800000Y-131050000D01*
X162100000Y-132250000D02*
X162100000Y-131050000D01*
X167150000Y-128200000D02*
X167150000Y-133050000D01*
X167150000Y-133050000D02*
X167730000Y-133630000D01*
X167730000Y-133630000D02*
X168840000Y-133630000D01*
X165300000Y-121800000D02*
X166280000Y-121800000D01*
X166280000Y-121800000D02*
X166340000Y-121860000D01*
X162600000Y-120100000D02*
X164250000Y-121750000D01*
X164250000Y-121750000D02*
X165574315Y-121750000D01*
X144450001Y-117450000D02*
X145300901Y-117450000D01*
X145300901Y-117450000D02*
X145810901Y-116940000D01*
X145810901Y-116940000D02*
X145940000Y-116940000D01*
X156370000Y-118370000D02*
X156400000Y-118340000D01*
X156400000Y-118340000D02*
X160840000Y-118340000D01*
X160840000Y-118340000D02*
X162600000Y-120100000D01*
X158850000Y-123000000D02*
X159010000Y-123000000D01*
X159010000Y-123000000D02*
X159700000Y-122310000D01*
D57*
X138550000Y-120200000D02*
X138470000Y-120200000D01*
X138470000Y-120200000D02*
X136920000Y-118650000D01*
X140150000Y-119150000D02*
X139100000Y-120200000D01*
X139100000Y-120200000D02*
X138550000Y-120200000D01*
X140150000Y-118800000D02*
X140150000Y-119150000D01*
X138670000Y-117350000D02*
X138670000Y-115920000D01*
X138670000Y-115920000D02*
X138550000Y-115800000D01*
X140150000Y-117200000D02*
X138820000Y-117200000D01*
X138820000Y-117200000D02*
X138670000Y-117350000D01*
D56*
X142550000Y-121800000D02*
X142360000Y-121610000D01*
X142360000Y-121610000D02*
X142360000Y-119090000D01*
X142360000Y-119090000D02*
X143000000Y-118450000D01*
X143000000Y-118450000D02*
X143550000Y-118450000D01*
D52*
X142550000Y-123400000D02*
X142550000Y-124761200D01*
X142550000Y-124761200D02*
X142588800Y-124800000D01*
X142550000Y-121800000D02*
X142550000Y-123400000D01*
D57*
X144450001Y-118450000D02*
X143550000Y-118450000D01*
X138410000Y-111750000D02*
X138410000Y-110340000D01*
X138410000Y-110340000D02*
X138550000Y-110200000D01*
X140100000Y-112500000D02*
X139350000Y-111750000D01*
X139350000Y-111750000D02*
X138410000Y-111750000D01*
X140150000Y-112500000D02*
X140100000Y-112500000D01*
X138410000Y-114250000D02*
X136500000Y-114250000D01*
X140150000Y-114100000D02*
X138560000Y-114100000D01*
X138560000Y-114100000D02*
X138410000Y-114250000D01*
D54*
X167200000Y-123170000D02*
X165840000Y-124530000D01*
X165930000Y-117097940D02*
X166527940Y-117097940D01*
X166527940Y-117097940D02*
X167020000Y-117590000D01*
X167020000Y-117590000D02*
X167020000Y-120150000D01*
X167200000Y-120330000D02*
X167200000Y-123170000D01*
X167020000Y-120150000D02*
X167200000Y-120330000D01*
X165840000Y-124530000D02*
X165840000Y-125760000D01*
X158152300Y-116447700D02*
X157500000Y-117100000D01*
X157500000Y-117100000D02*
X156650000Y-117100000D01*
X165930000Y-116447700D02*
X158152300Y-116447700D01*
X157950000Y-115750000D02*
X157500000Y-115300000D01*
X157500000Y-115300000D02*
X156650000Y-115300000D01*
X161900000Y-115750000D02*
X157950000Y-115750000D01*
X163600000Y-115750000D02*
X161900000Y-115750000D01*
X165930000Y-115800000D02*
X163650000Y-115800000D01*
X163650000Y-115800000D02*
X163600000Y-115750000D01*
X164700000Y-113300000D02*
X164450000Y-113050000D01*
X164450000Y-113050000D02*
X163600000Y-113050000D01*
X164700000Y-114900000D02*
X164700000Y-113300000D01*
X164952300Y-115152300D02*
X164700000Y-114900000D01*
X165930000Y-115152300D02*
X164952300Y-115152300D01*
D58*
X154500000Y-112000000D02*
X154600000Y-112000000D01*
X156200000Y-113600000D02*
X161400000Y-113600000D01*
X154600000Y-112000000D02*
X156200000Y-113600000D01*
X161400000Y-113600000D02*
X162700000Y-112300000D01*
X170200000Y-125650000D02*
X169840000Y-126010000D01*
X162700000Y-112300000D02*
X166700000Y-112300000D01*
X169840000Y-126010000D02*
X168840000Y-126010000D01*
X166700000Y-112300000D02*
X167800000Y-111200000D01*
X167800000Y-111200000D02*
X169200000Y-111200000D01*
X169200000Y-111200000D02*
X170200000Y-112200000D01*
X170200000Y-112200000D02*
X170200000Y-125650000D01*
X152040000Y-113220000D02*
X151770001Y-112950001D01*
X151770001Y-112950001D02*
X151450000Y-112950001D01*
X170010000Y-110950000D02*
X169760000Y-110700000D01*
X169760000Y-110700000D02*
X161700000Y-110700000D01*
X161700000Y-110700000D02*
X159600000Y-112800000D01*
X153749999Y-115450001D02*
X154400000Y-114800000D01*
X154400000Y-114800000D02*
X154400000Y-114400000D01*
X152949999Y-115450001D02*
X153749999Y-115450001D01*
X140870000Y-133210000D02*
X140870000Y-132070000D01*
X140870000Y-132070000D02*
X141120000Y-131820000D01*
X141120000Y-131820000D02*
X141120000Y-129080000D01*
X141120000Y-129080000D02*
X139930000Y-127890000D01*
X139930000Y-127890000D02*
X121220000Y-127890000D01*
X121220000Y-127890000D02*
X114860000Y-121530000D01*
X114860000Y-121530000D02*
X114860000Y-100800000D01*
X140870000Y-133210000D02*
X109210000Y-133210000D01*
X109210000Y-133210000D02*
X106853620Y-135566380D01*
X106853620Y-135566380D02*
X106853620Y-137152380D01*
X154432000Y-145796000D02*
X154432000Y-144574686D01*
X150278346Y-125160344D02*
X150659345Y-124779345D01*
X150278346Y-140421032D02*
X150278346Y-125160344D01*
X154432000Y-144574686D02*
X150278346Y-140421032D01*
X152949999Y-118450000D02*
X151960000Y-118450000D01*
X151960000Y-118450000D02*
X151400000Y-117890000D01*
X155700000Y-144260000D02*
X155700000Y-147068000D01*
X155700000Y-147068000D02*
X154432000Y-148336000D01*
X150740000Y-139300000D02*
X155700000Y-144260000D01*
X150740000Y-126460000D02*
X150740000Y-139300000D01*
X151510000Y-125690000D02*
X150740000Y-126460000D01*
X151510000Y-125680000D02*
X151510000Y-125690000D01*
X154190000Y-123000000D02*
X151510000Y-125680000D01*
X154190000Y-122460000D02*
X154190000Y-123000000D01*
X153810001Y-117950001D02*
X154200000Y-118340000D01*
X154200000Y-118340000D02*
X154200000Y-119110000D01*
X153770001Y-117950001D02*
X153810001Y-117950001D01*
X152949999Y-117950001D02*
X153770001Y-117950001D01*
X140340000Y-131560000D02*
X140340000Y-130350000D01*
X140340000Y-130350000D02*
X140510000Y-130180000D01*
X113600000Y-99520000D02*
X114860000Y-98260000D01*
X140510000Y-130180000D02*
X140510000Y-129590000D01*
X140510000Y-129590000D02*
X139340000Y-128420000D01*
X139340000Y-128420000D02*
X119470000Y-128420000D01*
X119470000Y-128420000D02*
X113600000Y-122550000D01*
X113600000Y-122550000D02*
X113600000Y-99520000D01*
X140340000Y-131560000D02*
X108990000Y-131560000D01*
X108990000Y-131560000D02*
X104653620Y-135896380D01*
X104653620Y-135896380D02*
X104653620Y-137152380D01*
X148980000Y-130420000D02*
X148980000Y-141880000D01*
X148980000Y-141880000D02*
X151892000Y-144792000D01*
X151892000Y-144792000D02*
X151892000Y-145796000D01*
X151064487Y-119450001D02*
X150893711Y-119279225D01*
X152949999Y-119450001D02*
X151064487Y-119450001D01*
X139640000Y-129960000D02*
X139640000Y-129440000D01*
X117730000Y-128920000D02*
X112320000Y-123510000D01*
X139640000Y-129440000D02*
X139120000Y-128920000D01*
X139120000Y-128920000D02*
X117730000Y-128920000D01*
X112320000Y-123510000D02*
X112320000Y-100800000D01*
X139640000Y-129960000D02*
X139630000Y-129950000D01*
X139630000Y-129950000D02*
X108830000Y-129950000D01*
X108830000Y-129950000D02*
X102453620Y-136326380D01*
X102453620Y-136326380D02*
X102453620Y-137152380D01*
X148970000Y-128310000D02*
X149690000Y-129030000D01*
X149690000Y-129030000D02*
X149690000Y-141190000D01*
X149690000Y-141190000D02*
X153120000Y-144620000D01*
X153120000Y-144620000D02*
X153120000Y-147108000D01*
X153120000Y-147108000D02*
X151892000Y-148336000D01*
X152949999Y-118949999D02*
X151569999Y-118949999D01*
X151569999Y-118949999D02*
X151190000Y-118570000D01*
X151190000Y-118570000D02*
X150220000Y-118570000D01*
X150220000Y-118570000D02*
X150210000Y-118580000D01*
X148260000Y-128970000D02*
X148260000Y-142660000D01*
X148260000Y-142660000D02*
X150600000Y-145000000D01*
X150600000Y-145000000D02*
X150600000Y-147088000D01*
X150600000Y-147088000D02*
X149352000Y-148336000D01*
X154380000Y-119950000D02*
X152949999Y-119950000D01*
X154910000Y-119420000D02*
X154380000Y-119950000D01*
X154910000Y-118150000D02*
X154910000Y-119420000D01*
X149779392Y-116196384D02*
X149240577Y-116196384D01*
X151324088Y-116196384D02*
X149779392Y-116196384D01*
X151404135Y-116276431D02*
X151324088Y-116196384D01*
X151556431Y-116276431D02*
X151404135Y-116276431D01*
X152230000Y-116950000D02*
X151556431Y-116276431D01*
X152949999Y-116950000D02*
X152230000Y-116950000D01*
X146840000Y-130320000D02*
X146830000Y-130330000D01*
X146830000Y-130330000D02*
X146830000Y-145778000D01*
X146830000Y-145778000D02*
X146812000Y-145796000D01*
X147550000Y-129620000D02*
X147550000Y-144020000D01*
X147550000Y-144020000D02*
X148080000Y-144550000D01*
X148080000Y-144550000D02*
X148080000Y-147068000D01*
X148080000Y-147068000D02*
X146812000Y-148336000D01*
X152949999Y-117450000D02*
X151980000Y-117450000D01*
X151980000Y-117450000D02*
X151250000Y-116720000D01*
X151250000Y-116720000D02*
X149974818Y-116720000D01*
X149974818Y-116720000D02*
X149610311Y-117084507D01*
X144272000Y-144574686D02*
X144272000Y-145796000D01*
X149950000Y-121449999D02*
X149950000Y-123845344D01*
X149230000Y-124565344D02*
X149230000Y-126270000D01*
X145620000Y-142890000D02*
X144272000Y-144238000D01*
X145620000Y-129880000D02*
X145620000Y-142890000D01*
X149950000Y-123845344D02*
X149230000Y-124565344D01*
X149230000Y-126270000D02*
X145620000Y-129880000D01*
X144272000Y-144238000D02*
X144272000Y-144574686D01*
X145570000Y-144740000D02*
X146100000Y-144210000D01*
X149720000Y-126430000D02*
X149720000Y-124717412D01*
X144272000Y-148336000D02*
X145570000Y-147038000D01*
X146100000Y-130050000D02*
X149720000Y-126430000D01*
X150449999Y-122300899D02*
X150449999Y-121449999D01*
X149720000Y-124717412D02*
X150449999Y-123987413D01*
X145570000Y-147038000D02*
X145570000Y-144740000D01*
X146100000Y-144210000D02*
X146100000Y-130050000D01*
X150449999Y-123987413D02*
X150449999Y-122300899D01*
X144680000Y-141610000D02*
X141732000Y-144558000D01*
X144680000Y-129520000D02*
X144680000Y-141610000D01*
X141732000Y-144558000D02*
X141732000Y-144574686D01*
X148260000Y-125940000D02*
X144680000Y-129520000D01*
X148260000Y-124251208D02*
X148260000Y-125940000D01*
X148950000Y-123561208D02*
X148260000Y-124251208D01*
X148950000Y-121449999D02*
X148950000Y-123561208D01*
X141732000Y-144574686D02*
X141732000Y-145796000D01*
X141732000Y-148336000D02*
X143050000Y-147018000D01*
X143050000Y-147018000D02*
X143050000Y-144360000D01*
X143050000Y-144360000D02*
X145160000Y-142250000D01*
X145160000Y-142250000D02*
X145160000Y-129690000D01*
X145160000Y-129690000D02*
X148770000Y-126080000D01*
X148770000Y-126080000D02*
X148770000Y-124383276D01*
X148770000Y-124383276D02*
X149450001Y-123703275D01*
X149450001Y-123703275D02*
X149450001Y-122300899D01*
X149450001Y-122300899D02*
X149450001Y-121449999D01*
X147949999Y-121449999D02*
X147949999Y-123277073D01*
X147949999Y-123277073D02*
X147350000Y-123877072D01*
X147350000Y-123877072D02*
X147350000Y-125540000D01*
X147350000Y-125540000D02*
X143740001Y-129149999D01*
X139192000Y-144888000D02*
X139192000Y-145796000D01*
X143740001Y-129149999D02*
X143740001Y-140339999D01*
X143740001Y-140339999D02*
X139192000Y-144888000D01*
X147805990Y-124063150D02*
X148450000Y-123419140D01*
X147805990Y-125744010D02*
X147805990Y-124063150D01*
X148450000Y-122300899D02*
X148450000Y-121449999D01*
X140460000Y-144700000D02*
X144210000Y-140950000D01*
X144210000Y-140950000D02*
X144210000Y-129340000D01*
X148450000Y-123419140D02*
X148450000Y-122300899D01*
X139192000Y-148336000D02*
X140460000Y-147068000D01*
X144210000Y-129340000D02*
X147805990Y-125744010D01*
X140460000Y-147068000D02*
X140460000Y-144700000D01*
X146950001Y-121449999D02*
X146950001Y-122300899D01*
X142810000Y-138790000D02*
X136652000Y-144948000D01*
X146950001Y-122300899D02*
X147010875Y-122361773D01*
X147010875Y-122361773D02*
X147010875Y-122932061D01*
X147010875Y-122932061D02*
X146440000Y-123502936D01*
X142810000Y-128780000D02*
X142810000Y-138790000D01*
X146440000Y-123502936D02*
X146440000Y-125150000D01*
X146440000Y-125150000D02*
X142810000Y-128780000D01*
X136652000Y-144948000D02*
X136652000Y-145796000D01*
X136652000Y-148336000D02*
X137880000Y-147108000D01*
X137880000Y-147108000D02*
X137880000Y-144940000D01*
X137880000Y-144940000D02*
X143285990Y-139534010D01*
X143285990Y-139534010D02*
X143285990Y-128954010D01*
X143285990Y-128954010D02*
X146895990Y-125344010D01*
X146895990Y-125344010D02*
X146895990Y-123689014D01*
X146895990Y-123689014D02*
X147464886Y-123120118D01*
X147464886Y-123120118D02*
X147464886Y-121464885D01*
X147464886Y-121464885D02*
X147450000Y-121449999D01*
X155600000Y-132200000D02*
X155900000Y-132200000D01*
X155800000Y-132000000D02*
X155600000Y-132200000D01*
X156200000Y-132000000D02*
X155800000Y-132000000D01*
D56*
X155380000Y-132720000D02*
X154900000Y-132720000D01*
X154900000Y-132720000D02*
X153590000Y-132720000D01*
D58*
X156200000Y-132000000D02*
X155620000Y-132000000D01*
X155620000Y-132000000D02*
X154900000Y-132720000D01*
D56*
X156200000Y-132500000D02*
X156200000Y-132100000D01*
X155600000Y-132500000D02*
X155380000Y-132720000D01*
X156200000Y-132500000D02*
X155600000Y-132500000D01*
X156200000Y-130500000D02*
X156200000Y-130900000D01*
X156200000Y-130900000D02*
X156000000Y-130900000D01*
X156000000Y-130900000D02*
X155370000Y-130270000D01*
X155370000Y-130270000D02*
X154900000Y-130270000D01*
X154900000Y-130270000D02*
X153590000Y-130270000D01*
D58*
X156200000Y-131000000D02*
X155630000Y-131000000D01*
X155630000Y-131000000D02*
X154900000Y-130270000D01*
X145511998Y-125418002D02*
X142070000Y-128860000D01*
X142070000Y-128860000D02*
X142070000Y-134301185D01*
X145511998Y-122332501D02*
X145511998Y-125418002D01*
X145950000Y-121449999D02*
X145950000Y-121894499D01*
X145950000Y-121894499D02*
X145511998Y-122332501D01*
X142070000Y-134301185D02*
X142070000Y-134840000D01*
X139931185Y-134840000D02*
X140470000Y-134840000D01*
X109137000Y-134840000D02*
X139931185Y-134840000D01*
X107953620Y-136023380D02*
X109137000Y-134840000D01*
X107953620Y-137152380D02*
X107953620Y-136023380D01*
X107950000Y-140400000D02*
X107950000Y-137156000D01*
X107950000Y-137156000D02*
X107953620Y-137152380D01*
X152949999Y-116449999D02*
X153949999Y-116449999D01*
X153949999Y-116449999D02*
X154600000Y-117100000D01*
X154600000Y-117100000D02*
X155150000Y-117100000D01*
X153950000Y-115950000D02*
X154600000Y-115300000D01*
X154600000Y-115300000D02*
X155150000Y-115300000D01*
X152949999Y-115950000D02*
X153950000Y-115950000D01*
X160800000Y-132200000D02*
X160600000Y-132000000D01*
X160600000Y-132000000D02*
X160000000Y-132000000D01*
X160800000Y-134600000D02*
X160800000Y-132200000D01*
X161400000Y-135200000D02*
X160800000Y-134600000D01*
X161850000Y-135200000D02*
X161400000Y-135200000D01*
X163350000Y-136800000D02*
X163000000Y-136800000D01*
X163000000Y-136800000D02*
X162500000Y-136300000D01*
X162500000Y-136300000D02*
X162500000Y-135500000D01*
X162500000Y-135500000D02*
X162200000Y-135200000D01*
X162200000Y-135200000D02*
X161850000Y-135200000D01*
D57*
X147950000Y-110500000D02*
X147950000Y-108900000D01*
X147949999Y-112950001D02*
X147949999Y-110500001D01*
X147949999Y-110500001D02*
X147950000Y-110500000D01*
X143050001Y-116449999D02*
X142300000Y-117200000D01*
X142300000Y-117200000D02*
X141650000Y-117200000D01*
X144450001Y-116449999D02*
X143050001Y-116449999D01*
X144450001Y-116950000D02*
X143650000Y-116950000D01*
X143650000Y-116950000D02*
X141800000Y-118800000D01*
X141800000Y-118800000D02*
X141650000Y-118800000D01*
D55*
X142720000Y-113990000D02*
X141650000Y-112920000D01*
X141650000Y-112920000D02*
X141650000Y-112500000D01*
X142720000Y-114590000D02*
X142720000Y-113990000D01*
X143580001Y-115450001D02*
X142720000Y-114590000D01*
X144450001Y-115450001D02*
X143580001Y-115450001D01*
X143160000Y-115950000D02*
X141650000Y-114440000D01*
X141650000Y-114440000D02*
X141650000Y-114100000D01*
X144450001Y-115950000D02*
X143160000Y-115950000D01*
D58*
X161850000Y-138200000D02*
X161850000Y-138400000D01*
X161240000Y-135710000D02*
X161240000Y-137590000D01*
X160318002Y-133197002D02*
X160318002Y-134788002D01*
X161240000Y-137590000D02*
X161850000Y-138200000D01*
X160000000Y-132879000D02*
X160318002Y-133197002D01*
X160318002Y-134788002D02*
X161240000Y-135710000D01*
X160000000Y-132500000D02*
X160000000Y-132879000D01*
D52*
X165840000Y-128710000D02*
X165840000Y-135820000D01*
X165840000Y-135820000D02*
X167280000Y-137260000D01*
X167280000Y-137260000D02*
X169450000Y-137260000D01*
X169450000Y-137260000D02*
X169760000Y-136950000D01*
X167490000Y-141240000D02*
X162311458Y-141240000D01*
X162311458Y-141240000D02*
X160200000Y-143351458D01*
X160200000Y-143351458D02*
X160200000Y-148460000D01*
X160200000Y-148460000D02*
X158423000Y-150237000D01*
X158423000Y-150237000D02*
X132792000Y-150237000D01*
X132792000Y-150237000D02*
X131420000Y-148865000D01*
X131420000Y-148865000D02*
X131420000Y-148850000D01*
X167490000Y-141240000D02*
X167820000Y-140910000D01*
X167160000Y-141570000D02*
X167490000Y-141240000D01*
X168840000Y-146250000D02*
X168840000Y-145870000D01*
X168840000Y-145870000D02*
X168200000Y-145230000D01*
X168200000Y-145230000D02*
X168200000Y-144850000D01*
X168200000Y-144850000D02*
X167479101Y-144129101D01*
X167479101Y-144129101D02*
X167479101Y-143529101D01*
X167479101Y-143529101D02*
X167160000Y-143210000D01*
X167160000Y-143210000D02*
X167160000Y-141570000D01*
X167820000Y-140910000D02*
X167820000Y-140900000D01*
X167820000Y-140900000D02*
X168640000Y-140080000D01*
X168640000Y-140080000D02*
X168840000Y-140080000D01*
X168250000Y-146250000D02*
X168840000Y-146250000D01*
X168840000Y-140080000D02*
X169560000Y-140080000D01*
X169560000Y-140080000D02*
X170050000Y-139590000D01*
X170050000Y-137240000D02*
X169760000Y-136950000D01*
X170050000Y-139590000D02*
X170050000Y-137240000D01*
X168840000Y-146250000D02*
X168840000Y-145620000D01*
X131420000Y-148850000D02*
X131420000Y-149120000D01*
D58*
X141520000Y-121050000D02*
X139970000Y-121050000D01*
X139970000Y-121050000D02*
X138550000Y-122470000D01*
X138550000Y-122470000D02*
X138550000Y-123100000D01*
X144450001Y-119950000D02*
X144190000Y-119950000D01*
X144190000Y-119950000D02*
X143400000Y-120740000D01*
D57*
X138550000Y-123100000D02*
X138550000Y-124700000D01*
D58*
X152890000Y-109360000D02*
X154860000Y-109360000D01*
X154860000Y-109360000D02*
X155800000Y-108420000D01*
X155800000Y-108420000D02*
X163160000Y-108420000D01*
X163160000Y-108420000D02*
X164690000Y-109950000D01*
X150950001Y-111189999D02*
X150950001Y-112950001D01*
X151190000Y-110950000D02*
X150950001Y-111189999D01*
X163620000Y-114900000D02*
X163600000Y-114880000D01*
X163600000Y-114880000D02*
X163600000Y-114250000D01*
D57*
X136600000Y-123100000D02*
X135000000Y-121500000D01*
X135000000Y-121500000D02*
X134350000Y-121500000D01*
X137050000Y-123100000D02*
X136600000Y-123100000D01*
X132850000Y-123100000D02*
X132850000Y-123200000D01*
X132850000Y-123200000D02*
X134350000Y-124700000D01*
X134350000Y-121500000D02*
X134350000Y-121600000D01*
X134350000Y-121600000D02*
X132850000Y-123100000D01*
D58*
X141500000Y-120060000D02*
X140200000Y-120060000D01*
X140200000Y-120060000D02*
X137860000Y-122400000D01*
X137860000Y-122400000D02*
X137860000Y-123540000D01*
X137860000Y-123540000D02*
X137460000Y-123940000D01*
X137460000Y-123940000D02*
X136150000Y-123940000D01*
X136150000Y-123940000D02*
X135310000Y-123100000D01*
X135310000Y-123100000D02*
X134350000Y-123100000D01*
X144450001Y-119450001D02*
X143399999Y-119450001D01*
X143399999Y-119450001D02*
X143360000Y-119490000D01*
X145220000Y-96820000D02*
X129000000Y-96820000D01*
X129000000Y-96820000D02*
X127560000Y-98260000D01*
X151060000Y-102660000D02*
X145220000Y-96820000D01*
X151060000Y-107560000D02*
X151060000Y-102660000D01*
X149950000Y-112950001D02*
X149950000Y-111800000D01*
X149950000Y-111800000D02*
X150220000Y-111530000D01*
X126300000Y-97240000D02*
X126300000Y-99540000D01*
X126300000Y-99540000D02*
X127560000Y-100800000D01*
X127230000Y-96310000D02*
X126300000Y-97240000D01*
X146810000Y-96310000D02*
X127230000Y-96310000D01*
X154120000Y-103620000D02*
X146810000Y-96310000D01*
X154120000Y-108630000D02*
X154120000Y-103620000D01*
X150449999Y-112950001D02*
X150449999Y-114007720D01*
X150449999Y-114007720D02*
X150466841Y-114024562D01*
X148440000Y-107090000D02*
X148440000Y-106551185D01*
X148440000Y-106551185D02*
X145588815Y-103700000D01*
X145588815Y-103700000D02*
X125270000Y-103700000D01*
X125270000Y-103700000D02*
X123760000Y-102190000D01*
X123760000Y-102190000D02*
X123760000Y-99520000D01*
X123760000Y-99520000D02*
X125020000Y-98260000D01*
X148950000Y-112950001D02*
X148950000Y-111824721D01*
X148950000Y-111824721D02*
X149124721Y-111650000D01*
X147900000Y-104970000D02*
X145920000Y-102990000D01*
X145920000Y-102990000D02*
X125988686Y-102990000D01*
X125988686Y-102990000D02*
X125020000Y-102021314D01*
X125020000Y-102021314D02*
X125020000Y-100800000D01*
X149450001Y-112950001D02*
X149450001Y-113979916D01*
X149450001Y-113979916D02*
X149364486Y-114065431D01*
X147450000Y-112950001D02*
X147450000Y-111530000D01*
X121616401Y-99123599D02*
X122480000Y-98260000D01*
X147450000Y-111530000D02*
X147030000Y-111110000D01*
X147030000Y-111110000D02*
X147030000Y-108830000D01*
X147030000Y-108830000D02*
X143810000Y-105610000D01*
X143810000Y-105610000D02*
X124010000Y-105610000D01*
X124010000Y-105610000D02*
X121210000Y-102810000D01*
X121210000Y-102810000D02*
X121210000Y-99530000D01*
X121210000Y-99530000D02*
X121616401Y-99123599D01*
X148450000Y-112950001D02*
X148450000Y-112099101D01*
X148450000Y-112099101D02*
X148416709Y-112065810D01*
X148416709Y-112065810D02*
X148416709Y-111321893D01*
X148416709Y-111321893D02*
X148527001Y-111211601D01*
X148527001Y-111211601D02*
X148527001Y-108188399D01*
X148527001Y-108188399D02*
X145198602Y-104860000D01*
X145198602Y-104860000D02*
X124890000Y-104860000D01*
X124890000Y-104860000D02*
X122480000Y-102450000D01*
X122480000Y-102450000D02*
X122480000Y-100800000D01*
X142130000Y-110530000D02*
X142110000Y-110530000D01*
X142110000Y-110530000D02*
X138950000Y-107370000D01*
X138950000Y-107370000D02*
X122400000Y-107370000D01*
X122400000Y-107370000D02*
X118650000Y-103620000D01*
X118650000Y-103620000D02*
X118650000Y-99550000D01*
X118650000Y-99550000D02*
X119940000Y-98260000D01*
D55*
X142510000Y-110910000D02*
X142130000Y-110530000D01*
X142510000Y-113090000D02*
X142510000Y-110910000D01*
X143210000Y-113790000D02*
X142510000Y-113090000D01*
X143210000Y-114420000D02*
X143210000Y-113790000D01*
X143739999Y-114949999D02*
X143210000Y-114420000D01*
X144450001Y-114949999D02*
X143739999Y-114949999D01*
D58*
X146950001Y-112950001D02*
X146950001Y-111672069D01*
X146950001Y-111672069D02*
X146525989Y-111248057D01*
X146525989Y-111248057D02*
X146525989Y-110435989D01*
X146525989Y-110435989D02*
X142620000Y-106530000D01*
X142620000Y-106530000D02*
X123280000Y-106530000D01*
X123280000Y-106530000D02*
X119940000Y-103190000D01*
X119940000Y-103190000D02*
X119940000Y-102021314D01*
X119940000Y-102021314D02*
X119940000Y-100800000D01*
X137310000Y-121860000D02*
X136580000Y-121860000D01*
X136580000Y-121860000D02*
X131220000Y-116500000D01*
X131220000Y-116500000D02*
X120870000Y-116500000D01*
X120870000Y-116500000D02*
X116110000Y-111740000D01*
X116110000Y-111740000D02*
X116110000Y-99550000D01*
X116110000Y-99550000D02*
X117400000Y-98260000D01*
X146449999Y-121449999D02*
X146449999Y-122460001D01*
X146449999Y-122460001D02*
X146220000Y-122690000D01*
X145446386Y-118949999D02*
X145591462Y-119095075D01*
X144450001Y-118949999D02*
X145446386Y-118949999D01*
X142260000Y-116100000D02*
X141251989Y-115091989D01*
X141251989Y-115091989D02*
X136287953Y-115091989D01*
X136287953Y-115091989D02*
X136285964Y-115090000D01*
X136285964Y-115090000D02*
X121410000Y-115090000D01*
X121410000Y-115090000D02*
X117400000Y-111080000D01*
X117400000Y-111080000D02*
X117400000Y-100800000D01*
D52*
X165398000Y-139450000D02*
X164711980Y-140136020D01*
X164711980Y-140136020D02*
X160810980Y-140136020D01*
X160810980Y-140136020D02*
X160147000Y-140800000D01*
X166960000Y-139450000D02*
X165398000Y-139450000D01*
X160147000Y-140800000D02*
X158930000Y-140800000D01*
X168840000Y-138580000D02*
X167830000Y-138580000D01*
X167830000Y-138580000D02*
X166960000Y-139450000D01*
D58*
G36*
X163602000Y-125643264D02*
X163602000Y-125937983D01*
X163512250Y-125867355D01*
X162779605Y-126600000D01*
X163512250Y-127332645D01*
X163662127Y-127214700D01*
X163730809Y-127013061D01*
X163809368Y-127130632D01*
X164474170Y-127795434D01*
X164703862Y-127948909D01*
X164915298Y-127990967D01*
X164896594Y-128085000D01*
X164896594Y-129335000D01*
X164921973Y-129462589D01*
X164994246Y-129570754D01*
X165102411Y-129643027D01*
X165132000Y-129648913D01*
X165132000Y-135819995D01*
X165131999Y-135820000D01*
X165172102Y-136021607D01*
X165181344Y-138785095D01*
X165127060Y-138795893D01*
X164897368Y-138949368D01*
X164897366Y-138949371D01*
X164694657Y-139152080D01*
X163738628Y-139150651D01*
X163835754Y-139085754D01*
X163908027Y-138977589D01*
X163933406Y-138850000D01*
X163933406Y-137950000D01*
X163908027Y-137822411D01*
X163835754Y-137714246D01*
X163727589Y-137641973D01*
X163600000Y-137616594D01*
X163100000Y-137616594D01*
X162972411Y-137641973D01*
X162954000Y-137654275D01*
X162954000Y-137545725D01*
X162972411Y-137558027D01*
X163100000Y-137583406D01*
X163600000Y-137583406D01*
X163727589Y-137558027D01*
X163835754Y-137485754D01*
X163908027Y-137377589D01*
X163933406Y-137250000D01*
X163933406Y-136350000D01*
X163908027Y-136222411D01*
X163835754Y-136114246D01*
X163727589Y-136041973D01*
X163600000Y-136016594D01*
X163100000Y-136016594D01*
X162972411Y-136041973D01*
X162954000Y-136054275D01*
X162954000Y-135827289D01*
X162970509Y-135843798D01*
X163054529Y-135878600D01*
X163167850Y-135878600D01*
X163225000Y-135821450D01*
X163225000Y-135327000D01*
X163475000Y-135327000D01*
X163475000Y-135821450D01*
X163532150Y-135878600D01*
X163645471Y-135878600D01*
X163729491Y-135843798D01*
X163793797Y-135779492D01*
X163828600Y-135695472D01*
X163828600Y-135384150D01*
X163771450Y-135327000D01*
X163475000Y-135327000D01*
X163225000Y-135327000D01*
X162928550Y-135327000D01*
X162921075Y-135334475D01*
X162919441Y-135326262D01*
X162895585Y-135290559D01*
X162821026Y-135178973D01*
X162521026Y-134878974D01*
X162433406Y-134820428D01*
X162433406Y-134750000D01*
X162424362Y-134704528D01*
X162871400Y-134704528D01*
X162871400Y-135015850D01*
X162928550Y-135073000D01*
X163225000Y-135073000D01*
X163225000Y-134578550D01*
X163475000Y-134578550D01*
X163475000Y-135073000D01*
X163771450Y-135073000D01*
X163828600Y-135015850D01*
X163828600Y-134704528D01*
X163793797Y-134620508D01*
X163729491Y-134556202D01*
X163645471Y-134521400D01*
X163532150Y-134521400D01*
X163475000Y-134578550D01*
X163225000Y-134578550D01*
X163167850Y-134521400D01*
X163054529Y-134521400D01*
X162970509Y-134556202D01*
X162906203Y-134620508D01*
X162871400Y-134704528D01*
X162424362Y-134704528D01*
X162408027Y-134622411D01*
X162335754Y-134514246D01*
X162227589Y-134441973D01*
X162100000Y-134416594D01*
X161600000Y-134416594D01*
X161472411Y-134441973D01*
X161364246Y-134514246D01*
X161361063Y-134519010D01*
X161254000Y-134411948D01*
X161254000Y-133932150D01*
X161421400Y-133932150D01*
X161421400Y-134045471D01*
X161456202Y-134129491D01*
X161520508Y-134193797D01*
X161604528Y-134228600D01*
X161915850Y-134228600D01*
X161973000Y-134171450D01*
X161973000Y-133875000D01*
X162227000Y-133875000D01*
X162227000Y-134171450D01*
X162284150Y-134228600D01*
X162595472Y-134228600D01*
X162679492Y-134193797D01*
X162743798Y-134129491D01*
X162778600Y-134045471D01*
X162778600Y-133932150D01*
X162721450Y-133875000D01*
X162227000Y-133875000D01*
X161973000Y-133875000D01*
X161478550Y-133875000D01*
X161421400Y-133932150D01*
X161254000Y-133932150D01*
X161254000Y-133454529D01*
X161421400Y-133454529D01*
X161421400Y-133567850D01*
X161478550Y-133625000D01*
X161973000Y-133625000D01*
X161973000Y-133328550D01*
X162227000Y-133328550D01*
X162227000Y-133625000D01*
X162721450Y-133625000D01*
X162778600Y-133567850D01*
X162778600Y-133454529D01*
X162743798Y-133370509D01*
X162679492Y-133306203D01*
X162595472Y-133271400D01*
X162284150Y-133271400D01*
X162227000Y-133328550D01*
X161973000Y-133328550D01*
X161915850Y-133271400D01*
X161604528Y-133271400D01*
X161520508Y-133306203D01*
X161456202Y-133370509D01*
X161421400Y-133454529D01*
X161254000Y-133454529D01*
X161254000Y-132200000D01*
X161219441Y-132026262D01*
X161201893Y-132000000D01*
X161121027Y-131878974D01*
X160921026Y-131678974D01*
X160773738Y-131580559D01*
X160758807Y-131577589D01*
X160660535Y-131558041D01*
X160661952Y-131004004D01*
X161028973Y-131371026D01*
X161176261Y-131469441D01*
X161205086Y-131475175D01*
X161350000Y-131504000D01*
X161393029Y-131504000D01*
X161414246Y-131535754D01*
X161522411Y-131608027D01*
X161646000Y-131632610D01*
X161646000Y-131667390D01*
X161522411Y-131691973D01*
X161414246Y-131764246D01*
X161341973Y-131872411D01*
X161316594Y-132000000D01*
X161316594Y-132500000D01*
X161341973Y-132627589D01*
X161414246Y-132735754D01*
X161522411Y-132808027D01*
X161650000Y-132833406D01*
X162550000Y-132833406D01*
X162677589Y-132808027D01*
X162785754Y-132735754D01*
X162858027Y-132627589D01*
X162883406Y-132500000D01*
X162883406Y-132000000D01*
X162858027Y-131872411D01*
X162785754Y-131764246D01*
X162677589Y-131691973D01*
X162554000Y-131667390D01*
X162554000Y-131632610D01*
X162677589Y-131608027D01*
X162785754Y-131535754D01*
X162806971Y-131504000D01*
X163102335Y-131504000D01*
X163116973Y-131577589D01*
X163189246Y-131685754D01*
X163297411Y-131758027D01*
X163425000Y-131783406D01*
X164175000Y-131783406D01*
X164302589Y-131758027D01*
X164410754Y-131685754D01*
X164483027Y-131577589D01*
X164508406Y-131450000D01*
X164508406Y-130650000D01*
X164483027Y-130522411D01*
X164410754Y-130414246D01*
X164302589Y-130341973D01*
X164175000Y-130316594D01*
X163425000Y-130316594D01*
X163297411Y-130341973D01*
X163189246Y-130414246D01*
X163116973Y-130522411D01*
X163102335Y-130596000D01*
X162806971Y-130596000D01*
X162785754Y-130564246D01*
X162677589Y-130491973D01*
X162550000Y-130466594D01*
X161650000Y-130466594D01*
X161522411Y-130491973D01*
X161469428Y-130527375D01*
X161121026Y-130178974D01*
X160973738Y-130080559D01*
X160958807Y-130077589D01*
X160908087Y-130067500D01*
X161461758Y-130067500D01*
X161522411Y-130108027D01*
X161650000Y-130133406D01*
X161723248Y-130133406D01*
X161829060Y-130204107D01*
X162100000Y-130258000D01*
X163297371Y-130258000D01*
X163297411Y-130258027D01*
X163425000Y-130283406D01*
X164175000Y-130283406D01*
X164302589Y-130258027D01*
X164410754Y-130185754D01*
X164483027Y-130077589D01*
X164508406Y-129950000D01*
X164508406Y-129150000D01*
X164483027Y-129022411D01*
X164410754Y-128914246D01*
X164302589Y-128841973D01*
X164175000Y-128816594D01*
X163425000Y-128816594D01*
X163297411Y-128841973D01*
X163297371Y-128842000D01*
X162100000Y-128842000D01*
X161829060Y-128895893D01*
X161723248Y-128966594D01*
X161650000Y-128966594D01*
X161522411Y-128991973D01*
X161461758Y-129032500D01*
X160666994Y-129032500D01*
X160667000Y-129030325D01*
X160657457Y-128981699D01*
X160620421Y-128931707D01*
X159740421Y-128211707D01*
X159674389Y-128183818D01*
X159478600Y-128161491D01*
X159478600Y-127984150D01*
X159421450Y-127927000D01*
X158977000Y-127927000D01*
X158977000Y-127947000D01*
X158723000Y-127947000D01*
X158723000Y-127927000D01*
X158703000Y-127927000D01*
X158703000Y-127673000D01*
X158723000Y-127673000D01*
X158723000Y-127253550D01*
X158977000Y-127253550D01*
X158977000Y-127673000D01*
X159421450Y-127673000D01*
X159478600Y-127615850D01*
X159478600Y-127512250D01*
X161867355Y-127512250D01*
X161985300Y-127662127D01*
X162438550Y-127816513D01*
X162916379Y-127785696D01*
X163214700Y-127662127D01*
X163332645Y-127512250D01*
X162600000Y-126779605D01*
X161867355Y-127512250D01*
X159478600Y-127512250D01*
X159478600Y-127379528D01*
X159443797Y-127295508D01*
X159379491Y-127231202D01*
X159295471Y-127196400D01*
X159034150Y-127196400D01*
X158977000Y-127253550D01*
X158723000Y-127253550D01*
X158665850Y-127196400D01*
X158478358Y-127196400D01*
X158479358Y-126803600D01*
X158665850Y-126803600D01*
X158723000Y-126746450D01*
X158723000Y-126327000D01*
X158977000Y-126327000D01*
X158977000Y-126746450D01*
X159034150Y-126803600D01*
X159295471Y-126803600D01*
X159379491Y-126768798D01*
X159443797Y-126704492D01*
X159478600Y-126620472D01*
X159478600Y-126438550D01*
X161383487Y-126438550D01*
X161414304Y-126916379D01*
X161537873Y-127214700D01*
X161687750Y-127332645D01*
X162420395Y-126600000D01*
X161687750Y-125867355D01*
X161537873Y-125985300D01*
X161383487Y-126438550D01*
X159478600Y-126438550D01*
X159478600Y-126384150D01*
X159421450Y-126327000D01*
X158977000Y-126327000D01*
X158723000Y-126327000D01*
X158703000Y-126327000D01*
X158703000Y-126073000D01*
X158723000Y-126073000D01*
X158723000Y-125653550D01*
X158977000Y-125653550D01*
X158977000Y-126073000D01*
X159421450Y-126073000D01*
X159478600Y-126015850D01*
X159478600Y-125779528D01*
X159443797Y-125695508D01*
X159436039Y-125687750D01*
X161867355Y-125687750D01*
X162600000Y-126420395D01*
X163332645Y-125687750D01*
X163214700Y-125537873D01*
X162761450Y-125383487D01*
X162283621Y-125414304D01*
X161985300Y-125537873D01*
X161867355Y-125687750D01*
X159436039Y-125687750D01*
X159379491Y-125631202D01*
X159295471Y-125596400D01*
X159034150Y-125596400D01*
X158977000Y-125653550D01*
X158723000Y-125653550D01*
X158665850Y-125596400D01*
X158482430Y-125596400D01*
X158483429Y-125203600D01*
X158665850Y-125203600D01*
X158723000Y-125146450D01*
X158723000Y-124727000D01*
X158977000Y-124727000D01*
X158977000Y-125146450D01*
X159034150Y-125203600D01*
X159295471Y-125203600D01*
X159379491Y-125168798D01*
X159443797Y-125104492D01*
X159478600Y-125020472D01*
X159478600Y-124784150D01*
X159421450Y-124727000D01*
X158977000Y-124727000D01*
X158723000Y-124727000D01*
X158703000Y-124727000D01*
X158703000Y-124473000D01*
X158723000Y-124473000D01*
X158723000Y-124053550D01*
X158977000Y-124053550D01*
X158977000Y-124473000D01*
X159421450Y-124473000D01*
X159478600Y-124415850D01*
X159478600Y-124179528D01*
X159443797Y-124095508D01*
X159379491Y-124031202D01*
X159295471Y-123996400D01*
X159034150Y-123996400D01*
X158977000Y-124053550D01*
X158723000Y-124053550D01*
X158665850Y-123996400D01*
X158486501Y-123996400D01*
X158486678Y-123927000D01*
X161885736Y-123927000D01*
X163602000Y-125643264D01*
X163602000Y-125643264D01*
G37*
X163602000Y-125643264D02*
X163602000Y-125937983D01*
X163512250Y-125867355D01*
X162779605Y-126600000D01*
X163512250Y-127332645D01*
X163662127Y-127214700D01*
X163730809Y-127013061D01*
X163809368Y-127130632D01*
X164474170Y-127795434D01*
X164703862Y-127948909D01*
X164915298Y-127990967D01*
X164896594Y-128085000D01*
X164896594Y-129335000D01*
X164921973Y-129462589D01*
X164994246Y-129570754D01*
X165102411Y-129643027D01*
X165132000Y-129648913D01*
X165132000Y-135819995D01*
X165131999Y-135820000D01*
X165172102Y-136021607D01*
X165181344Y-138785095D01*
X165127060Y-138795893D01*
X164897368Y-138949368D01*
X164897366Y-138949371D01*
X164694657Y-139152080D01*
X163738628Y-139150651D01*
X163835754Y-139085754D01*
X163908027Y-138977589D01*
X163933406Y-138850000D01*
X163933406Y-137950000D01*
X163908027Y-137822411D01*
X163835754Y-137714246D01*
X163727589Y-137641973D01*
X163600000Y-137616594D01*
X163100000Y-137616594D01*
X162972411Y-137641973D01*
X162954000Y-137654275D01*
X162954000Y-137545725D01*
X162972411Y-137558027D01*
X163100000Y-137583406D01*
X163600000Y-137583406D01*
X163727589Y-137558027D01*
X163835754Y-137485754D01*
X163908027Y-137377589D01*
X163933406Y-137250000D01*
X163933406Y-136350000D01*
X163908027Y-136222411D01*
X163835754Y-136114246D01*
X163727589Y-136041973D01*
X163600000Y-136016594D01*
X163100000Y-136016594D01*
X162972411Y-136041973D01*
X162954000Y-136054275D01*
X162954000Y-135827289D01*
X162970509Y-135843798D01*
X163054529Y-135878600D01*
X163167850Y-135878600D01*
X163225000Y-135821450D01*
X163225000Y-135327000D01*
X163475000Y-135327000D01*
X163475000Y-135821450D01*
X163532150Y-135878600D01*
X163645471Y-135878600D01*
X163729491Y-135843798D01*
X163793797Y-135779492D01*
X163828600Y-135695472D01*
X163828600Y-135384150D01*
X163771450Y-135327000D01*
X163475000Y-135327000D01*
X163225000Y-135327000D01*
X162928550Y-135327000D01*
X162921075Y-135334475D01*
X162919441Y-135326262D01*
X162895585Y-135290559D01*
X162821026Y-135178973D01*
X162521026Y-134878974D01*
X162433406Y-134820428D01*
X162433406Y-134750000D01*
X162424362Y-134704528D01*
X162871400Y-134704528D01*
X162871400Y-135015850D01*
X162928550Y-135073000D01*
X163225000Y-135073000D01*
X163225000Y-134578550D01*
X163475000Y-134578550D01*
X163475000Y-135073000D01*
X163771450Y-135073000D01*
X163828600Y-135015850D01*
X163828600Y-134704528D01*
X163793797Y-134620508D01*
X163729491Y-134556202D01*
X163645471Y-134521400D01*
X163532150Y-134521400D01*
X163475000Y-134578550D01*
X163225000Y-134578550D01*
X163167850Y-134521400D01*
X163054529Y-134521400D01*
X162970509Y-134556202D01*
X162906203Y-134620508D01*
X162871400Y-134704528D01*
X162424362Y-134704528D01*
X162408027Y-134622411D01*
X162335754Y-134514246D01*
X162227589Y-134441973D01*
X162100000Y-134416594D01*
X161600000Y-134416594D01*
X161472411Y-134441973D01*
X161364246Y-134514246D01*
X161361063Y-134519010D01*
X161254000Y-134411948D01*
X161254000Y-133932150D01*
X161421400Y-133932150D01*
X161421400Y-134045471D01*
X161456202Y-134129491D01*
X161520508Y-134193797D01*
X161604528Y-134228600D01*
X161915850Y-134228600D01*
X161973000Y-134171450D01*
X161973000Y-133875000D01*
X162227000Y-133875000D01*
X162227000Y-134171450D01*
X162284150Y-134228600D01*
X162595472Y-134228600D01*
X162679492Y-134193797D01*
X162743798Y-134129491D01*
X162778600Y-134045471D01*
X162778600Y-133932150D01*
X162721450Y-133875000D01*
X162227000Y-133875000D01*
X161973000Y-133875000D01*
X161478550Y-133875000D01*
X161421400Y-133932150D01*
X161254000Y-133932150D01*
X161254000Y-133454529D01*
X161421400Y-133454529D01*
X161421400Y-133567850D01*
X161478550Y-133625000D01*
X161973000Y-133625000D01*
X161973000Y-133328550D01*
X162227000Y-133328550D01*
X162227000Y-133625000D01*
X162721450Y-133625000D01*
X162778600Y-133567850D01*
X162778600Y-133454529D01*
X162743798Y-133370509D01*
X162679492Y-133306203D01*
X162595472Y-133271400D01*
X162284150Y-133271400D01*
X162227000Y-133328550D01*
X161973000Y-133328550D01*
X161915850Y-133271400D01*
X161604528Y-133271400D01*
X161520508Y-133306203D01*
X161456202Y-133370509D01*
X161421400Y-133454529D01*
X161254000Y-133454529D01*
X161254000Y-132200000D01*
X161219441Y-132026262D01*
X161201893Y-132000000D01*
X161121027Y-131878974D01*
X160921026Y-131678974D01*
X160773738Y-131580559D01*
X160758807Y-131577589D01*
X160660535Y-131558041D01*
X160661952Y-131004004D01*
X161028973Y-131371026D01*
X161176261Y-131469441D01*
X161205086Y-131475175D01*
X161350000Y-131504000D01*
X161393029Y-131504000D01*
X161414246Y-131535754D01*
X161522411Y-131608027D01*
X161646000Y-131632610D01*
X161646000Y-131667390D01*
X161522411Y-131691973D01*
X161414246Y-131764246D01*
X161341973Y-131872411D01*
X161316594Y-132000000D01*
X161316594Y-132500000D01*
X161341973Y-132627589D01*
X161414246Y-132735754D01*
X161522411Y-132808027D01*
X161650000Y-132833406D01*
X162550000Y-132833406D01*
X162677589Y-132808027D01*
X162785754Y-132735754D01*
X162858027Y-132627589D01*
X162883406Y-132500000D01*
X162883406Y-132000000D01*
X162858027Y-131872411D01*
X162785754Y-131764246D01*
X162677589Y-131691973D01*
X162554000Y-131667390D01*
X162554000Y-131632610D01*
X162677589Y-131608027D01*
X162785754Y-131535754D01*
X162806971Y-131504000D01*
X163102335Y-131504000D01*
X163116973Y-131577589D01*
X163189246Y-131685754D01*
X163297411Y-131758027D01*
X163425000Y-131783406D01*
X164175000Y-131783406D01*
X164302589Y-131758027D01*
X164410754Y-131685754D01*
X164483027Y-131577589D01*
X164508406Y-131450000D01*
X164508406Y-130650000D01*
X164483027Y-130522411D01*
X164410754Y-130414246D01*
X164302589Y-130341973D01*
X164175000Y-130316594D01*
X163425000Y-130316594D01*
X163297411Y-130341973D01*
X163189246Y-130414246D01*
X163116973Y-130522411D01*
X163102335Y-130596000D01*
X162806971Y-130596000D01*
X162785754Y-130564246D01*
X162677589Y-130491973D01*
X162550000Y-130466594D01*
X161650000Y-130466594D01*
X161522411Y-130491973D01*
X161469428Y-130527375D01*
X161121026Y-130178974D01*
X160973738Y-130080559D01*
X160958807Y-130077589D01*
X160908087Y-130067500D01*
X161461758Y-130067500D01*
X161522411Y-130108027D01*
X161650000Y-130133406D01*
X161723248Y-130133406D01*
X161829060Y-130204107D01*
X162100000Y-130258000D01*
X163297371Y-130258000D01*
X163297411Y-130258027D01*
X163425000Y-130283406D01*
X164175000Y-130283406D01*
X164302589Y-130258027D01*
X164410754Y-130185754D01*
X164483027Y-130077589D01*
X164508406Y-129950000D01*
X164508406Y-129150000D01*
X164483027Y-129022411D01*
X164410754Y-128914246D01*
X164302589Y-128841973D01*
X164175000Y-128816594D01*
X163425000Y-128816594D01*
X163297411Y-128841973D01*
X163297371Y-128842000D01*
X162100000Y-128842000D01*
X161829060Y-128895893D01*
X161723248Y-128966594D01*
X161650000Y-128966594D01*
X161522411Y-128991973D01*
X161461758Y-129032500D01*
X160666994Y-129032500D01*
X160667000Y-129030325D01*
X160657457Y-128981699D01*
X160620421Y-128931707D01*
X159740421Y-128211707D01*
X159674389Y-128183818D01*
X159478600Y-128161491D01*
X159478600Y-127984150D01*
X159421450Y-127927000D01*
X158977000Y-127927000D01*
X158977000Y-127947000D01*
X158723000Y-127947000D01*
X158723000Y-127927000D01*
X158703000Y-127927000D01*
X158703000Y-127673000D01*
X158723000Y-127673000D01*
X158723000Y-127253550D01*
X158977000Y-127253550D01*
X158977000Y-127673000D01*
X159421450Y-127673000D01*
X159478600Y-127615850D01*
X159478600Y-127512250D01*
X161867355Y-127512250D01*
X161985300Y-127662127D01*
X162438550Y-127816513D01*
X162916379Y-127785696D01*
X163214700Y-127662127D01*
X163332645Y-127512250D01*
X162600000Y-126779605D01*
X161867355Y-127512250D01*
X159478600Y-127512250D01*
X159478600Y-127379528D01*
X159443797Y-127295508D01*
X159379491Y-127231202D01*
X159295471Y-127196400D01*
X159034150Y-127196400D01*
X158977000Y-127253550D01*
X158723000Y-127253550D01*
X158665850Y-127196400D01*
X158478358Y-127196400D01*
X158479358Y-126803600D01*
X158665850Y-126803600D01*
X158723000Y-126746450D01*
X158723000Y-126327000D01*
X158977000Y-126327000D01*
X158977000Y-126746450D01*
X159034150Y-126803600D01*
X159295471Y-126803600D01*
X159379491Y-126768798D01*
X159443797Y-126704492D01*
X159478600Y-126620472D01*
X159478600Y-126438550D01*
X161383487Y-126438550D01*
X161414304Y-126916379D01*
X161537873Y-127214700D01*
X161687750Y-127332645D01*
X162420395Y-126600000D01*
X161687750Y-125867355D01*
X161537873Y-125985300D01*
X161383487Y-126438550D01*
X159478600Y-126438550D01*
X159478600Y-126384150D01*
X159421450Y-126327000D01*
X158977000Y-126327000D01*
X158723000Y-126327000D01*
X158703000Y-126327000D01*
X158703000Y-126073000D01*
X158723000Y-126073000D01*
X158723000Y-125653550D01*
X158977000Y-125653550D01*
X158977000Y-126073000D01*
X159421450Y-126073000D01*
X159478600Y-126015850D01*
X159478600Y-125779528D01*
X159443797Y-125695508D01*
X159436039Y-125687750D01*
X161867355Y-125687750D01*
X162600000Y-126420395D01*
X163332645Y-125687750D01*
X163214700Y-125537873D01*
X162761450Y-125383487D01*
X162283621Y-125414304D01*
X161985300Y-125537873D01*
X161867355Y-125687750D01*
X159436039Y-125687750D01*
X159379491Y-125631202D01*
X159295471Y-125596400D01*
X159034150Y-125596400D01*
X158977000Y-125653550D01*
X158723000Y-125653550D01*
X158665850Y-125596400D01*
X158482430Y-125596400D01*
X158483429Y-125203600D01*
X158665850Y-125203600D01*
X158723000Y-125146450D01*
X158723000Y-124727000D01*
X158977000Y-124727000D01*
X158977000Y-125146450D01*
X159034150Y-125203600D01*
X159295471Y-125203600D01*
X159379491Y-125168798D01*
X159443797Y-125104492D01*
X159478600Y-125020472D01*
X159478600Y-124784150D01*
X159421450Y-124727000D01*
X158977000Y-124727000D01*
X158723000Y-124727000D01*
X158703000Y-124727000D01*
X158703000Y-124473000D01*
X158723000Y-124473000D01*
X158723000Y-124053550D01*
X158977000Y-124053550D01*
X158977000Y-124473000D01*
X159421450Y-124473000D01*
X159478600Y-124415850D01*
X159478600Y-124179528D01*
X159443797Y-124095508D01*
X159379491Y-124031202D01*
X159295471Y-123996400D01*
X159034150Y-123996400D01*
X158977000Y-124053550D01*
X158723000Y-124053550D01*
X158665850Y-123996400D01*
X158486501Y-123996400D01*
X158486678Y-123927000D01*
X161885736Y-123927000D01*
X163602000Y-125643264D01*
G36*
X159864002Y-134788002D02*
X159898561Y-134961740D01*
X159996976Y-135109028D01*
X160786000Y-135898053D01*
X160786000Y-137590000D01*
X160817031Y-137746000D01*
X160820559Y-137763738D01*
X160918974Y-137911026D01*
X161266594Y-138258647D01*
X161266594Y-138850000D01*
X161291261Y-138974011D01*
X160517711Y-138974011D01*
X160343973Y-139008570D01*
X160196685Y-139106984D01*
X160158370Y-139145299D01*
X159828600Y-139144806D01*
X159828600Y-138884150D01*
X159771450Y-138827000D01*
X159227000Y-138827000D01*
X159227000Y-138847000D01*
X158973000Y-138847000D01*
X158973000Y-138827000D01*
X158953000Y-138827000D01*
X158953000Y-138573000D01*
X158973000Y-138573000D01*
X158973000Y-137903550D01*
X159227000Y-137903550D01*
X159227000Y-138573000D01*
X159771450Y-138573000D01*
X159828600Y-138515850D01*
X159828600Y-138029528D01*
X159793797Y-137945508D01*
X159729491Y-137881202D01*
X159645471Y-137846400D01*
X159284150Y-137846400D01*
X159227000Y-137903550D01*
X158973000Y-137903550D01*
X158915850Y-137846400D01*
X158734351Y-137846400D01*
X158726179Y-136927000D01*
X158977000Y-136927000D01*
X158977000Y-137346450D01*
X159034150Y-137403600D01*
X159295471Y-137403600D01*
X159379491Y-137368798D01*
X159443797Y-137304492D01*
X159478600Y-137220472D01*
X159478600Y-136984150D01*
X159421450Y-136927000D01*
X158977000Y-136927000D01*
X158726179Y-136927000D01*
X158723000Y-136569404D01*
X158723000Y-136253550D01*
X158977000Y-136253550D01*
X158977000Y-136673000D01*
X159421450Y-136673000D01*
X159478600Y-136615850D01*
X159478600Y-136379528D01*
X159443797Y-136295508D01*
X159379491Y-136231202D01*
X159295471Y-136196400D01*
X159034150Y-136196400D01*
X158977000Y-136253550D01*
X158723000Y-136253550D01*
X158720167Y-136250717D01*
X158715749Y-135753701D01*
X158723000Y-135746450D01*
X158723000Y-135327000D01*
X158977000Y-135327000D01*
X158977000Y-135746450D01*
X159034150Y-135803600D01*
X159295471Y-135803600D01*
X159379491Y-135768798D01*
X159443797Y-135704492D01*
X159478600Y-135620472D01*
X159478600Y-135384150D01*
X159421450Y-135327000D01*
X158977000Y-135327000D01*
X158723000Y-135327000D01*
X158711956Y-135327000D01*
X158709699Y-135073000D01*
X158723000Y-135073000D01*
X158723000Y-135053000D01*
X158977000Y-135053000D01*
X158977000Y-135073000D01*
X159421450Y-135073000D01*
X159478600Y-135015850D01*
X159478600Y-134779528D01*
X159443797Y-134695508D01*
X159379491Y-134631202D01*
X159295471Y-134596400D01*
X159034150Y-134596400D01*
X158977002Y-134653548D01*
X158977002Y-134596400D01*
X158950571Y-134596400D01*
X159864002Y-133739181D01*
X159864002Y-134788002D01*
X159864002Y-134788002D01*
G37*
X159864002Y-134788002D02*
X159898561Y-134961740D01*
X159996976Y-135109028D01*
X160786000Y-135898053D01*
X160786000Y-137590000D01*
X160817031Y-137746000D01*
X160820559Y-137763738D01*
X160918974Y-137911026D01*
X161266594Y-138258647D01*
X161266594Y-138850000D01*
X161291261Y-138974011D01*
X160517711Y-138974011D01*
X160343973Y-139008570D01*
X160196685Y-139106984D01*
X160158370Y-139145299D01*
X159828600Y-139144806D01*
X159828600Y-138884150D01*
X159771450Y-138827000D01*
X159227000Y-138827000D01*
X159227000Y-138847000D01*
X158973000Y-138847000D01*
X158973000Y-138827000D01*
X158953000Y-138827000D01*
X158953000Y-138573000D01*
X158973000Y-138573000D01*
X158973000Y-137903550D01*
X159227000Y-137903550D01*
X159227000Y-138573000D01*
X159771450Y-138573000D01*
X159828600Y-138515850D01*
X159828600Y-138029528D01*
X159793797Y-137945508D01*
X159729491Y-137881202D01*
X159645471Y-137846400D01*
X159284150Y-137846400D01*
X159227000Y-137903550D01*
X158973000Y-137903550D01*
X158915850Y-137846400D01*
X158734351Y-137846400D01*
X158726179Y-136927000D01*
X158977000Y-136927000D01*
X158977000Y-137346450D01*
X159034150Y-137403600D01*
X159295471Y-137403600D01*
X159379491Y-137368798D01*
X159443797Y-137304492D01*
X159478600Y-137220472D01*
X159478600Y-136984150D01*
X159421450Y-136927000D01*
X158977000Y-136927000D01*
X158726179Y-136927000D01*
X158723000Y-136569404D01*
X158723000Y-136253550D01*
X158977000Y-136253550D01*
X158977000Y-136673000D01*
X159421450Y-136673000D01*
X159478600Y-136615850D01*
X159478600Y-136379528D01*
X159443797Y-136295508D01*
X159379491Y-136231202D01*
X159295471Y-136196400D01*
X159034150Y-136196400D01*
X158977000Y-136253550D01*
X158723000Y-136253550D01*
X158720167Y-136250717D01*
X158715749Y-135753701D01*
X158723000Y-135746450D01*
X158723000Y-135327000D01*
X158977000Y-135327000D01*
X158977000Y-135746450D01*
X159034150Y-135803600D01*
X159295471Y-135803600D01*
X159379491Y-135768798D01*
X159443797Y-135704492D01*
X159478600Y-135620472D01*
X159478600Y-135384150D01*
X159421450Y-135327000D01*
X158977000Y-135327000D01*
X158723000Y-135327000D01*
X158711956Y-135327000D01*
X158709699Y-135073000D01*
X158723000Y-135073000D01*
X158723000Y-135053000D01*
X158977000Y-135053000D01*
X158977000Y-135073000D01*
X159421450Y-135073000D01*
X159478600Y-135015850D01*
X159478600Y-134779528D01*
X159443797Y-134695508D01*
X159379491Y-134631202D01*
X159295471Y-134596400D01*
X159034150Y-134596400D01*
X158977002Y-134653548D01*
X158977002Y-134596400D01*
X158950571Y-134596400D01*
X159864002Y-133739181D01*
X159864002Y-134788002D01*
G36*
X157162500Y-133273000D02*
X157537500Y-133273000D01*
X157537500Y-133253000D01*
X157662500Y-133253000D01*
X157662500Y-133273000D01*
X158037500Y-133273000D01*
X158037500Y-133253000D01*
X158162500Y-133253000D01*
X158162500Y-133273000D01*
X158537500Y-133273000D01*
X158537500Y-133253000D01*
X158662500Y-133253000D01*
X158662500Y-133273000D01*
X159037500Y-133273000D01*
X159037500Y-133253000D01*
X159162500Y-133253000D01*
X159162500Y-133273000D01*
X159193000Y-133273000D01*
X159193000Y-133466671D01*
X159111096Y-133547000D01*
X159037500Y-133547000D01*
X159037500Y-133527000D01*
X158662500Y-133527000D01*
X158662500Y-133871450D01*
X158719650Y-133928600D01*
X158722014Y-133928600D01*
X157941951Y-134693662D01*
X157879491Y-134631202D01*
X157795471Y-134596400D01*
X157534150Y-134596400D01*
X157477000Y-134653550D01*
X157477000Y-135073000D01*
X157497000Y-135073000D01*
X157497000Y-135327000D01*
X157477000Y-135327000D01*
X157477000Y-135746450D01*
X157534150Y-135803600D01*
X157633000Y-135803600D01*
X157633000Y-136196400D01*
X157534150Y-136196400D01*
X157477000Y-136253550D01*
X157477000Y-136673000D01*
X157497000Y-136673000D01*
X157497000Y-136927000D01*
X157477000Y-136927000D01*
X157477000Y-137346450D01*
X157534150Y-137403600D01*
X157633000Y-137403600D01*
X157633000Y-137846400D01*
X157284150Y-137846400D01*
X157227000Y-137903550D01*
X157227000Y-138573000D01*
X157247000Y-138573000D01*
X157247000Y-138827000D01*
X157227000Y-138827000D01*
X157227000Y-139496450D01*
X157284150Y-139553600D01*
X157633000Y-139553600D01*
X157633000Y-139936400D01*
X157444150Y-139936400D01*
X157387000Y-139993550D01*
X157387000Y-140673000D01*
X157407000Y-140673000D01*
X157407000Y-140927000D01*
X157387000Y-140927000D01*
X157387000Y-140947000D01*
X157133000Y-140947000D01*
X157133000Y-140927000D01*
X156633550Y-140927000D01*
X156576400Y-140984150D01*
X156576400Y-141290391D01*
X155348423Y-140119528D01*
X156576400Y-140119528D01*
X156576400Y-140615850D01*
X156633550Y-140673000D01*
X157133000Y-140673000D01*
X157133000Y-139993550D01*
X157075850Y-139936400D01*
X156759529Y-139936400D01*
X156675509Y-139971202D01*
X156611203Y-140035508D01*
X156576400Y-140119528D01*
X155348423Y-140119528D01*
X154052782Y-138884150D01*
X156371400Y-138884150D01*
X156371400Y-139370472D01*
X156406203Y-139454492D01*
X156470509Y-139518798D01*
X156554529Y-139553600D01*
X156915850Y-139553600D01*
X156973000Y-139496450D01*
X156973000Y-138827000D01*
X156428550Y-138827000D01*
X156371400Y-138884150D01*
X154052782Y-138884150D01*
X153897000Y-138735614D01*
X153897000Y-138029528D01*
X156371400Y-138029528D01*
X156371400Y-138515850D01*
X156428550Y-138573000D01*
X156973000Y-138573000D01*
X156973000Y-137903550D01*
X156915850Y-137846400D01*
X156554529Y-137846400D01*
X156470509Y-137881202D01*
X156406203Y-137945508D01*
X156371400Y-138029528D01*
X153897000Y-138029528D01*
X153897000Y-136984150D01*
X156721400Y-136984150D01*
X156721400Y-137220472D01*
X156756203Y-137304492D01*
X156820509Y-137368798D01*
X156904529Y-137403600D01*
X157165850Y-137403600D01*
X157223000Y-137346450D01*
X157223000Y-136927000D01*
X156778550Y-136927000D01*
X156721400Y-136984150D01*
X153897000Y-136984150D01*
X153897000Y-136500098D01*
X154009651Y-136379528D01*
X156721400Y-136379528D01*
X156721400Y-136615850D01*
X156778550Y-136673000D01*
X157223000Y-136673000D01*
X157223000Y-136253550D01*
X157165850Y-136196400D01*
X156904529Y-136196400D01*
X156820509Y-136231202D01*
X156756203Y-136295508D01*
X156721400Y-136379528D01*
X154009651Y-136379528D01*
X154939661Y-135384150D01*
X156721400Y-135384150D01*
X156721400Y-135620472D01*
X156756203Y-135704492D01*
X156820509Y-135768798D01*
X156904529Y-135803600D01*
X157165850Y-135803600D01*
X157223000Y-135746450D01*
X157223000Y-135327000D01*
X156778550Y-135327000D01*
X156721400Y-135384150D01*
X154939661Y-135384150D01*
X155504576Y-134779528D01*
X156721400Y-134779528D01*
X156721400Y-135015850D01*
X156778550Y-135073000D01*
X157223000Y-135073000D01*
X157223000Y-134653550D01*
X157165850Y-134596400D01*
X156904529Y-134596400D01*
X156820509Y-134631202D01*
X156756203Y-134695508D01*
X156721400Y-134779528D01*
X155504576Y-134779528D01*
X156746400Y-133450421D01*
X156746400Y-133527002D01*
X156803548Y-133527002D01*
X156746400Y-133584150D01*
X156746400Y-133745471D01*
X156781202Y-133829491D01*
X156845508Y-133893797D01*
X156929528Y-133928600D01*
X156980350Y-133928600D01*
X157037500Y-133871450D01*
X157037500Y-133527000D01*
X157162500Y-133527000D01*
X157162500Y-133871450D01*
X157219650Y-133928600D01*
X157270472Y-133928600D01*
X157350000Y-133895658D01*
X157429528Y-133928600D01*
X157480350Y-133928600D01*
X157537500Y-133871450D01*
X157537500Y-133527000D01*
X157662500Y-133527000D01*
X157662500Y-133871450D01*
X157719650Y-133928600D01*
X157770472Y-133928600D01*
X157850000Y-133895658D01*
X157929528Y-133928600D01*
X157980350Y-133928600D01*
X158037500Y-133871450D01*
X158037500Y-133527000D01*
X158162500Y-133527000D01*
X158162500Y-133871450D01*
X158219650Y-133928600D01*
X158270472Y-133928600D01*
X158350000Y-133895658D01*
X158429528Y-133928600D01*
X158480350Y-133928600D01*
X158537500Y-133871450D01*
X158537500Y-133527000D01*
X158162500Y-133527000D01*
X158037500Y-133527000D01*
X157662500Y-133527000D01*
X157537500Y-133527000D01*
X157162500Y-133527000D01*
X157037500Y-133527000D01*
X156975000Y-133527000D01*
X156975000Y-133273000D01*
X157037500Y-133273000D01*
X157037500Y-133253000D01*
X157162500Y-133253000D01*
X157162500Y-133273000D01*
X157162500Y-133273000D01*
G37*
X157162500Y-133273000D02*
X157537500Y-133273000D01*
X157537500Y-133253000D01*
X157662500Y-133253000D01*
X157662500Y-133273000D01*
X158037500Y-133273000D01*
X158037500Y-133253000D01*
X158162500Y-133253000D01*
X158162500Y-133273000D01*
X158537500Y-133273000D01*
X158537500Y-133253000D01*
X158662500Y-133253000D01*
X158662500Y-133273000D01*
X159037500Y-133273000D01*
X159037500Y-133253000D01*
X159162500Y-133253000D01*
X159162500Y-133273000D01*
X159193000Y-133273000D01*
X159193000Y-133466671D01*
X159111096Y-133547000D01*
X159037500Y-133547000D01*
X159037500Y-133527000D01*
X158662500Y-133527000D01*
X158662500Y-133871450D01*
X158719650Y-133928600D01*
X158722014Y-133928600D01*
X157941951Y-134693662D01*
X157879491Y-134631202D01*
X157795471Y-134596400D01*
X157534150Y-134596400D01*
X157477000Y-134653550D01*
X157477000Y-135073000D01*
X157497000Y-135073000D01*
X157497000Y-135327000D01*
X157477000Y-135327000D01*
X157477000Y-135746450D01*
X157534150Y-135803600D01*
X157633000Y-135803600D01*
X157633000Y-136196400D01*
X157534150Y-136196400D01*
X157477000Y-136253550D01*
X157477000Y-136673000D01*
X157497000Y-136673000D01*
X157497000Y-136927000D01*
X157477000Y-136927000D01*
X157477000Y-137346450D01*
X157534150Y-137403600D01*
X157633000Y-137403600D01*
X157633000Y-137846400D01*
X157284150Y-137846400D01*
X157227000Y-137903550D01*
X157227000Y-138573000D01*
X157247000Y-138573000D01*
X157247000Y-138827000D01*
X157227000Y-138827000D01*
X157227000Y-139496450D01*
X157284150Y-139553600D01*
X157633000Y-139553600D01*
X157633000Y-139936400D01*
X157444150Y-139936400D01*
X157387000Y-139993550D01*
X157387000Y-140673000D01*
X157407000Y-140673000D01*
X157407000Y-140927000D01*
X157387000Y-140927000D01*
X157387000Y-140947000D01*
X157133000Y-140947000D01*
X157133000Y-140927000D01*
X156633550Y-140927000D01*
X156576400Y-140984150D01*
X156576400Y-141290391D01*
X155348423Y-140119528D01*
X156576400Y-140119528D01*
X156576400Y-140615850D01*
X156633550Y-140673000D01*
X157133000Y-140673000D01*
X157133000Y-139993550D01*
X157075850Y-139936400D01*
X156759529Y-139936400D01*
X156675509Y-139971202D01*
X156611203Y-140035508D01*
X156576400Y-140119528D01*
X155348423Y-140119528D01*
X154052782Y-138884150D01*
X156371400Y-138884150D01*
X156371400Y-139370472D01*
X156406203Y-139454492D01*
X156470509Y-139518798D01*
X156554529Y-139553600D01*
X156915850Y-139553600D01*
X156973000Y-139496450D01*
X156973000Y-138827000D01*
X156428550Y-138827000D01*
X156371400Y-138884150D01*
X154052782Y-138884150D01*
X153897000Y-138735614D01*
X153897000Y-138029528D01*
X156371400Y-138029528D01*
X156371400Y-138515850D01*
X156428550Y-138573000D01*
X156973000Y-138573000D01*
X156973000Y-137903550D01*
X156915850Y-137846400D01*
X156554529Y-137846400D01*
X156470509Y-137881202D01*
X156406203Y-137945508D01*
X156371400Y-138029528D01*
X153897000Y-138029528D01*
X153897000Y-136984150D01*
X156721400Y-136984150D01*
X156721400Y-137220472D01*
X156756203Y-137304492D01*
X156820509Y-137368798D01*
X156904529Y-137403600D01*
X157165850Y-137403600D01*
X157223000Y-137346450D01*
X157223000Y-136927000D01*
X156778550Y-136927000D01*
X156721400Y-136984150D01*
X153897000Y-136984150D01*
X153897000Y-136500098D01*
X154009651Y-136379528D01*
X156721400Y-136379528D01*
X156721400Y-136615850D01*
X156778550Y-136673000D01*
X157223000Y-136673000D01*
X157223000Y-136253550D01*
X157165850Y-136196400D01*
X156904529Y-136196400D01*
X156820509Y-136231202D01*
X156756203Y-136295508D01*
X156721400Y-136379528D01*
X154009651Y-136379528D01*
X154939661Y-135384150D01*
X156721400Y-135384150D01*
X156721400Y-135620472D01*
X156756203Y-135704492D01*
X156820509Y-135768798D01*
X156904529Y-135803600D01*
X157165850Y-135803600D01*
X157223000Y-135746450D01*
X157223000Y-135327000D01*
X156778550Y-135327000D01*
X156721400Y-135384150D01*
X154939661Y-135384150D01*
X155504576Y-134779528D01*
X156721400Y-134779528D01*
X156721400Y-135015850D01*
X156778550Y-135073000D01*
X157223000Y-135073000D01*
X157223000Y-134653550D01*
X157165850Y-134596400D01*
X156904529Y-134596400D01*
X156820509Y-134631202D01*
X156756203Y-134695508D01*
X156721400Y-134779528D01*
X155504576Y-134779528D01*
X156746400Y-133450421D01*
X156746400Y-133527002D01*
X156803548Y-133527002D01*
X156746400Y-133584150D01*
X156746400Y-133745471D01*
X156781202Y-133829491D01*
X156845508Y-133893797D01*
X156929528Y-133928600D01*
X156980350Y-133928600D01*
X157037500Y-133871450D01*
X157037500Y-133527000D01*
X157162500Y-133527000D01*
X157162500Y-133871450D01*
X157219650Y-133928600D01*
X157270472Y-133928600D01*
X157350000Y-133895658D01*
X157429528Y-133928600D01*
X157480350Y-133928600D01*
X157537500Y-133871450D01*
X157537500Y-133527000D01*
X157662500Y-133527000D01*
X157662500Y-133871450D01*
X157719650Y-133928600D01*
X157770472Y-133928600D01*
X157850000Y-133895658D01*
X157929528Y-133928600D01*
X157980350Y-133928600D01*
X158037500Y-133871450D01*
X158037500Y-133527000D01*
X158162500Y-133527000D01*
X158162500Y-133871450D01*
X158219650Y-133928600D01*
X158270472Y-133928600D01*
X158350000Y-133895658D01*
X158429528Y-133928600D01*
X158480350Y-133928600D01*
X158537500Y-133871450D01*
X158537500Y-133527000D01*
X158162500Y-133527000D01*
X158037500Y-133527000D01*
X157662500Y-133527000D01*
X157537500Y-133527000D01*
X157162500Y-133527000D01*
X157037500Y-133527000D01*
X156975000Y-133527000D01*
X156975000Y-133273000D01*
X157037500Y-133273000D01*
X157037500Y-133253000D01*
X157162500Y-133253000D01*
X157162500Y-133273000D01*
G36*
X156871400Y-122504528D02*
X156871400Y-122815850D01*
X156928550Y-122873000D01*
X157225000Y-122873000D01*
X157225000Y-122853000D01*
X157286828Y-122853000D01*
X157288902Y-123147000D01*
X157225000Y-123147000D01*
X157225000Y-123127000D01*
X156928550Y-123127000D01*
X156871400Y-123184150D01*
X156871400Y-123495472D01*
X156906203Y-123579492D01*
X156970509Y-123643798D01*
X157054529Y-123678600D01*
X157167850Y-123678600D01*
X157222998Y-123623452D01*
X157222998Y-123678600D01*
X157292652Y-123678600D01*
X157294894Y-123996400D01*
X157222998Y-123996400D01*
X157222998Y-124053548D01*
X157165850Y-123996400D01*
X156904529Y-123996400D01*
X156820509Y-124031202D01*
X156756203Y-124095508D01*
X156721400Y-124179528D01*
X156721400Y-124415850D01*
X156778550Y-124473000D01*
X157223000Y-124473000D01*
X157223000Y-124453000D01*
X157298115Y-124453000D01*
X157300189Y-124747000D01*
X157223000Y-124747000D01*
X157223000Y-124727000D01*
X156778550Y-124727000D01*
X156721400Y-124784150D01*
X156721400Y-125020472D01*
X156756203Y-125104492D01*
X156820509Y-125168798D01*
X156904529Y-125203600D01*
X157165850Y-125203600D01*
X157222998Y-125146452D01*
X157222998Y-125203600D01*
X157303410Y-125203600D01*
X157306181Y-125596400D01*
X157222998Y-125596400D01*
X157222998Y-125653548D01*
X157165850Y-125596400D01*
X156904529Y-125596400D01*
X156820509Y-125631202D01*
X156756203Y-125695508D01*
X156721400Y-125779528D01*
X156721400Y-126015850D01*
X156778550Y-126073000D01*
X157223000Y-126073000D01*
X157223000Y-126053000D01*
X157309402Y-126053000D01*
X157311476Y-126347000D01*
X157223000Y-126347000D01*
X157223000Y-126327000D01*
X156778550Y-126327000D01*
X156721400Y-126384150D01*
X156721400Y-126620472D01*
X156756203Y-126704492D01*
X156820509Y-126768798D01*
X156904529Y-126803600D01*
X157165850Y-126803600D01*
X157222998Y-126746452D01*
X157222998Y-126803600D01*
X157314698Y-126803600D01*
X157317469Y-127196400D01*
X157222998Y-127196400D01*
X157222998Y-127253548D01*
X157165850Y-127196400D01*
X156904529Y-127196400D01*
X156820509Y-127231202D01*
X156756203Y-127295508D01*
X156721400Y-127379528D01*
X156721400Y-127615850D01*
X156778550Y-127673000D01*
X157223000Y-127673000D01*
X157223000Y-127653000D01*
X157320690Y-127653000D01*
X157323003Y-127980896D01*
X157344330Y-128050447D01*
X157477000Y-128249452D01*
X157477000Y-128346450D01*
X157534150Y-128403600D01*
X157579765Y-128403600D01*
X158024965Y-129071400D01*
X157929528Y-129071400D01*
X157850000Y-129104342D01*
X157770472Y-129071400D01*
X157719650Y-129071400D01*
X157662500Y-129128550D01*
X157662500Y-129473000D01*
X158037500Y-129473000D01*
X158037500Y-129453000D01*
X158162500Y-129453000D01*
X158162500Y-129473000D01*
X158225000Y-129473000D01*
X158225000Y-129727000D01*
X158162500Y-129727000D01*
X158162500Y-129747000D01*
X158037500Y-129747000D01*
X158037500Y-129727000D01*
X157662500Y-129727000D01*
X157662500Y-129747000D01*
X157537500Y-129747000D01*
X157537500Y-129727000D01*
X157162500Y-129727000D01*
X157162500Y-129747000D01*
X157037500Y-129747000D01*
X157037500Y-129727000D01*
X156975000Y-129727000D01*
X156975000Y-129473000D01*
X157037500Y-129473000D01*
X157037500Y-129128550D01*
X157162500Y-129128550D01*
X157162500Y-129473000D01*
X157537500Y-129473000D01*
X157537500Y-129128550D01*
X157480350Y-129071400D01*
X157429528Y-129071400D01*
X157350000Y-129104342D01*
X157270472Y-129071400D01*
X157219650Y-129071400D01*
X157162500Y-129128550D01*
X157037500Y-129128550D01*
X156980350Y-129071400D01*
X156929528Y-129071400D01*
X156845508Y-129106203D01*
X156781202Y-129170509D01*
X156746400Y-129254529D01*
X156746400Y-129415850D01*
X156803548Y-129472998D01*
X156746400Y-129472998D01*
X156746400Y-129514346D01*
X155125027Y-127984150D01*
X156721400Y-127984150D01*
X156721400Y-128220472D01*
X156756203Y-128304492D01*
X156820509Y-128368798D01*
X156904529Y-128403600D01*
X157165850Y-128403600D01*
X157223000Y-128346450D01*
X157223000Y-127927000D01*
X156778550Y-127927000D01*
X156721400Y-127984150D01*
X155125027Y-127984150D01*
X153062241Y-126037365D01*
X156653254Y-122446352D01*
X156896743Y-122443346D01*
X156871400Y-122504528D01*
X156871400Y-122504528D01*
G37*
X156871400Y-122504528D02*
X156871400Y-122815850D01*
X156928550Y-122873000D01*
X157225000Y-122873000D01*
X157225000Y-122853000D01*
X157286828Y-122853000D01*
X157288902Y-123147000D01*
X157225000Y-123147000D01*
X157225000Y-123127000D01*
X156928550Y-123127000D01*
X156871400Y-123184150D01*
X156871400Y-123495472D01*
X156906203Y-123579492D01*
X156970509Y-123643798D01*
X157054529Y-123678600D01*
X157167850Y-123678600D01*
X157222998Y-123623452D01*
X157222998Y-123678600D01*
X157292652Y-123678600D01*
X157294894Y-123996400D01*
X157222998Y-123996400D01*
X157222998Y-124053548D01*
X157165850Y-123996400D01*
X156904529Y-123996400D01*
X156820509Y-124031202D01*
X156756203Y-124095508D01*
X156721400Y-124179528D01*
X156721400Y-124415850D01*
X156778550Y-124473000D01*
X157223000Y-124473000D01*
X157223000Y-124453000D01*
X157298115Y-124453000D01*
X157300189Y-124747000D01*
X157223000Y-124747000D01*
X157223000Y-124727000D01*
X156778550Y-124727000D01*
X156721400Y-124784150D01*
X156721400Y-125020472D01*
X156756203Y-125104492D01*
X156820509Y-125168798D01*
X156904529Y-125203600D01*
X157165850Y-125203600D01*
X157222998Y-125146452D01*
X157222998Y-125203600D01*
X157303410Y-125203600D01*
X157306181Y-125596400D01*
X157222998Y-125596400D01*
X157222998Y-125653548D01*
X157165850Y-125596400D01*
X156904529Y-125596400D01*
X156820509Y-125631202D01*
X156756203Y-125695508D01*
X156721400Y-125779528D01*
X156721400Y-126015850D01*
X156778550Y-126073000D01*
X157223000Y-126073000D01*
X157223000Y-126053000D01*
X157309402Y-126053000D01*
X157311476Y-126347000D01*
X157223000Y-126347000D01*
X157223000Y-126327000D01*
X156778550Y-126327000D01*
X156721400Y-126384150D01*
X156721400Y-126620472D01*
X156756203Y-126704492D01*
X156820509Y-126768798D01*
X156904529Y-126803600D01*
X157165850Y-126803600D01*
X157222998Y-126746452D01*
X157222998Y-126803600D01*
X157314698Y-126803600D01*
X157317469Y-127196400D01*
X157222998Y-127196400D01*
X157222998Y-127253548D01*
X157165850Y-127196400D01*
X156904529Y-127196400D01*
X156820509Y-127231202D01*
X156756203Y-127295508D01*
X156721400Y-127379528D01*
X156721400Y-127615850D01*
X156778550Y-127673000D01*
X157223000Y-127673000D01*
X157223000Y-127653000D01*
X157320690Y-127653000D01*
X157323003Y-127980896D01*
X157344330Y-128050447D01*
X157477000Y-128249452D01*
X157477000Y-128346450D01*
X157534150Y-128403600D01*
X157579765Y-128403600D01*
X158024965Y-129071400D01*
X157929528Y-129071400D01*
X157850000Y-129104342D01*
X157770472Y-129071400D01*
X157719650Y-129071400D01*
X157662500Y-129128550D01*
X157662500Y-129473000D01*
X158037500Y-129473000D01*
X158037500Y-129453000D01*
X158162500Y-129453000D01*
X158162500Y-129473000D01*
X158225000Y-129473000D01*
X158225000Y-129727000D01*
X158162500Y-129727000D01*
X158162500Y-129747000D01*
X158037500Y-129747000D01*
X158037500Y-129727000D01*
X157662500Y-129727000D01*
X157662500Y-129747000D01*
X157537500Y-129747000D01*
X157537500Y-129727000D01*
X157162500Y-129727000D01*
X157162500Y-129747000D01*
X157037500Y-129747000D01*
X157037500Y-129727000D01*
X156975000Y-129727000D01*
X156975000Y-129473000D01*
X157037500Y-129473000D01*
X157037500Y-129128550D01*
X157162500Y-129128550D01*
X157162500Y-129473000D01*
X157537500Y-129473000D01*
X157537500Y-129128550D01*
X157480350Y-129071400D01*
X157429528Y-129071400D01*
X157350000Y-129104342D01*
X157270472Y-129071400D01*
X157219650Y-129071400D01*
X157162500Y-129128550D01*
X157037500Y-129128550D01*
X156980350Y-129071400D01*
X156929528Y-129071400D01*
X156845508Y-129106203D01*
X156781202Y-129170509D01*
X156746400Y-129254529D01*
X156746400Y-129415850D01*
X156803548Y-129472998D01*
X156746400Y-129472998D01*
X156746400Y-129514346D01*
X155125027Y-127984150D01*
X156721400Y-127984150D01*
X156721400Y-128220472D01*
X156756203Y-128304492D01*
X156820509Y-128368798D01*
X156904529Y-128403600D01*
X157165850Y-128403600D01*
X157223000Y-128346450D01*
X157223000Y-127927000D01*
X156778550Y-127927000D01*
X156721400Y-127984150D01*
X155125027Y-127984150D01*
X153062241Y-126037365D01*
X156653254Y-122446352D01*
X156896743Y-122443346D01*
X156871400Y-122504528D01*
M02*
