<?xml version="1.0" encoding="UTF-8" standalone="no"?>
<!-- Created with Inkscape (http://www.inkscape.org/) -->

<svg
   xmlns:dc="http://purl.org/dc/elements/1.1/"
   xmlns:cc="http://creativecommons.org/ns#"
   xmlns:rdf="http://www.w3.org/1999/02/22-rdf-syntax-ns#"
   xmlns:svg="http://www.w3.org/2000/svg"
   xmlns="http://www.w3.org/2000/svg"
   xmlns:sodipodi="http://sodipodi.sourceforge.net/DTD/sodipodi-0.dtd"
   xmlns:inkscape="http://www.inkscape.org/namespaces/inkscape"
   width="210mm"
   height="297mm"
   viewBox="0 0 744.09448819 1052.3622047"
   id="svg5429"
   version="1.1"
   inkscape:version="0.91 r13725"
   sodipodi:docname="logo2.svg">
  <defs
     id="defs5431" />
  <sodipodi:namedview
     id="base"
     pagecolor="#ffffff"
     bordercolor="#666666"
     borderopacity="1.0"
     inkscape:pageopacity="0.0"
     inkscape:pageshadow="2"
     inkscape:zoom="0.7"
     inkscape:cx="315.47066"
     inkscape:cy="386.24848"
     inkscape:document-units="px"
     inkscape:current-layer="svg5429"
     showgrid="true"
     inkscape:window-width="1280"
     inkscape:window-height="737"
     inkscape:window-x="-4"
     inkscape:window-y="-4"
     inkscape:window-maximized="1">
    <inkscape:grid
       type="xygrid"
       id="grid6015" />
  </sodipodi:namedview>
  <metadata
     id="metadata5434">
    <rdf:RDF>
      <cc:Work
         rdf:about="">
        <dc:format>image/svg+xml</dc:format>
        <dc:type
           rdf:resource="http://purl.org/dc/dcmitype/StillImage" />
        <dc:title></dc:title>
      </cc:Work>
    </rdf:RDF>
  </metadata>
  <g
     inkscape:label="Layer 1"
     inkscape:groupmode="layer"
     id="layer1" />
  <g
     inkscape:groupmode="layer"
     id="layer8"
     inkscape:label="pi logo"
     style="display:inline;opacity:0.28000004">
    <g
       id="g5992"
       transform="matrix(2.5143931,0,0,2.5143931,58.542,191.35902)">
      <path
         id="path5980"
         d="M 69.298,0.005 C 67.645,0.056 65.865,0.667 63.845,2.26 58.9,0.353 54.102,-0.31 49.813,3.573 43.19,2.714 41.038,4.487 39.407,6.557 37.953,6.527 28.528,5.062 24.205,11.51 13.343,10.225 9.91,17.899 13.8,25.056 c -2.219,3.434 -4.518,6.827 0.67,13.375 -1.835,3.646 -0.697,7.602 3.626,12.389 -1.14,5.127 1.102,8.743 5.125,11.562 -0.753,7.015 6.433,11.094 8.578,12.547 0.824,4.087 2.541,7.945 10.748,10.077 1.354,6.092 6.286,7.144 11.063,8.422 -15.787,9.177 -29.325,21.25 -29.233,50.875 l -2.313,4.125 c -18.102,11.008 -34.388,46.39 -8.92,75.148 1.663,9.002 4.453,15.468 6.937,22.624 3.715,28.836 27.962,42.339 34.358,43.936 9.371,7.138 19.352,13.911 32.86,18.656 12.731,13.131 26.525,18.136 40.394,18.128 0.204,0 28.277,-4.996 41.01,-18.128 13.506,-4.745 23.487,-11.518 32.86,-18.656 6.394,-1.597 30.641,-15.1 34.356,-43.936 2.484,-7.156 5.274,-13.622 6.938,-22.624 25.466,-28.761 9.181,-64.144 -8.92,-75.152 l -2.317,-4.125 c 0.092,-29.622 -13.446,-41.696 -29.233,-50.875 4.776,-1.278 9.71,-2.33 11.062,-8.422 8.207,-2.133 9.925,-5.99 10.748,-10.077 2.146,-1.453 9.331,-5.532 8.58,-12.547 4.021,-2.819 6.264,-6.436 5.123,-11.562 4.324,-4.787 5.461,-8.743 3.626,-12.39 5.19,-6.544 2.887,-9.937 0.671,-13.371 3.888,-7.157 0.457,-14.832 -10.409,-13.546 -4.32,-6.448 -13.744,-4.984 -15.202,-4.954 -1.63,-2.069 -3.782,-3.842 -10.405,-2.983 -4.289,-3.883 -9.085,-3.221 -14.032,-1.313 -5.874,-4.635 -9.76,-0.92 -14.2,0.485 -7.112,-2.324 -8.739,0.859 -12.233,2.156 -7.756,-1.639 -10.113,1.929 -13.83,5.695 l -4.326,-0.086 c -11.698,6.894 -17.51,20.932 -19.57,28.149 -2.06,-7.218 -7.859,-21.256 -19.555,-28.149 l -4.325,0.086 C 100.387,6.829 98.031,3.261 90.275,4.9 86.78,3.603 85.16,0.42 78.042,2.744 75.128,1.822 72.448,-0.094 69.293,0.004 L -11,141"
         inkscape:connector-curvature="0" />
      <path
         id="path5982"
         d="m 46.008,30.334 c 31.036,16.001 49.079,28.945 58.964,39.969 -5.062,20.289 -31.47,21.215 -41.126,20.646 1.977,-0.92 3.627,-2.023 4.212,-3.716 -2.423,-1.722 -11.014,-0.182 -17.012,-3.551 2.304,-0.478 3.382,-0.943 4.459,-2.643 -5.666,-1.807 -11.77,-3.365 -15.36,-6.359 1.937,0.024 3.746,0.434 6.276,-1.321 -5.075,-2.735 -10.491,-4.903 -14.699,-9.084 2.624,-0.064 5.453,-0.026 6.276,-0.991 -4.645,-2.878 -8.565,-6.078 -11.809,-9.579 3.672,0.443 5.223,0.062 6.111,-0.578 -3.512,-3.597 -7.956,-6.634 -10.075,-11.066 2.726,0.94 5.221,1.3 7.019,-0.082 -1.193,-2.692 -6.305,-4.28 -9.249,-10.571 2.871,0.279 5.915,0.626 6.524,0 -1.332,-5.428 -3.618,-8.48 -5.86,-11.642 6.143,-0.091 15.451,0.024 15.03,-0.495 L 31.89,15.39 c 6.001,-1.616 12.141,0.259 16.599,1.651 2.001,-1.579 -0.036,-3.576 -2.478,-5.615 5.1,0.681 9.708,1.853 13.874,3.468 2.225,-2.009 -1.445,-4.019 -3.221,-6.028 7.879,1.494 11.217,3.595 14.534,5.698 2.407,-2.307 0.138,-4.268 -1.486,-6.276 5.941,2.2 9.001,5.041 12.222,7.845 1.092,-1.474 2.775,-2.555 0.743,-6.111 4.218,2.431 7.395,5.296 9.745,8.506 2.61,-1.662 1.555,-3.934 1.569,-6.029 4.384,3.566 7.166,7.361 10.571,11.066 0.686,-0.5 1.286,-2.193 1.817,-4.872 10.457,10.145 25.234,35.7 3.798,45.832 C 91.934,49.479 70.146,38.542 46.001,30.338 l 0.007,-0.004 m 164.678,0 c -31.032,16.003 -49.075,28.943 -58.959,39.969 5.062,20.289 31.469,21.215 41.125,20.646 -1.977,-0.92 -3.627,-2.023 -4.211,-3.716 2.423,-1.722 11.014,-0.182 17.011,-3.551 -2.304,-0.478 -3.381,-0.943 -4.459,-2.643 5.667,-1.807 11.771,-3.365 15.36,-6.359 -1.937,0.024 -3.746,0.434 -6.276,-1.321 5.076,-2.735 10.492,-4.903 14.7,-9.084 -2.625,-0.064 -5.454,-0.026 -6.276,-0.991 4.645,-2.878 8.565,-6.078 11.809,-9.579 -3.673,0.443 -5.223,0.062 -6.111,-0.578 3.511,-3.597 7.956,-6.634 10.075,-11.066 -2.727,0.94 -5.222,1.3 -7.02,-0.082 1.193,-2.692 6.306,-4.28 9.249,-10.571 -2.87,0.279 -5.915,0.626 -6.524,0 1.335,-5.43 3.621,-8.482 5.863,-11.644 -6.143,-0.091 -15.451,0.024 -15.03,-0.495 l 3.799,-3.882 c -6.001,-1.615 -12.141,0.26 -16.599,1.652 -2.001,-1.579 0.035,-3.576 2.477,-5.615 -5.099,0.68 -9.708,1.853 -13.873,3.468 -2.226,-2.009 1.445,-4.019 3.221,-6.028 -7.879,1.494 -11.217,3.595 -14.535,5.698 -2.407,-2.307 -0.137,-4.268 1.487,-6.276 -5.941,2.2 -9.001,5.041 -12.222,7.845 -1.093,-1.474 -2.775,-2.555 -0.744,-6.111 -4.217,2.431 -7.394,5.296 -9.744,8.506 -2.61,-1.662 -1.555,-3.935 -1.569,-6.029 -4.384,3.566 -7.166,7.36 -10.571,11.066 -0.686,-0.5 -1.286,-2.193 -1.817,-4.873 -10.457,10.146 -25.234,35.701 -3.798,45.833 18.233,-15.05 40.02,-25.985 64.166,-34.189 l -0.004,0"
         inkscape:connector-curvature="0"
         style="fill:#75a928" />
      <path
         id="path5984"
         d="m 165.933,236.933 c 0.108,18.933 -16.449,34.362 -36.98,34.461 -20.532,0.1 -37.264,-15.167 -37.372,-34.1 a 21.72,21.72 0 0 1 0,-0.361 c -0.108,-18.932 16.448,-34.361 36.98,-34.461 20.532,-0.1 37.263,15.167 37.372,34.1 l 0,0.361 m -58.687,-97.929 c 15.404,10.093 18.181,32.969 6.202,51.095 -11.979,18.127 -34.177,24.641 -49.581,14.549 -15.404,-10.093 -18.18,-32.969 -6.202,-51.095 11.979,-18.127 34.177,-24.641 49.581,-14.549 m 41.576,-1.827 c -15.403,10.092 -18.18,32.969 -6.202,51.095 11.979,18.127 34.177,24.641 49.581,14.548 15.404,-10.092 18.181,-32.968 6.202,-51.095 -11.978,-18.126 -34.176,-24.64 -49.581,-14.548 M 30.258,155.504 c 16.631,-4.458 5.615,68.803 -7.917,62.792 C 7.456,206.324 2.662,171.263 30.258,155.504 m 192.195,-0.913 c -16.633,-4.457 -5.615,68.807 7.917,62.796 14.885,-11.973 19.679,-47.038 -7.917,-62.796 m -56.507,-54.557 c 28.701,-4.846 52.583,12.206 51.619,43.328 -0.944,11.932 -62.193,-41.551 -51.619,-43.328 m -79.3,-0.913 C 57.943,94.274 34.063,111.33 35.027,142.45 35.971,154.381 97.221,100.898 86.646,99.121 m 41.228,-7.258 c -17.13,-0.446 -33.57,12.713 -33.61,20.346 -0.047,9.274 13.544,18.77 33.727,19.011 20.61,0.147 33.762,-7.601 33.828,-17.172 0.076,-10.844 -18.745,-22.353 -33.945,-22.186 l 0,0.001 m 1.046,190.18 c 14.935,-0.652 34.975,4.81 35.015,12.057 0.248,7.036 -18.175,22.934 -36.005,22.627 -18.466,0.797 -36.573,-15.126 -36.336,-20.645 -0.277,-8.092 22.484,-14.41 37.326,-14.039 M 73.756,239.098 c 10.633,12.81 15.481,35.316 6.607,41.951 -8.395,5.065 -28.782,2.979 -43.272,-17.838 -9.773,-17.468 -8.514,-35.243 -1.652,-40.465 10.261,-6.25 26.115,2.193 38.318,16.352 l -0.001,0 m 108.2,-4.061 c -11.505,13.475 -17.911,38.053 -9.519,45.969 8.025,6.15 29.567,5.29 45.479,-16.789 11.554,-14.829 7.683,-39.594 1.083,-46.17 -9.804,-7.583 -23.879,2.122 -37.043,16.986 l 0,0.004"
         inkscape:connector-curvature="0"
         style="fill:#bc1142" />
    </g>
  </g>
  <g
     inkscape:groupmode="layer"
     id="layer9"
     inkscape:label="pi circuit 1"
     style="display:inline">
    <circle
       style="opacity:1;fill:#ffffff;fill-opacity:1;stroke:#000000;stroke-width:30;stroke-linecap:round;stroke-linejoin:miter;stroke-miterlimit:4;stroke-dasharray:none;stroke-opacity:1"
       id="path5998"
       cx="487.31616"
       cy="616.47455"
       r="67.142853" />
    <circle
       style="opacity:1;fill:#ffffff;fill-opacity:1;stroke:#000000;stroke-width:30;stroke-linecap:round;stroke-linejoin:miter;stroke-miterlimit:4;stroke-dasharray:none;stroke-opacity:1"
       id="path5998-1"
       cx="273.27554"
       cy="621.77045"
       r="67.142853" />
    <circle
       style="opacity:1;fill:#ffffff;fill-opacity:1;stroke:#000000;stroke-width:30;stroke-linecap:round;stroke-linejoin:miter;stroke-miterlimit:4;stroke-dasharray:none;stroke-opacity:1"
       id="path5998-1-3"
       cx="383.27554"
       cy="786.31866"
       r="67.142853" />
    <ellipse
       style="opacity:1;fill:#ffffff;fill-opacity:1;stroke:#000000;stroke-width:30.00003052;stroke-linecap:round;stroke-linejoin:miter;stroke-miterlimit:4;stroke-dasharray:none;stroke-opacity:1"
       id="path5998-1-3-9"
       cx="-337.54044"
       cy="933.3985"
       rx="67.970741"
       ry="46.805225"
       transform="matrix(0.58641538,-0.81001049,0.80884467,0.58802236,0,0)"
       inkscape:transform-center-x="-8.2589802"
       inkscape:transform-center-y="0.91960414" />
    <ellipse
       style="opacity:1;fill:#ffffff;fill-opacity:1;stroke:#000000;stroke-width:30.00003052;stroke-linecap:round;stroke-linejoin:miter;stroke-miterlimit:4;stroke-dasharray:none;stroke-opacity:1"
       id="path5998-1-3-9-6"
       cx="-175.99004"
       cy="490.36948"
       rx="67.970741"
       ry="46.805225"
       transform="matrix(0.75119474,-0.66008065,0.65858798,0.75250373,0,0)"
       inkscape:transform-center-x="-7.8504276"
       inkscape:transform-center-y="2.7252614" />
    <ellipse
       style="opacity:1;fill:#ffffff;fill-opacity:1;stroke:#000000;stroke-width:30.00003052;stroke-linecap:round;stroke-linejoin:miter;stroke-miterlimit:4;stroke-dasharray:none;stroke-opacity:1"
       id="path5998-1-3-9-4"
       cx="-783.20789"
       cy="318.62961"
       rx="67.970741"
       ry="46.805225"
       transform="matrix(-0.58641538,-0.81001049,-0.80884467,0.58802236,0,0)"
       inkscape:transform-center-x="8.2589926"
       inkscape:transform-center-y="0.91958767" />
    <ellipse
       style="display:inline;opacity:1;fill:#ffffff;fill-opacity:1;stroke:#000000;stroke-width:30.00003052;stroke-linecap:round;stroke-linejoin:miter;stroke-miterlimit:4;stroke-dasharray:none;stroke-opacity:1"
       id="path5998-1-3-9-4-6"
       cx="-413.70224"
       cy="925.48322"
       rx="67.970741"
       ry="46.805225"
       transform="matrix(-0.99919038,-0.04023173,-0.03824793,0.99926828,0,0)"
       inkscape:transform-center-x="4.3858346"
       inkscape:transform-center-y="7.058417" />
    <ellipse
       style="display:inline;opacity:1;fill:#ffffff;fill-opacity:1;stroke:#000000;stroke-width:30.00003052;stroke-linecap:round;stroke-linejoin:miter;stroke-miterlimit:4;stroke-dasharray:none;stroke-opacity:1"
       id="path5998-1-3-9-4-6-5"
       cx="-397.95026"
       cy="466.46625"
       rx="67.970741"
       ry="46.805225"
       transform="matrix(-0.99919038,-0.04023173,-0.03824793,0.99926828,0,0)"
       inkscape:transform-center-x="4.3858346"
       inkscape:transform-center-y="7.058417" />
    <ellipse
       style="display:inline;opacity:1;fill:#ffffff;fill-opacity:1;stroke:#000000;stroke-width:30.00003052;stroke-linecap:round;stroke-linejoin:miter;stroke-miterlimit:4;stroke-dasharray:none;stroke-opacity:1"
       id="path5998-1-3-9-6-5"
       cx="-755.2879"
       cy="-20.193542"
       rx="67.970741"
       ry="46.805225"
       transform="matrix(-0.75119474,-0.66008065,-0.65858798,0.75250373,0,0)"
       inkscape:transform-center-x="7.8504115"
       inkscape:transform-center-y="2.7252751" />
    <ellipse
       style="display:inline;opacity:1;fill:#ffffff;fill-opacity:1;stroke:#000000;stroke-width:30.00003052;stroke-linecap:round;stroke-linejoin:miter;stroke-miterlimit:4;stroke-dasharray:none;stroke-opacity:1"
       id="path5998-1-3-9-3"
       cx="-656.68011"
       cy="641.19586"
       rx="67.970741"
       ry="46.805225"
       transform="matrix(0.00127378,-0.99999919,0.99999469,0.00325911,0,0)"
       inkscape:transform-center-x="-7.2343222"
       inkscape:transform-center-y="-4.0891067" />
    <ellipse
       style="display:inline;opacity:1;fill:#ffffff;fill-opacity:1;stroke:#000000;stroke-width:30.00003052;stroke-linecap:round;stroke-linejoin:miter;stroke-miterlimit:4;stroke-dasharray:none;stroke-opacity:1"
       id="path5998-1-3-9-3-9"
       cx="-659.78424"
       cy="123.28831"
       rx="67.970741"
       ry="46.805225"
       transform="matrix(0.00127378,-0.99999919,0.99999469,0.00325911,0,0)"
       inkscape:transform-center-x="-7.2343222"
       inkscape:transform-center-y="-4.0891067" />
  </g>
</svg>
