<?xml version="1.0" encoding="utf-8"?>
<svg version="1.1" id="Layer_1" xmlns="http://www.w3.org/2000/svg" xmlns:xlink="http://www.w3.org/1999/xlink" x="0px" y="0px"
	 viewBox="0 0 2595.015 1682.834" enable-background="new 0 0 2595.015 1682.834" xml:space="preserve">
<g>
	<path fill="#030101" stroke="#030101" stroke-width="0.5" d="M1233.233,62.747c-1.467-18.166,20.931-26.629,34.809-17.828
		c52.919,26.572,96.473,68.265,134.104,113.342c14.95,17.489,24.372,39.097,40.225,55.853c25.105,13.54,54.386,22.059,72.496,45.867
		c24.429,25.218,32.666,59.915,37.461,93.54c19.069,20.197,41.184,38.702,51.678,65.387c21.1,41.805,13.371,90.042,1.467,133.314
		c177.432,35.148,349.73,103.187,497.148,208.856c89.872,65.218,171,144.935,227.248,241.409
		c25.388,3.78,51.509,5.021,75.881,13.879c55.966,19.633,103.187,66.234,119.209,123.948c13.371,48.97,5.642,103.977-23.921,145.725
		c-17.49,28.096-45.021,47.221-72.665,64.203c-7.165,59.294,7.898,121.071-11.396,178.786
		c-22.454,64.936-88.067,113.06-157.178,112.383c-637.739-0.282-1275.534,0.113-1913.273-0.226
		c-77.348,0.846-149.223-58.617-163.384-134.498c-8.463-49.873,0.226-100.817-4.965-150.972
		c-36.22-18.73-70.747-43.554-90.549-80.169c-29.28-48.914-31.876-112.721-6.601-163.779
		c25.839-54.161,79.887-92.524,138.278-103.525c15.966-3.893,38.082,1.354,46.544-16.643
		c63.638-102.792,154.131-186.515,253.933-253.595c141.494-93.427,303.016-154.921,469.277-186.571
		c-9.253-32.101-16.925-65.782-9.704-99.125c7.278-36.784,28.716-70.634,59.294-92.411c14.443-8.857,16.474-26.403,21.664-40.959
		c9.591-29.957,31.312-55.289,58.053-71.368c19.182-11.453,43.78-13.766,58.956-31.481c27.137-29.224,62.792-54.217,75.542-93.596
		C1260.201,99.531,1236.562,83.565,1233.233,62.747 M1187.648,265.792c-26.347,8.463-55.515,16.53-71.932,41.072
		c-16.812,18.9-16.417,44.908-22.962,67.701c-11.058,9.76-25.219,15.458-35.881,25.726c-30.747,27.588-43.385,73.455-30.634,112.778
		c13.766,46.826,61.551,81.184,110.465,77.968c18.392-0.056,35.035-8.463,51.791-14.838c11.001-5.416,21.664,2.821,31.65,6.714
		c52.468,25.557,116.84,23.977,168.461-3.103c11.171-7.673,23.244-0.282,34.02,4.062c29.844,13.371,66.008,11.058,94.386-5.021
		c33.568-18.11,56.417-54.781,57.263-92.975c1.298-35.881-16.699-71.65-45.98-92.298c-6.996-5.98-16.643-10.099-20.536-18.9
		c-1.862-9.76-1.072-19.802-1.749-29.675c-1.411-39.661-32.045-76.05-70.691-84.682c-10.606-3.159-23.921-4.118-28.491-16.022
		c-27.024-48.857-63.244-92.693-106.572-127.954C1287.281,181.11,1230.582,220.884,1187.648,265.792 M941.726,606.834
		c-166.035,39.943-327.163,109.054-461.83,215.344c-66.177,53.371-127.277,114.865-171.79,187.756
		c28.378,9.027,55.176,22.51,79.04,40.395c36.558-24.711,77.912-46.318,123.328-45.021c49.196-3.103,97.714,14.838,136.247,44.908
		c17.659-10.437,34.64-22.398,53.766-30.127c50.493-20.818,109.788-20.423,159.717,1.918c16.417,7.109,30.409,18.392,45.867,27.137
		c9.196-2.087,16.361-8.914,24.429-13.427c68.265-44.739,163.722-40,228.489,9.14c9.252,9.647,19.351-2.144,27.757-6.714
		c68.434-47.672,165.979-42.82,232.269,6.544c11.96,10.776,23.357-6.149,34.132-10.776c58.505-36.671,136.247-38.42,197.291-6.714
		c12.13,6.206,22.849,14.781,34.979,21.044c6.714,2.652,11.848-5.303,17.602-7.56c50.042-36.22,117.348-44.739,175.852-26.629
		c25.388,7.391,47.165,22.68,69.562,36.163c37.179-28.603,83.215-46.883,130.606-45.077c46.996-1.015,91.283,18.618,129.026,45.134
		c19.802-14.048,40.846-26.403,63.469-35.261c6.939,7.503,16.53-9.816,6.093-11.058c-56.079-88.349-134.498-160.845-220.027-220.252
		c-132.298-91.17-284.85-149.674-441.125-184.258c-18.9-2.37-41.805-12.13-57.263,3.949c-35.825,28.942-84.795,39.83-129.534,29.393
		c-14.048-2.934-28.265-11.848-42.256-3.893c-44.175,17.433-93.483,21.833-139.745,10.832
		c-16.982-4.062-32.778-12.073-49.703-16.135c-41.805,15.12-89.985,19.859-131.226,0.339c-17.489-7.616-31.255-21.495-48.293-29.732
		C992.332,593.576,966.945,600.966,941.726,606.834 M224.609,1052.246c-51.565,10.212-97.996,49.026-112.326,100.31
		c-13.089,45.698,1.523,97.489,35.938,130.098c56.812,57.658,160.619,58.166,217.826,0.846c6.093-4.795,11.735-12.299,20.31-12.073
		c11.848-1.016,19.52,9.534,27.983,15.966c56.191,51.96,152.834,51.734,208.461-1.072c8.688-7.842,18.674-19.013,31.763-13.879
		c17.376,10.55,30.578,27.137,49.252,35.825c56.248,29.45,131.96,22.567,178.673-21.833c7.109-5.416,13.145-14.499,22.849-14.894
		c13.371-1.58,21.721,11.001,31.368,17.997c42.933,38.589,107.926,45.585,160.845,25.726c23.357-8.519,41.128-26.121,60.253-41.128
		c13.258-8.688,26.008,4.344,35.43,12.637c44.005,41.41,112.834,49.591,167.672,26.911c21.833-8.463,38.589-25.106,56.473-39.492
		c13.089-8.745,26.403,3.78,35.656,12.299c57.884,54.837,158.871,52.186,214.667-4.513c9.873-12.919,28.773-13.822,39.041-0.79
		c49.873,51.227,135.683,59.182,195.429,21.044c13.935-8.463,24.372-21.551,38.364-29.901c14.668-4.908,25.049,8.237,35.035,16.417
		c58.053,52.355,156.614,49.196,211.395-6.488c9.704-12.694,28.829-14.725,39.21-1.58c43.159,44.908,113.06,56.304,170.38,35.035
		c41.918-16.812,76.784-53.032,87.447-97.432c12.13-47.052-5.811-99.012-42.256-130.549c-55.402-50.211-147.474-52.186-204.117-2.99
		c-11.34,8.35-23.188,25.783-39.097,17.264c-21.044-16.023-40.508-35.374-66.403-43.498
		c-53.709-20.197-118.419-8.406-160.337,31.199c-8.745,7.165-18.392,18.731-31.086,13.709c-13.709-8.35-24.316-20.818-37.743-29.45
		c-56.304-37.687-137.376-32.666-187.813,12.863c-10.211,8.124-21.156,22.68-35.881,15.684
		c-20.141-14.781-37.912-33.568-62.059-41.918c-54.33-22.962-121.635-11.96-164.682,28.66c-8.858,7.165-18.166,19.069-31.029,14.33
		c-12.976-7.221-22.736-18.73-34.922-27.137c-56.022-39.83-139.463-36.615-190.746,9.93c-10.042,7.503-19.577,21.89-33.963,17.489
		c-12.919-7.278-22.736-18.73-34.866-27.08c-50.606-36.22-123.553-37.461-175.344-2.821c-13.484,8.688-23.921,21.326-37.63,29.619
		c-14.273,4.908-24.09-9.083-34.019-16.643c-56.417-50.945-151.367-51.057-206.656,1.749c-10.211,11.001-27.926,23.808-40.902,8.745
		c-44.175-44.908-114.865-62.115-173.595-37.404c-24.485,7.955-42.2,27.024-62.284,41.918c-12.75,7.673-24.203-4.288-33.173-12.073
		C326.893,1055.801,273.297,1041.527,224.609,1052.246 M354.763,1347.195c-18.674,7.898-37.574,15.966-57.602,19.802
		c-24.147,4.739-48.857,1.128-73.229,3.724c0.621,36.163-0.282,72.383,0.395,108.546c0.846,52.525,41.128,102.905,92.863,113.398
		c11.227,4.457,23.244,6.206,35.317,5.585c635.708,0.564,1271.472,0.056,1907.236,0.225c10.042,0.282,19.802-2.595,29.224-5.811
		c51.847-10.494,92.581-60.93,92.016-113.962c-0.282-37.01,1.354-74.132-1.128-111.142c-24.598,1.862-49.421,3.724-74.019,0.846
		c-27.08-3.329-52.186-15.063-75.994-27.701c-6.826-5.247-13.935-10.042-21.1-14.725c-11.509,5.416-22.623,11.678-32.271,20.028
		c-63.977,33.794-144.371,32.44-206.43-5.078c-6.77-5.36-13.879-10.324-20.987-15.12c-11.509,6.77-26.29,11.171-33.455,23.131
		c-17.376,4.457-33.794,11.791-51.057,16.474c-52.355,11.509-108.377,3.216-154.414-24.485
		c-6.432-5.247-12.807-11.001-20.761-13.709c-12.581,2.595-22.736,10.889-32.327,18.9c-63.864,33.286-144.315,33.004-206.092-5.021
		c-6.714-5.247-13.314-11.001-21.495-13.709c-14.161,2.652-25.218,12.807-37.066,20.254c-62.51,32.553-141.833,30.522-201.747-7.165
		c-6.544-4.795-13.032-10.099-20.705-12.976c-14.274,1.467-25.388,12.073-36.502,20.197c-38.759,18.9-82.256,26.742-125.133,20.874
		c-29.055-1.918-54.048-18.166-81.466-26.065c-0.339-9.083-12.694-14.386-20.874-14.725c-11.791,3.949-21.608,11.904-31.594,19.069
		c-35.656,18.448-75.768,26.573-115.768,22.623c-32.214-0.113-60.423-16.812-90.154-26.742l0.113-5.078
		c-7.278-3.724-14.104-8.519-22.059-10.494c-12.073,4.513-22.285,12.694-32.722,20.028c-33.85,16.699-71.368,25.67-109.28,22.623
		c-34.753,0.169-66.29-15.515-97.376-28.998l0.564-4.119c-6.996-3.441-13.879-7.052-20.705-10.719
		C375.75,1332.301,364.862,1339.184,354.763,1347.195z"/>
	<path fill="#F9F0DF" stroke="#F9F0DF" stroke-width="0.5" d="M1187.648,265.792c42.933-44.908,99.632-84.682,112.609-149.449
		c43.328,35.261,79.548,79.097,106.572,127.954c4.57,11.904,17.884,12.863,28.491,16.022c38.646,8.632,69.28,45.021,70.691,84.682
		c0.677,9.873-0.113,19.915,1.749,29.675c3.893,8.801,13.54,12.919,20.536,18.9c29.281,20.649,47.278,56.417,45.98,92.298
		c-0.846,38.194-23.695,74.865-57.263,92.975c-28.378,16.079-64.541,18.392-94.386,5.021c-10.776-4.344-22.849-11.735-34.02-4.062
		c-51.622,27.08-115.994,28.66-168.461,3.103c-9.986-3.893-20.649-12.13-31.65-6.714c-16.756,6.375-33.399,14.781-51.791,14.838
		c-48.914,3.216-96.699-31.142-110.465-77.968c-12.75-39.323-0.113-85.19,30.634-112.778c10.663-10.268,24.824-15.966,35.881-25.726
		c6.544-22.792,6.149-48.801,22.962-67.701C1132.134,282.323,1161.302,274.255,1187.648,265.792z"/>
	<path fill="#F6871E" stroke="#F6871E" stroke-width="0.5" d="M2057.6,783.701c-132.298-91.17-284.85-149.675-441.125-184.258
		c-18.9-2.37-41.805-12.13-57.263,3.949c-35.825,28.942-84.795,39.83-129.534,29.393c-14.048-2.934-28.265-11.848-42.256-3.893
		c-44.174,17.433-93.483,21.833-139.745,10.832c-16.982-4.062-32.778-12.073-49.703-16.135
		c-41.805,15.12-89.985,19.859-131.226,0.339c-17.489-7.616-31.255-21.495-48.293-29.732c-26.121-0.621-51.509,6.77-76.727,12.637
		c-166.035,39.943-327.163,109.054-461.83,215.344c-66.177,53.371-127.277,114.865-171.79,187.756
		c28.378,9.027,55.176,22.51,79.04,40.395c36.558-24.711,77.912-46.318,123.328-45.021c49.196-3.103,97.714,14.838,136.247,44.908
		c17.659-10.437,34.64-22.398,53.765-30.127c50.493-20.818,109.788-20.423,159.717,1.918c16.417,7.109,30.409,18.392,45.867,27.137
		c9.196-2.087,16.361-8.914,24.429-13.427c68.265-44.739,163.722-40,228.489,9.14c9.252,9.647,19.351-2.144,27.757-6.714
		c68.434-47.672,165.979-42.82,232.269,6.544c11.96,10.776,23.357-6.149,34.132-10.776c58.505-36.671,136.247-38.42,197.291-6.714
		c12.13,6.206,22.849,14.781,34.979,21.044c6.714,2.652,11.848-5.303,17.602-7.56c50.042-36.22,117.348-44.739,175.852-26.629
		c25.388,7.391,47.165,22.68,69.562,36.163c37.179-28.603,83.215-46.883,130.605-45.077c46.995-1.016,91.283,18.618,129.026,45.134
		c19.802-14.048,40.846-26.403,63.469-35.261c1.523-2.764,4.57-8.293,6.093-11.058
		C2221.548,915.604,2143.128,843.108,2057.6,783.701z M953.123,855.012c-11.396,16.643-26.234,34.979-47.842,36.784
		c-30.917,1.298-55.345-24.203-68.039-49.986c-13.54-27.193,9.027-57.094,32.327-70.183c40.395-21.89,84.287-41.579,130.888-43.441
		C991.655,772.531,977.89,816.874,953.123,855.012z M1334.558,915.097c-30.522,16.699-82.143,13.484-94.386-24.711
		c-8.745-36.389,7.616-72.327,20.874-105.444c10.719-21.608,18.561-46.149,37.405-62.228c24.598,37.01,44.287,77.63,55.74,120.62
		C1359.72,867.876,1360.51,901.839,1334.558,915.097z M1747.249,853.828c-16.248,20.084-38.928,44.908-67.757,36.953
		c-31.255-10.211-46.036-42.821-59.464-70.127c-11.566-29.845-24.034-60.197-26.685-92.355c25.613-0.959,49.309,9.76,73.173,17.546
		c30.973,10.776,63.977,24.09,83.215,52.242C1762.2,814.392,1760.564,838.539,1747.249,853.828z"/>
	<path fill="#D1711A" stroke="#D1711A" stroke-width="0.5" d="M1261.047,784.942c10.719-21.608,18.561-46.149,37.405-62.228
		c24.598,37.01,44.287,77.63,55.74,120.62c5.529,24.541,6.319,58.504-19.633,71.763c-30.522,16.699-82.143,13.484-94.386-24.711
		C1231.428,853.997,1247.789,818.059,1261.047,784.942z"/>
	<path fill="#D1711A" stroke="#D1711A" stroke-width="0.5" d="M869.569,771.628c40.395-21.89,84.287-41.579,130.888-43.441
		c-8.801,44.344-22.567,88.688-47.334,126.826c-11.396,16.643-26.234,34.979-47.842,36.784
		c-30.917,1.298-55.345-24.203-68.039-49.986C823.702,814.618,846.269,784.717,869.569,771.628z"/>
	<path fill="#D1711A" stroke="#D1711A" stroke-width="0.5" d="M1593.344,728.3c25.613-0.959,49.309,9.76,73.173,17.546
		c30.973,10.776,63.977,24.09,83.215,52.242c12.468,16.305,10.832,40.451-2.482,55.74c-16.248,20.084-38.928,44.908-67.757,36.953
		c-31.255-10.211-46.036-42.821-59.464-70.126C1608.463,790.81,1595.995,760.457,1593.344,728.3z"/>
	<path fill="#916441" stroke="#916441" stroke-width="0.5" d="M2277.626,1003.953c10.437,1.241,0.846,18.561-6.093,11.058
		C2273.057,1012.247,2276.103,1006.718,2277.626,1003.953z"/>
	<path fill="#F6AC41" stroke="#F6AC41" stroke-width="0.5" d="M224.609,1052.246c48.688-10.719,102.284,3.554,138.786,37.63
		c8.97,7.786,20.423,19.746,33.173,12.073c20.084-14.894,37.799-33.963,62.284-41.918c58.73-24.711,129.421-7.504,173.595,37.404
		c12.976,15.063,30.691,2.257,40.902-8.745c55.289-52.806,150.239-52.694,206.656-1.749c9.929,7.56,19.746,21.551,34.019,16.643
		c13.709-8.293,24.147-20.931,37.63-29.619c51.791-34.64,124.738-33.399,175.344,2.821c12.13,8.35,21.946,19.802,34.866,27.08
		c14.386,4.401,23.921-9.986,33.963-17.489c51.283-46.544,134.724-49.76,190.746-9.93c12.186,8.406,21.946,19.915,34.922,27.137
		c12.863,4.739,22.172-7.165,31.029-14.33c43.046-40.62,110.352-51.622,164.682-28.66c24.146,8.35,41.918,27.137,62.059,41.918
		c14.725,6.996,25.67-7.56,35.881-15.684c50.437-45.529,131.508-50.55,187.813-12.863c13.427,8.632,24.034,21.1,37.743,29.45
		c12.694,5.021,22.341-6.544,31.086-13.709c41.918-39.605,106.628-51.396,160.337-31.199c25.896,8.124,45.359,27.475,66.403,43.498
		c15.909,8.519,27.757-8.914,39.097-17.264c56.643-49.196,148.716-47.221,204.117,2.99c36.445,31.537,54.386,83.497,42.256,130.549
		c-10.663,44.4-45.529,80.62-87.447,97.432c-57.32,21.269-127.22,9.873-170.38-35.035c-10.381-13.145-29.506-11.114-39.21,1.58
		c-54.781,55.684-153.342,58.843-211.395,6.488c-9.986-8.181-20.366-21.326-35.035-16.417c-13.991,8.35-24.428,21.439-38.364,29.901
		c-59.746,38.138-145.556,30.183-195.429-21.044c-10.268-13.032-29.168-12.13-39.041,0.79
		c-55.796,56.699-156.783,59.351-214.667,4.513c-9.252-8.519-22.567-21.044-35.656-12.299
		c-17.884,14.386-34.64,31.029-56.473,39.492c-54.837,22.68-123.666,14.499-167.672-26.911c-9.422-8.293-22.172-21.326-35.43-12.637
		c-19.125,15.007-36.897,32.609-60.253,41.128c-52.919,19.859-117.912,12.863-160.845-25.726
		c-9.647-6.996-17.997-19.577-31.368-17.997c-9.704,0.395-15.74,9.478-22.849,14.894c-46.713,44.4-122.425,51.283-178.673,21.833
		c-18.674-8.688-31.876-25.275-49.252-35.825c-13.089-5.134-23.075,6.036-31.763,13.879c-55.627,52.806-152.27,53.032-208.461,1.072
		c-8.463-6.432-16.135-16.982-27.983-15.966c-8.575-0.226-14.217,7.278-20.31,12.073c-57.207,57.32-161.014,56.812-217.826-0.846
		c-34.414-32.609-49.026-84.4-35.938-130.098C126.612,1101.273,173.043,1062.458,224.609,1052.246z"/>
	<path fill="#119087" stroke="#119087" stroke-width="0.5" d="M354.763,1347.195c10.099-8.011,20.987-14.894,32.214-21.213
		c6.826,3.667,13.709,7.278,20.705,10.719l-0.564,4.119c-5.98,36.333-2.877,73.173-3.272,109.788
		c-0.282,46.883,0.395,93.765-0.564,140.648c-14.894-0.226-29.788-0.395-44.682-0.169c-0.677-65.613-0.959-131.282,0.339-196.952
		C359.107,1378.394,357.245,1362.71,354.763,1347.195z"/>
	<path fill="#119088" stroke="#119088" stroke-width="0.5" d="M613.774,1347.195c10.437-7.334,20.649-15.515,32.722-20.028
		c7.955,1.975,14.781,6.77,22.059,10.494l-0.113,5.078c-0.903,82.877-0.677,165.697-0.282,248.574
		c-14.951-0.169-29.845-0.226-44.795-0.056c-1.241-71.424-0.564-142.848-0.282-214.216
		C622.518,1366.602,623.985,1353.627,613.774,1347.195z"/>
	<path fill="#119087" stroke="#119087" stroke-width="0.5" d="M874.364,1346.856c9.986-7.165,19.802-15.12,31.594-19.069
		c8.18,0.339,20.536,5.642,20.874,14.725c-1.692,41.636,0.508,83.328-0.339,125.02c-1.015,41.354,3.103,82.933-2.99,124.005
		c-13.653-0.226-27.306-0.395-40.959-0.339c-1.467-69.506-0.508-139.068-0.339-208.63
		C882.601,1370.157,878.821,1358.253,874.364,1346.856z"/>
	<path fill="#119086" stroke="#119086" stroke-width="0.5" d="M1133.432,1347.703c11.114-8.124,22.228-18.731,36.502-20.197
		c7.673,2.877,14.161,8.181,20.705,12.976c-13.032,23.357-8.068,50.719-8.519,76.276c0.113,58.166,0.282,116.388-0.169,174.611
		c-14.894-0.226-29.845-0.339-44.739-0.226c1.128-63.751-0.169-127.559,0.846-191.31
		C1138.396,1382.343,1136.535,1364.854,1133.432,1347.703z"/>
	<path fill="#119087" stroke="#119087" stroke-width="0.5" d="M1392.386,1347.646c11.848-7.447,22.905-17.602,37.066-20.254
		c8.18,2.708,14.781,8.463,21.495,13.709c-5.98,34.358-3.385,69.224-3.611,103.864c-0.226,48.745,0.282,97.489-0.339,146.233
		c-14.894-0.226-29.844-0.226-44.795,0c0.79-69.45,0.056-138.955,0.677-208.405
		C1401.751,1370.777,1404.798,1354.755,1392.386,1347.646z"/>
	<path fill="#119088" stroke="#119088" stroke-width="0.5" d="M1657.039,1346.123c9.591-8.011,19.746-16.305,32.327-18.9
		c7.955,2.708,14.33,8.463,20.761,13.709c-3.329,17.546-5.247,35.373-4.908,53.258c0.903,65.726-0.508,131.452,0.846,197.178
		c-14.951-0.169-29.845-0.226-44.739-0.113c-1.128-44.964-0.451-89.985-0.677-135.006
		C1660.311,1419.522,1662.962,1382.569,1657.039,1346.123z"/>
	<path fill="#119188" stroke="#119188" stroke-width="0.5" d="M1915.598,1348.944c7.165-11.961,21.946-16.361,33.455-23.131
		c7.108,4.796,14.217,9.76,20.987,15.12c-13.202,37.179-4.231,76.896-5.473,115.317c-1.185,45.134,3.216,90.549-3.047,135.458
		c-15.176-0.226-30.352-0.451-45.585-0.395C1916.952,1510.522,1917.629,1429.677,1915.598,1348.944z"/>
	<path fill="#119087" stroke="#119087" stroke-width="0.5" d="M2176.471,1346.01c9.647-8.35,20.761-14.612,32.271-20.028
		c7.165,4.682,14.274,9.478,21.1,14.725c-5.698,34.471-2.99,69.506-3.272,104.259c-0.339,48.745,0.733,97.489-0.846,146.233
		c-14.894-0.169-29.788-0.169-44.626,0.056c1.298-63.808-0.225-127.615,0.959-191.423
		C2182.507,1381.722,2180.25,1363.725,2176.471,1346.01z"/>
	<path fill="#16AA9E" stroke="#16AA9E" stroke-width="0.5" d="M403.846,1450.608c0.395-36.615-2.708-73.455,3.272-109.788
		c31.086,13.484,62.623,29.168,97.376,28.998c37.912,3.047,75.43-5.924,109.28-22.623c10.211,6.432,8.745,19.407,9.309,29.845
		c-0.282,71.368-0.959,142.792,0.282,214.216c-73.342,0.959-146.741,0.79-220.083,0
		C404.241,1544.373,403.564,1497.49,403.846,1450.608z"/>
	<path fill="#16AA9E" stroke="#16AA9E" stroke-width="0.5" d="M668.442,1342.738c29.732,9.929,57.94,26.629,90.154,26.742
		c40,3.949,80.112-4.175,115.768-22.623c4.457,11.396,8.237,23.3,7.842,35.712c-0.169,69.562-1.128,139.125,0.339,208.63
		c-71.48,0.959-142.961,0.846-214.385,0.113C667.765,1508.435,667.539,1425.615,668.442,1342.738z"/>
	<path fill="#16AA9E" stroke="#16AA9E" stroke-width="0.5" d="M926.832,1342.512c27.419,7.898,52.411,24.146,81.466,26.065
		c42.877,5.867,86.375-1.975,125.133-20.874c3.103,17.151,4.965,34.64,4.626,52.129c-1.016,63.751,0.282,127.559-0.846,191.31
		c-71.255,0.959-142.453,0.959-213.708,0.395c6.093-41.072,1.975-82.651,2.99-124.005
		C927.34,1425.84,925.14,1384.148,926.832,1342.512z"/>
	<path fill="#16AA9E" stroke="#16AA9E" stroke-width="0.5" d="M1182.12,1416.757c0.451-25.557-4.513-52.919,8.519-76.276
		c59.915,37.687,139.237,39.718,201.747,7.165c12.412,7.109,9.365,23.131,10.494,35.148c-0.621,69.449,0.113,138.955-0.677,208.405
		c-73.399,1.072-146.797,0.733-220.252,0.169C1182.402,1533.146,1182.232,1474.923,1182.12,1416.757z"/>
	<path fill="#16AA9E" stroke="#16AA9E" stroke-width="0.5" d="M1447.336,1444.966c0.226-34.64-2.369-69.506,3.611-103.864
		c61.777,38.025,142.227,38.307,206.092,5.021c5.924,36.445,3.272,73.399,3.611,110.126c0.226,45.021-0.451,90.042,0.677,135.006
		c-71.424,0.79-142.848,0.959-214.329-0.056C1447.618,1542.455,1447.111,1493.71,1447.336,1444.966z"/>
	<path fill="#16AA9E" stroke="#16AA9E" stroke-width="0.5" d="M1705.219,1394.19c-0.338-17.884,1.58-35.712,4.908-53.258
		c46.036,27.701,102.058,35.994,154.414,24.485c17.264-4.682,33.681-12.017,51.057-16.474c2.031,80.733,1.354,161.578,0.339,242.368
		c-69.957,0.734-139.914,0.79-209.871,0.057C1704.711,1525.642,1706.121,1459.916,1705.219,1394.19z"/>
	<path fill="#16AA9E" stroke="#16AA9E" stroke-width="0.5" d="M1964.568,1456.249c1.241-38.42-7.729-78.138,5.473-115.317
		c62.059,37.517,142.453,38.871,206.43,5.078c3.78,17.715,6.037,35.712,5.585,53.822c-1.185,63.808,0.339,127.615-0.959,191.423
		c-73.173,1.072-146.346,0.451-219.575,0.451C1967.784,1546.799,1963.383,1501.383,1964.568,1456.249z"/>
	<path fill="#16AA9E" stroke="#16AA9E" stroke-width="0.5" d="M2226.569,1444.966c0.282-34.753-2.426-69.788,3.272-104.259
		c23.808,12.638,48.914,24.372,75.994,27.701c24.598,2.877,49.422,1.016,74.019-0.846c2.482,37.01,0.846,74.132,1.128,111.142
		c0.564,53.032-40.169,103.469-92.016,113.962c-21.1-0.339-42.2-1.354-63.244-1.467
		C2227.302,1542.455,2226.23,1493.71,2226.569,1444.966z"/>
	<path fill="#16A99E" stroke="#16A99E" stroke-width="0.5" d="M297.161,1366.997c20.028-3.836,38.928-11.904,57.602-19.802
		c2.482,15.515,4.344,31.199,4.175,46.939c-1.298,65.67-1.016,131.339-0.339,196.952c-13.822,0.282-27.588,1.128-41.41,1.58
		c-51.734-10.494-92.016-60.874-92.863-113.398c-0.677-36.163,0.226-72.383-0.395-108.546
		C248.304,1368.126,273.015,1371.736,297.161,1366.997z"/>
	<path fill="#417772" stroke="#417772" stroke-width="0.5" d="M317.189,1592.666c13.822-0.451,27.588-1.297,41.41-1.58
		c14.894-0.226,29.788-0.056,44.682,0.169c73.342,0.79,146.741,0.959,220.083,0c14.951-0.169,29.845-0.113,44.795,0.056
		c71.424,0.734,142.904,0.846,214.385-0.113c13.653-0.056,27.306,0.113,40.959,0.339c71.255,0.564,142.453,0.564,213.708-0.395
		c14.894-0.113,29.845,0,44.739,0.226c73.455,0.564,146.854,0.902,220.252-0.169c14.951-0.226,29.901-0.226,44.795,0
		c71.48,1.016,142.905,0.846,214.329,0.056c14.894-0.113,29.788-0.056,44.739,0.113c69.957,0.733,139.914,0.677,209.871-0.057
		c15.233-0.056,30.409,0.169,45.585,0.395c73.229,0,146.402,0.62,219.575-0.451c14.838-0.226,29.732-0.226,44.626-0.056
		c21.044,0.113,42.144,1.128,63.244,1.467c-9.422,3.216-19.182,6.093-29.224,5.811c-635.764-0.169-1271.528,0.339-1907.236-0.225
		C340.433,1598.872,328.416,1597.123,317.189,1592.666z"/>
</g>
</svg>
